<?xml version="1.0" encoding="utf-8"?>
<!-- Generator: Adobe Illustrator 16.0.0, SVG Export Plug-In . SVG Version: 6.00 Build 0)  -->
<!DOCTYPE svg PUBLIC "-//W3C//DTD SVG 1.1//EN" "http://www.w3.org/Graphics/SVG/1.1/DTD/svg11.dtd">
<svg version="1.1" id="Layer_1" xmlns="http://www.w3.org/2000/svg" xmlns:xlink="http://www.w3.org/1999/xlink" x="0px" y="0px"
	 width="471.005px" height="193.805px" viewBox="0 0 471.005 193.805" enable-background="new 0 0 471.005 193.805"
	 xml:space="preserve">
<g>
	<defs>
		<rect id="SVGID_1_" width="471.005" height="193.805"/>
	</defs>
	<clipPath id="SVGID_2_">
		<use xlink:href="#SVGID_1_"  overflow="visible"/>
	</clipPath>
	<path clip-path="url(#SVGID_2_)" fill="#C86324" d="M156.421,110.088c59.619-59.806,77.697-91.941,93.5-95.583
		c17.144-3.855,39.863,24.731,206.906,165.123C381.167,124.98,330.959,78.255,285.114,65.185
		C250.034,55.149,212.192,63.77,156.421,110.088"/>
</g>
<g>
	<defs>
		<path id="SVGID_3_" d="M141.808,59.908c-11.663-5.769-13.591-21.383-17.851-31.421c8.722,48.957,8.628,78.958,19.674,78.854
			c12.18-0.196,33.383-34.966,93.102-89.696C181.975,59.908,155.403,66.61,141.808,59.908"/>
	</defs>
	<clipPath id="SVGID_4_">
		<use xlink:href="#SVGID_3_"  overflow="visible"/>
	</clipPath>
	
		<linearGradient id="SVGID_5_" gradientUnits="userSpaceOnUse" x1="0" y1="193.8052" x2="1" y2="193.8052" gradientTransform="matrix(112.7746 0 0 -112.7746 123.9375 21918.7852)">
		<stop  offset="0" style="stop-color:#FADA95"/>
		<stop  offset="1" style="stop-color:#F8B000"/>
	</linearGradient>
	<rect x="123.957" y="17.645" clip-path="url(#SVGID_4_)" fill="url(#SVGID_5_)" width="112.775" height="89.8"/>
</g>
<g>
	<defs>
		<rect id="SVGID_6_" width="471.005" height="193.805"/>
	</defs>
	<clipPath id="SVGID_7_">
		<use xlink:href="#SVGID_6_"  overflow="visible"/>
	</clipPath>
	<path clip-path="url(#SVGID_7_)" fill="#C86324" d="M14.625,118.502c59.735-54.845,81.039-89.612,93.107-89.817
		c11.158-0.095,10.953,29.907,19.674,78.865c-4.159-10.032-6.184-25.641-17.851-31.424C95.96,69.441,69.381,76.126,14.625,118.502"
		/>
	<polygon clip-path="url(#SVGID_7_)" points="35.428,178.848 35.428,161.417 29.716,172.758 25.767,172.758 20.013,161.417 
		20.013,178.848 14.176,178.848 14.176,148.946 19.93,148.946 27.741,165.115 35.511,148.946 41.265,148.946 41.265,178.848 	"/>
	<path clip-path="url(#SVGID_7_)" d="M64.974,178.848l-1.764-5.293H52.584l-1.807,5.293h-6.088l10.877-29.902h4.578l10.921,29.902
		H64.974z M58.002,157.764l-3.78,10.878h7.433L58.002,157.764z"/>
	<polygon clip-path="url(#SVGID_7_)" points="97.717,178.848 92.845,178.848 87.343,160.705 81.841,178.848 76.969,178.848 
		68.988,148.946 75.079,148.946 79.699,167.801 85.159,148.946 89.528,148.946 94.987,167.801 99.65,148.946 105.738,148.946 	"/>
	<path clip-path="url(#SVGID_7_)" d="M117.284,179.1c-4.535,0-7.979-0.966-10.919-3.947l3.779-3.781
		c1.89,1.891,4.452,2.521,7.225,2.521c3.444,0,5.291-1.302,5.291-3.694c0-1.052-0.293-1.934-0.924-2.522
		c-0.588-0.545-1.26-0.839-2.645-1.05l-3.613-0.504c-2.562-0.377-4.452-1.174-5.795-2.478c-1.428-1.428-2.143-3.359-2.143-5.88
		c0-5.335,3.948-9.07,10.417-9.07c4.116,0,7.098,1.008,9.659,3.483l-3.696,3.655c-1.89-1.806-4.157-2.059-6.132-2.059
		c-3.107,0-4.62,1.723-4.62,3.779c0,0.756,0.252,1.555,0.882,2.145c0.588,0.545,1.554,1.007,2.773,1.174l3.527,0.504
		c2.731,0.379,4.452,1.135,5.713,2.31c1.595,1.515,2.31,3.697,2.31,6.344C128.374,175.826,123.542,179.1,117.284,179.1"/>
	<path clip-path="url(#SVGID_7_)" d="M151.203,175.825c-2.099,2.1-4.661,3.275-8.064,3.275c-3.402,0-6.006-1.176-8.107-3.275
		c-3.023-3.024-2.939-6.764-2.939-11.929c0-5.166-0.084-8.904,2.939-11.927c2.101-2.102,4.705-3.276,8.107-3.276
		c3.403,0,5.965,1.175,8.064,3.276c3.024,3.022,2.983,6.761,2.983,11.927C154.186,169.061,154.227,172.8,151.203,175.825
		 M146.877,155.496c-0.841-0.966-2.142-1.596-3.738-1.596c-1.595,0-2.94,0.63-3.78,1.596c-1.134,1.262-1.427,2.646-1.427,8.4
		s0.293,7.14,1.427,8.399c0.84,0.968,2.185,1.597,3.78,1.597c1.596,0,2.897-0.629,3.738-1.597c1.134-1.26,1.47-2.646,1.47-8.399
		S148.011,156.757,146.877,155.496"/>
	<polygon clip-path="url(#SVGID_7_)" points="176.835,178.848 164.991,160.495 164.991,178.848 159.154,178.848 159.154,148.946 
		164.361,148.946 176.205,167.256 176.205,148.946 182.044,148.946 182.044,178.848 	"/>
	<path clip-path="url(#SVGID_7_)" d="M215.643,175.656c-2.099,2.269-4.913,3.444-7.979,3.444c-2.94,0-5.627-1.091-7.645-3.108
		c-2.813-2.814-2.813-5.754-2.813-12.096c0-6.343,0-9.282,2.813-12.096c2.018-2.017,4.663-3.107,7.645-3.107
		c5.711,0,9.576,3.695,10.458,8.945h-3.192c-0.841-3.78-3.529-6.09-7.266-6.09c-1.974,0-3.864,0.798-5.167,2.143
		c-1.889,1.931-2.1,3.947-2.1,10.205s0.211,8.317,2.1,10.248c1.303,1.344,3.193,2.1,5.167,2.1c2.184,0,4.284-0.882,5.669-2.562
		c1.219-1.468,1.68-3.106,1.68-5.417v-2.269h-7.349v-2.814h10.542v4.746C218.206,171.372,217.492,173.681,215.643,175.656"/>
	<polygon clip-path="url(#SVGID_7_)" points="224.382,178.848 224.382,148.946 242.946,148.946 242.946,151.799 227.575,151.799 
		227.575,162.342 240.679,162.342 240.679,165.2 227.575,165.2 227.575,175.993 242.946,175.993 242.946,178.848 	"/>
	<path clip-path="url(#SVGID_7_)" d="M264.964,175.992c-2.017,2.017-4.662,3.108-7.645,3.108c-2.981,0-5.628-1.092-7.644-3.108
		c-2.814-2.814-2.814-5.754-2.814-12.096c0-6.343,0-9.282,2.814-12.097c2.016-2.016,4.662-3.106,7.644-3.106
		c2.982,0,5.628,1.091,7.645,3.106c2.812,2.814,2.812,5.754,2.812,12.097C267.776,170.238,267.776,173.177,264.964,175.992
		 M262.485,153.691c-1.302-1.345-3.19-2.144-5.166-2.144c-1.974,0-3.863,0.799-5.167,2.144c-1.89,1.932-2.099,3.947-2.099,10.205
		s0.209,8.274,2.099,10.206c1.304,1.345,3.193,2.143,5.167,2.143c1.976,0,3.864-0.798,5.166-2.143
		c1.891-1.932,2.101-3.948,2.101-10.206S264.376,155.623,262.485,153.691"/>
	<path clip-path="url(#SVGID_7_)" d="M293.815,179.1c-2.938,0-5.628-1.092-7.644-3.107c-2.813-2.815-2.813-5.754-2.813-12.097
		s0-9.281,2.813-12.097c2.016-2.015,4.705-3.105,7.644-3.105c5.376,0,9.366,3.274,10.374,8.902h-3.274
		c-0.798-3.652-3.361-6.049-7.1-6.049c-1.973,0-3.863,0.756-5.166,2.101c-1.89,1.933-2.1,3.99-2.1,10.248
		c0,6.259,0.21,8.316,2.1,10.248c1.303,1.345,3.193,2.101,5.166,2.101c3.738,0,6.384-2.395,7.184-6.047h3.19
		C303.225,175.826,299.149,179.1,293.815,179.1"/>
	<path clip-path="url(#SVGID_7_)" d="M311.93,169.313c0,4.537,2.145,7.143,6.091,7.143c2.394,0,3.779-0.715,5.419-2.354l2.057,1.807
		c-2.1,2.1-4.031,3.191-7.559,3.191c-5.461,0-9.03-3.274-9.03-10.584c0-6.678,3.233-10.585,8.483-10.585
		c5.334,0,8.484,3.864,8.484,9.996v1.386H311.93z M322.221,163.602c-0.799-1.89-2.646-3.107-4.83-3.107
		c-2.184,0-4.032,1.218-4.829,3.107c-0.463,1.134-0.547,1.765-0.632,3.443h10.921C322.767,165.367,322.682,164.736,322.221,163.602"
		/>
	<path clip-path="url(#SVGID_7_)" d="M344.393,178.848v-12.727c0-3.653-1.975-5.502-5.082-5.502s-5.124,1.891-5.124,5.502v12.727
		h-3.023v-20.665h3.023v2.27c1.471-1.681,3.485-2.521,5.795-2.521c2.227,0,4.033,0.673,5.293,1.934
		c1.47,1.427,2.142,3.359,2.142,5.754v13.229H344.393z"/>
	<path clip-path="url(#SVGID_7_)" d="M359.218,178.848c-3.526,0-5.292-2.479-5.292-5.545V160.62h-2.604v-2.311h2.604v-6.467h3.024
		v6.467h4.41v2.311h-4.41v12.601c0,1.891,0.882,3.024,2.814,3.024h1.596v2.604H359.218z"/>
	<path clip-path="url(#SVGID_7_)" d="M377.654,162.132c-1.134-1.135-1.973-1.513-3.568-1.513c-3.024,0-4.956,2.395-4.956,5.544
		v12.685h-3.024v-20.665h3.024v2.521c1.133-1.722,3.402-2.773,5.796-2.773c1.973,0,3.486,0.464,4.956,1.933L377.654,162.132z"/>
	<path clip-path="url(#SVGID_7_)" d="M384.891,169.313c0,4.537,2.145,7.143,6.091,7.143c2.394,0,3.779-0.715,5.419-2.354
		l2.057,1.807c-2.1,2.1-4.031,3.191-7.559,3.191c-5.461,0-9.03-3.274-9.03-10.584c0-6.678,3.233-10.585,8.483-10.585
		c5.334,0,8.484,3.864,8.484,9.996v1.386H384.891z M395.182,163.602c-0.799-1.89-2.646-3.107-4.83-3.107
		c-2.184,0-4.031,1.218-4.829,3.107c-0.463,1.134-0.547,1.765-0.632,3.443h10.921C395.728,165.367,395.643,164.736,395.182,163.602"
		/>
</g>
</svg>
