<?xml version="1.0" encoding="UTF-8" standalone="no"?>
<svg
   viewBox="0 0 100 27.652783"
   version="1.1"
   id="svg274"
   sodipodi:docname="WHFDB_logo.svg"
   width="100"
   height="27.652782"
   inkscape:version="1.2.1 (9c6d41e410, 2022-07-14)"
   xmlns:inkscape="http://www.inkscape.org/namespaces/inkscape"
   xmlns:sodipodi="http://sodipodi.sourceforge.net/DTD/sodipodi-0.dtd"
   xmlns="http://www.w3.org/2000/svg"
   xmlns:svg="http://www.w3.org/2000/svg">
  <sodipodi:namedview
     id="namedview4188"
     pagecolor="#ffffff"
     bordercolor="#000000"
     borderopacity="0.25"
     inkscape:showpageshadow="2"
     inkscape:pageopacity="0.0"
     inkscape:pagecheckerboard="0"
     inkscape:deskcolor="#d1d1d1"
     showgrid="false"
     inkscape:zoom="2.6622359"
     inkscape:cx="82.449493"
     inkscape:cy="-12.019972"
     inkscape:window-width="1920"
     inkscape:window-height="986"
     inkscape:window-x="-11"
     inkscape:window-y="1069"
     inkscape:window-maximized="1"
     inkscape:current-layer="svg274" />
  <defs
     id="defs4">
    <style
       id="style2">.cls-1,.cls-2{fill:#fff;}.cls-3{fill:#699bd1;}.cls-4,.cls-5{fill:#354b9b;}.cls-6{fill:#3b95d2;}.cls-6,.cls-7{opacity:.66;}.cls-6,.cls-7,.cls-5,.cls-2{fill-rule:evenodd;}.cls-7{fill:#c1e5fb;}</style>
  </defs>
  <g
     id="g205"
     transform="matrix(0.76010946,0,0,0.76010946,-14.86014,-76.421405)">
    <g
       id="g145">
      <path
         class="cls-6"
         d="m 24.11,101.21 c -0.61,0.66 -1.17,1.3 -1.75,1.99 0.25,0.4 0.5,0.75 0.77,1.13 0.63,-0.73 1.26,-1.42 1.92,-2.13 -0.32,-0.33 -0.63,-0.66 -0.94,-1 v 0 z m 32.9,23.3 c -0.5,0.72 -0.98,1.4 -1.51,2.1 0.26,0.39 0.48,0.74 0.71,1.14 0.46,-0.67 0.88,-1.31 1.31,-2.01 -0.16,-0.45 -0.31,-0.81 -0.51,-1.23 z m 0.58,2.3 c -0.32,0.55 -0.7,1.1 -1.06,1.59 0.03,0.08 0.06,0.18 0.08,0.28 0.36,-0.58 0.69,-1.18 0.97,-1.78 0,-0.03 0,-0.06 0,-0.09 v 0 z m -1.78,2.55 c -0.48,0.62 -1.09,1.28 -1.61,1.84 0.08,0.09 0.17,0.2 0.25,0.29 0.52,-0.56 1.01,-1.14 1.44,-1.73 v 0 c 0,-0.14 -0.04,-0.27 -0.08,-0.4 z m -2.16,2.93 c -0.1,-0.08 -0.2,-0.16 -0.29,-0.25 -0.56,0.53 -1.22,1.14 -1.84,1.62 0.12,0.05 0.25,0.09 0.36,0.09 h 0.01 c 0.62,-0.45 1.2,-0.93 1.76,-1.45 v 0 z m 4.95,-10.61 c -0.3,0.62 -0.6,1.2 -0.94,1.82 0.18,0.42 0.31,0.76 0.43,1.15 0.27,-0.59 0.49,-1.13 0.72,-1.77 -0.06,-0.48 -0.11,-0.8 -0.22,-1.2 v 0 z m -0.09,-5.28 c -0.19,0.5 -0.38,0.96 -0.62,1.47 0.29,0.58 0.54,1.11 0.79,1.68 0.16,-0.5 0.28,-0.93 0.4,-1.49 -0.18,-0.61 -0.35,-1.11 -0.57,-1.67 v 0 z m -18.48,19.33 c -0.51,0.24 -0.97,0.43 -1.47,0.62 0.56,0.22 1.06,0.39 1.67,0.57 0.56,-0.12 0.99,-0.24 1.49,-0.4 -0.58,-0.25 -1.1,-0.5 -1.68,-0.79 v 0 z m 16.48,-24.25 c 0.15,-0.36 0.28,-0.72 0.38,-1.11 -0.39,-0.68 -0.83,-1.33 -1.31,-1.95 -0.18,0.36 -0.43,0.72 -0.66,1.04 0.55,0.66 1.07,1.33 1.58,2.02 v 0 z m 0.68,0.99 c 0.38,0.6 0.72,1.2 1.06,1.83 0.03,-0.31 0.04,-0.62 0.03,-0.9 -0.23,-0.65 -0.49,-1.28 -0.79,-1.9 -0.07,0.33 -0.17,0.65 -0.3,0.96 v 0 z m -3.09,-3.93 c 0.27,-0.33 0.52,-0.64 0.74,-1.01 -0.25,-0.29 -0.52,-0.57 -0.79,-0.84 -0.27,-0.27 -0.55,-0.54 -0.84,-0.79 -0.37,0.22 -0.68,0.47 -1.01,0.74 0.32,0.31 0.65,0.62 0.97,0.94 0.32,0.32 0.63,0.64 0.94,0.97 v 0 z m -7.3,27.39 c -0.39,-0.13 -0.74,-0.26 -1.15,-0.43 -0.62,0.34 -1.2,0.64 -1.82,0.94 0.4,0.1 0.72,0.16 1.2,0.22 0.64,-0.23 1.18,-0.46 1.77,-0.72 v 0 z m -17.12,-3.24 c 0.37,-0.22 0.68,-0.47 1.01,-0.74 -0.32,-0.31 -0.65,-0.62 -0.97,-0.94 -0.32,-0.32 -0.63,-0.64 -0.94,-0.97 -0.27,0.33 -0.52,0.64 -0.74,1.01 0.25,0.29 0.52,0.57 0.79,0.84 0.27,0.27 0.55,0.54 0.84,0.79 v 0 z m 1.64,-1.27 c 0.46,-0.4 0.92,-0.81 1.37,-1.22 -0.36,-0.35 -0.73,-0.71 -1.09,-1.06 -0.36,-0.36 -0.71,-0.72 -1.06,-1.09 -0.41,0.45 -0.82,0.91 -1.22,1.37 0.33,0.34 0.65,0.68 0.99,1.02 0.33,0.33 0.68,0.66 1.02,0.99 v 0 z m -0.05,-4.18 c 0.36,0.38 0.73,0.75 1.1,1.12 0.37,0.37 0.75,0.74 1.12,1.1 0.64,-0.6 1.28,-1.2 1.92,-1.81 -0.39,-0.39 -0.79,-0.77 -1.18,-1.16 -0.39,-0.39 -0.77,-0.78 -1.16,-1.18 -0.6,0.64 -1.21,1.28 -1.81,1.92 v 0 z m 4.93,-5.16 -2.23,2.3 c 0.39,0.4 0.79,0.8 1.19,1.2 0.4,0.4 0.8,0.79 1.2,1.19 l 2.3,-2.23 c -0.41,-0.41 -0.82,-0.81 -1.23,-1.22 -0.41,-0.41 -0.82,-0.82 -1.22,-1.23 v 0 z m 5.97,-1.01 c -0.42,-0.42 -0.84,-0.83 -1.25,-1.25 -0.42,-0.42 -0.84,-0.84 -1.25,-1.25 -0.82,0.83 -1.64,1.66 -2.46,2.49 0.41,0.41 0.82,0.83 1.24,1.24 0.41,0.41 0.83,0.82 1.24,1.24 0.83,-0.82 1.66,-1.64 2.49,-2.46 v 0 z m 7.63,-7.8 c 0.6,-0.64 1.21,-1.28 1.81,-1.92 -0.36,-0.38 -0.73,-0.75 -1.1,-1.12 -0.37,-0.37 -0.75,-0.73 -1.12,-1.1 -0.64,0.6 -1.28,1.2 -1.92,1.81 0.39,0.39 0.79,0.77 1.18,1.16 0.39,0.39 0.77,0.78 1.16,1.18 v 0 z m 3.76,-4.1 c -0.33,-0.34 -0.65,-0.68 -0.99,-1.02 -0.33,-0.33 -0.68,-0.66 -1.02,-0.99 -0.46,0.4 -0.92,0.81 -1.37,1.22 0.36,0.35 0.73,0.71 1.09,1.06 0.36,0.36 0.71,0.72 1.06,1.09 0.41,-0.45 0.82,-0.91 1.22,-1.37 v 0 z m 2.54,3.08 c -0.56,-0.74 -1.11,-1.43 -1.7,-2.14 -0.38,0.47 -0.77,0.94 -1.17,1.41 0.65,0.75 1.26,1.48 1.88,2.25 0.34,-0.5 0.66,-1 0.98,-1.51 v 0 z m -3.59,0.08 c -0.58,0.66 -1.16,1.3 -1.76,1.95 0.72,0.79 1.42,1.57 2.11,2.38 0.54,-0.67 1.07,-1.34 1.6,-2.02 -0.65,-0.78 -1.29,-1.54 -1.96,-2.31 v 0 z m -6.9,12.16 c -0.8,-0.8 -1.61,-1.6 -2.41,-2.39 -0.83,0.82 -1.66,1.63 -2.49,2.45 0.81,0.78 1.62,1.55 2.44,2.32 0.83,-0.79 1.64,-1.57 2.46,-2.37 v 0 z m -3.49,3.33 c -0.81,-0.76 -1.62,-1.52 -2.43,-2.29 -0.77,0.74 -1.54,1.47 -2.31,2.2 0.8,0.73 1.59,1.45 2.4,2.17 0.79,-0.69 1.56,-1.38 2.34,-2.08 z m -3.32,2.9 c -0.8,-0.7 -1.59,-1.4 -2.38,-2.11 -0.65,0.6 -1.29,1.18 -1.95,1.76 0.76,0.67 1.52,1.31 2.31,1.96 0.68,-0.53 1.35,-1.06 2.02,-1.6 v 0 z m -5.14,0.36 c -0.47,0.39 -0.93,0.78 -1.41,1.17 0.71,0.59 1.41,1.14 2.14,1.7 0.52,-0.32 1.01,-0.65 1.51,-0.98 -0.77,-0.62 -1.5,-1.24 -2.25,-1.88 v 0 z m 0.96,3.95 c -0.31,0.13 -0.63,0.23 -0.96,0.3 0.62,0.3 1.24,0.56 1.88,0.79 0.29,0 0.61,0 0.92,-0.03 -0.63,-0.33 -1.23,-0.68 -1.83,-1.06 v 0 z m -3.01,-2.27 c -0.32,0.23 -0.68,0.48 -1.04,0.66 0.62,0.48 1.27,0.92 1.95,1.31 0.39,-0.1 0.75,-0.23 1.11,-0.38 -0.69,-0.51 -1.36,-1.03 -2.02,-1.58 v 0 z m 3.79,1.88 c 0.68,0.43 1.33,0.81 2.04,1.2 0.55,-0.23 1.04,-0.45 1.57,-0.71 -0.72,-0.46 -1.39,-0.91 -2.1,-1.41 -0.51,0.33 -0.99,0.62 -1.51,0.91 v 0 z m 4.56,-0.04 c 0.7,-0.44 1.36,-0.88 2.03,-1.35 -0.74,-0.56 -1.46,-1.12 -2.18,-1.69 -0.67,0.53 -1.33,1.03 -2.01,1.54 0.72,0.52 1.42,1.01 2.16,1.5 z m 5.35,-3.96 c -0.74,-0.63 -1.46,-1.26 -2.19,-1.91 -0.77,0.69 -1.54,1.36 -2.33,2.03 0.73,0.6 1.46,1.18 2.2,1.75 0.79,-0.62 1.55,-1.23 2.31,-1.87 v 0 z m 3.38,-3.11 c -0.71,-0.69 -1.41,-1.38 -2.11,-2.08 -0.81,0.79 -1.62,1.56 -2.44,2.33 0.72,0.66 1.45,1.31 2.18,1.96 0.8,-0.73 1.58,-1.47 2.37,-2.22 v 0 z m 0.99,-0.99 c 0.75,-0.78 1.48,-1.57 2.22,-2.37 -0.65,-0.73 -1.3,-1.46 -1.96,-2.18 -0.77,0.82 -1.55,1.63 -2.33,2.44 0.7,0.7 1.39,1.4 2.08,2.11 v 0 z m 3.22,-7.9 c -0.67,0.79 -1.34,1.56 -2.03,2.33 0.65,0.72 1.28,1.45 1.91,2.19 0.64,-0.77 1.25,-1.53 1.87,-2.31 -0.58,-0.75 -1.16,-1.47 -1.75,-2.2 v 0 z m 3.84,-0.83 c -0.49,-0.74 -0.98,-1.44 -1.5,-2.16 -0.51,0.68 -1.01,1.34 -1.54,2.01 0.57,0.73 1.13,1.45 1.69,2.18 0.47,-0.68 0.91,-1.33 1.35,-2.03 z m 1.24,-2.52 c -0.39,-0.71 -0.78,-1.36 -1.2,-2.04 -0.29,0.52 -0.58,1 -0.91,1.51 0.49,0.7 0.95,1.38 1.41,2.1 0.26,-0.53 0.48,-1.02 0.71,-1.57 v 0 z m 0.25,5.34 c -0.29,-0.64 -0.57,-1.2 -0.89,-1.81 -0.41,0.68 -0.83,1.32 -1.27,1.99 0.39,0.6 0.75,1.18 1.11,1.78 0.38,-0.66 0.71,-1.27 1.06,-1.97 v 0 z m -2.89,1.19 c -0.59,0.77 -1.19,1.51 -1.8,2.26 0.47,0.58 0.92,1.16 1.37,1.75 0.56,-0.73 1.08,-1.45 1.61,-2.2 -0.39,-0.63 -0.77,-1.21 -1.18,-1.81 z m -1.24,5 c -0.47,-0.58 -0.95,-1.15 -1.43,-1.73 -0.71,0.79 -1.42,1.55 -2.16,2.32 0.53,0.54 1.05,1.08 1.58,1.62 0.69,-0.73 1.34,-1.46 2.01,-2.21 z m -5.15,5.15 c 0.76,-0.66 1.48,-1.32 2.21,-2 -0.54,-0.53 -1.08,-1.06 -1.62,-1.58 -0.77,0.73 -1.53,1.44 -2.32,2.16 0.57,0.48 1.14,0.96 1.73,1.43 v 0 z m -0.99,0.81 c -0.59,-0.45 -1.17,-0.9 -1.75,-1.37 -0.75,0.61 -1.49,1.21 -2.26,1.8 0.61,0.41 1.19,0.79 1.81,1.18 0.75,-0.53 1.47,-1.05 2.2,-1.61 z m -3.23,2.26 c -0.61,-0.36 -1.19,-0.72 -1.79,-1.11 -0.67,0.44 -1.31,0.86 -1.99,1.27 0.61,0.33 1.17,0.6 1.81,0.89 0.69,-0.34 1.31,-0.68 1.97,-1.06 v 0 z m 5.16,-0.99 c -0.39,-0.23 -0.75,-0.45 -1.14,-0.71 -0.7,0.53 -1.38,1.02 -2.1,1.51 0.42,0.19 0.78,0.35 1.23,0.51 0.7,-0.43 1.34,-0.85 2.01,-1.31 z m 2.96,-2.48 c -0.33,-0.31 -0.67,-0.63 -1,-0.94 -0.71,0.66 -1.4,1.29 -2.13,1.92 0.38,0.27 0.73,0.52 1.13,0.77 0.69,-0.58 1.33,-1.14 1.99,-1.75 v 0 z m 2.61,-2.86 c -0.25,-0.4 -0.5,-0.75 -0.77,-1.13 -0.63,0.73 -1.26,1.42 -1.92,2.13 0.32,0.33 0.63,0.66 0.94,1 0.61,-0.66 1.17,-1.3 1.75,-1.99 v 0 z m -4.92,5.65 c -0.5,0.36 -1.05,0.74 -1.6,1.06 0.03,0 0.05,0 0.08,0 0.62,-0.29 1.22,-0.62 1.8,-0.98 -0.1,-0.02 -0.19,-0.05 -0.28,-0.08 z m -11.9,-33.48 c -0.64,0.23 -1.18,0.46 -1.77,0.72 0.4,0.13 0.74,0.26 1.15,0.43 0.62,-0.34 1.2,-0.64 1.82,-0.94 -0.4,-0.1 -0.72,-0.16 -1.2,-0.22 v 0 z m 5.68,1.34 c -0.56,-0.22 -1.06,-0.39 -1.67,-0.57 -0.56,0.12 -0.99,0.24 -1.49,0.4 0.58,0.25 1.1,0.5 1.68,0.79 0.52,-0.24 0.97,-0.43 1.47,-0.62 v 0 z m -22.61,13.95 c -0.3,-0.58 -0.54,-1.11 -0.79,-1.68 -0.16,0.5 -0.28,0.93 -0.4,1.49 0.18,0.61 0.35,1.11 0.57,1.67 0.19,-0.5 0.39,-0.96 0.62,-1.47 v 0 z m 29.55,-10.36 c 0.32,-0.23 0.68,-0.48 1.04,-0.66 -0.62,-0.48 -1.27,-0.92 -1.95,-1.31 -0.39,0.1 -0.75,0.23 -1.11,0.38 0.69,0.51 1.36,1.03 2.02,1.58 v 0 z m -3.01,-2.27 c 0.31,-0.13 0.63,-0.23 0.96,-0.3 -0.62,-0.3 -1.24,-0.56 -1.88,-0.79 -0.29,0 -0.61,0 -0.92,0.03 0.63,0.33 1.23,0.68 1.83,1.06 v 0 z m -27.98,4.85 c -0.27,0.59 -0.49,1.13 -0.72,1.77 0.06,0.48 0.12,0.8 0.22,1.2 0.3,-0.62 0.6,-1.2 0.94,-1.82 -0.17,-0.42 -0.31,-0.76 -0.43,-1.15 v 0 z m 28.93,-0.9 c 0.47,-0.39 0.93,-0.78 1.41,-1.17 -0.71,-0.59 -1.41,-1.14 -2.14,-1.7 -0.52,0.32 -1.01,0.65 -1.51,0.98 0.77,0.62 1.5,1.24 2.25,1.88 v 0 z m -3.13,-1.24 c -0.68,0.53 -1.35,1.06 -2.02,1.6 0.8,0.7 1.59,1.4 2.38,2.11 0.65,-0.6 1.29,-1.18 1.95,-1.76 -0.76,-0.67 -1.52,-1.31 -2.31,-1.96 v 0 z m -2.99,2.43 c -0.79,0.69 -1.56,1.38 -2.34,2.08 0.82,0.76 1.62,1.52 2.43,2.29 0.77,-0.74 1.54,-1.47 2.31,-2.2 -0.8,-0.73 -1.59,-1.45 -2.4,-2.17 z m 6.87,11.29 c 0.7,-0.78 1.39,-1.55 2.08,-2.34 -0.72,-0.81 -1.43,-1.61 -2.17,-2.4 -0.73,0.78 -1.46,1.55 -2.2,2.31 0.77,0.81 1.53,1.61 2.29,2.43 z m -3.27,-1.4 c -0.81,0.83 -1.63,1.66 -2.45,2.49 0.8,0.8 1.6,1.6 2.39,2.41 0.8,-0.82 1.59,-1.63 2.37,-2.46 -0.77,-0.82 -1.54,-1.63 -2.32,-2.44 v 0 z m -3.49,-3.52 c -0.83,0.82 -1.66,1.64 -2.49,2.46 l 2.51,2.51 c 0.82,-0.83 1.64,-1.66 2.46,-2.49 z m 3.32,-3.23 -2.3,2.23 2.45,2.46 2.23,-2.3 -2.39,-2.39 v 0 z m -4.36,2.21 c -0.81,-0.78 -1.62,-1.55 -2.44,-2.32 -0.83,0.79 -1.64,1.57 -2.46,2.37 0.8,0.8 1.61,1.6 2.41,2.4 0.83,-0.82 1.66,-1.63 2.49,-2.45 z M 36.18,120 c 0.81,-0.83 1.63,-1.66 2.45,-2.49 -0.8,-0.8 -1.6,-1.6 -2.4,-2.41 -0.8,0.82 -1.58,1.63 -2.37,2.46 0.77,0.82 1.54,1.63 2.32,2.44 z m -3.75,-1.85 c -0.7,0.78 -1.39,1.55 -2.08,2.34 0.72,0.81 1.43,1.61 2.17,2.4 0.73,-0.78 1.46,-1.55 2.2,-2.31 -0.77,-0.81 -1.53,-1.61 -2.29,-2.43 z M 30,121.92 c -0.54,0.67 -1.07,1.34 -1.6,2.02 0.65,0.78 1.29,1.54 1.96,2.31 0.58,-0.66 1.16,-1.3 1.76,-1.95 -0.72,-0.79 -1.42,-1.57 -2.11,-2.38 v 0 z m -0.36,5.14 c -0.65,-0.75 -1.26,-1.48 -1.88,-2.25 -0.34,0.5 -0.66,1 -0.98,1.51 0.56,0.74 1.11,1.43 1.7,2.14 0.39,-0.47 0.77,-0.94 1.17,-1.41 v 0 z m -4.58,-0.62 c -0.38,-0.6 -0.72,-1.21 -1.06,-1.83 -0.03,0.31 -0.04,0.62 -0.04,0.9 0.23,0.65 0.49,1.28 0.79,1.9 0.07,-0.33 0.17,-0.66 0.3,-0.96 v 0 z m 0.93,1.76 c 0.39,0.68 0.83,1.33 1.31,1.95 0.18,-0.36 0.43,-0.72 0.66,-1.04 -0.55,-0.66 -1.07,-1.33 -1.58,-2.02 -0.15,0.36 -0.28,0.72 -0.38,1.11 v 0 z m 1.36,-6.01 c -0.49,-0.7 -0.95,-1.38 -1.41,-2.1 -0.26,0.53 -0.48,1.02 -0.71,1.57 0.39,0.71 0.78,1.36 1.2,2.04 0.29,-0.52 0.58,-1 0.91,-1.51 v 0 z m 1.48,-6.51 c -0.64,0.77 -1.25,1.53 -1.87,2.31 0.58,0.75 1.16,1.47 1.75,2.2 0.67,-0.79 1.34,-1.56 2.03,-2.33 -0.65,-0.72 -1.28,-1.45 -1.91,-2.19 v 0 z m 3.86,-4.07 c -0.75,0.78 -1.48,1.57 -2.22,2.37 0.65,0.73 1.3,1.46 1.96,2.18 0.77,-0.82 1.55,-1.63 2.33,-2.44 -0.7,-0.7 -1.39,-1.4 -2.08,-2.11 v 0 z m 5.2,-1.87 c -0.72,-0.66 -1.45,-1.31 -2.18,-1.96 -0.8,0.73 -1.58,1.47 -2.37,2.22 0.71,0.69 1.41,1.38 2.11,2.08 0.81,-0.79 1.62,-1.56 2.44,-2.33 v 0 z m 4.18,-1.93 c -0.73,-0.6 -1.46,-1.18 -2.2,-1.75 -0.79,0.62 -1.55,1.23 -2.31,1.87 0.74,0.63 1.46,1.26 2.19,1.91 0.77,-0.69 1.54,-1.36 2.33,-2.03 v 0 z m 0.84,-3.84 c -0.7,0.44 -1.36,0.88 -2.03,1.35 0.74,0.56 1.46,1.12 2.19,1.69 0.67,-0.53 1.33,-1.03 2.01,-1.54 -0.72,-0.52 -1.42,-1.01 -2.16,-1.5 v 0 z m 2.52,-1.24 c -0.55,0.23 -1.04,0.45 -1.57,0.71 0.72,0.46 1.39,0.91 2.1,1.41 0.51,-0.33 0.99,-0.62 1.51,-0.91 -0.68,-0.43 -1.33,-0.81 -2.04,-1.2 v 0 z m -5.52,1.91 c 0.67,-0.44 1.31,-0.86 1.99,-1.27 -0.61,-0.33 -1.17,-0.6 -1.81,-0.89 -0.69,0.34 -1.31,0.68 -1.97,1.06 0.61,0.36 1.19,0.72 1.78,1.11 v 0 z m -4.62,-1.32 c -0.75,0.53 -1.47,1.05 -2.2,1.61 0.59,0.45 1.17,0.9 1.75,1.37 0.75,-0.61 1.5,-1.21 2.26,-1.8 -0.6,-0.41 -1.18,-0.79 -1.81,-1.18 z m -3.92,3.09 c -0.76,0.66 -1.48,1.32 -2.21,2.01 0.54,0.53 1.08,1.06 1.62,1.58 0.77,-0.73 1.53,-1.44 2.32,-2.16 -0.57,-0.48 -1.14,-0.96 -1.73,-1.43 z m -4.4,-2.24 c 0.47,0.58 0.95,1.15 1.43,1.73 0.71,-0.79 1.42,-1.55 2.16,-2.32 -0.53,-0.54 -1.05,-1.08 -1.58,-1.62 -0.69,0.73 -1.34,1.46 -2.01,2.21 z m 0.49,6.7 c -0.56,0.73 -1.08,1.45 -1.61,2.2 0.39,0.63 0.77,1.21 1.18,1.81 0.59,-0.76 1.19,-1.51 1.8,-2.26 -0.47,-0.58 -0.92,-1.16 -1.37,-1.75 z m -2.14,5.24 c -0.39,-0.6 -0.75,-1.18 -1.11,-1.78 -0.38,0.66 -0.71,1.27 -1.06,1.97 0.29,0.64 0.57,1.2 0.89,1.81 0.41,-0.68 0.83,-1.32 1.27,-1.99 v 0 z m -0.55,-8.51 c -0.46,0.67 -0.88,1.31 -1.31,2.01 0.16,0.45 0.31,0.81 0.51,1.23 0.5,-0.72 0.98,-1.4 1.51,-2.1 C 25.22,108.35 25,108 24.77,107.6 Z"
         id="path141" />
      <path
         class="cls-5"
         d="m 57.18,124.18 c -0.5,0.72 -0.98,1.4 -1.51,2.1 0.26,0.39 0.48,0.74 0.71,1.14 0.46,-0.67 0.88,-1.31 1.31,-2.01 -0.16,-0.45 -0.31,-0.81 -0.51,-1.23 z m 0.58,2.3 c -0.32,0.55 -0.7,1.1 -1.06,1.59 0.03,0.08 0.06,0.18 0.08,0.28 0.36,-0.58 0.69,-1.18 0.97,-1.78 0,-0.03 0,-0.06 0,-0.09 v 0 z m -1.78,2.55 c -0.48,0.62 -1.09,1.28 -1.61,1.84 0.08,0.09 0.17,0.2 0.25,0.29 0.52,-0.56 1.01,-1.14 1.44,-1.73 v 0 c 0,-0.14 -0.04,-0.27 -0.08,-0.4 z m -2.16,2.93 c -0.1,-0.08 -0.2,-0.16 -0.29,-0.25 -0.56,0.53 -1.22,1.14 -1.84,1.62 0.12,0.05 0.25,0.09 0.36,0.09 h 0.01 c 0.62,-0.45 1.2,-0.93 1.76,-1.45 v 0 z m 4.95,-10.61 c -0.3,0.62 -0.6,1.2 -0.94,1.82 0.18,0.42 0.31,0.76 0.43,1.15 0.27,-0.59 0.49,-1.13 0.72,-1.77 -0.06,-0.48 -0.11,-0.8 -0.22,-1.2 v 0 z m -0.09,-5.28 c -0.19,0.5 -0.38,0.96 -0.62,1.47 0.29,0.58 0.54,1.11 0.79,1.68 0.16,-0.5 0.28,-0.93 0.4,-1.49 -0.18,-0.61 -0.35,-1.11 -0.57,-1.67 v 0 z M 40.2,135.4 c -0.51,0.24 -0.97,0.43 -1.47,0.62 0.56,0.22 1.06,0.39 1.67,0.57 0.56,-0.12 0.99,-0.24 1.49,-0.4 -0.58,-0.25 -1.1,-0.5 -1.68,-0.79 v 0 z m 16.48,-24.25 c 0.15,-0.36 0.28,-0.72 0.38,-1.11 -0.39,-0.68 -0.83,-1.33 -1.31,-1.95 -0.18,0.36 -0.43,0.72 -0.66,1.04 0.55,0.66 1.07,1.33 1.58,2.02 v 0 z m 0.68,0.99 c 0.38,0.6 0.72,1.2 1.06,1.83 0.03,-0.31 0.04,-0.62 0.03,-0.9 -0.23,-0.65 -0.49,-1.28 -0.79,-1.9 -0.07,0.33 -0.17,0.65 -0.3,0.96 v 0 z m -3.09,-3.93 c 0.27,-0.33 0.52,-0.64 0.74,-1.01 -0.25,-0.29 -0.52,-0.57 -0.79,-0.84 -0.27,-0.27 -0.55,-0.54 -0.84,-0.79 -0.37,0.22 -0.68,0.47 -1.01,0.74 0.32,0.31 0.65,0.62 0.97,0.94 0.32,0.32 0.63,0.64 0.94,0.97 v 0 z m -7.3,27.39 c -0.39,-0.13 -0.74,-0.26 -1.15,-0.43 -0.62,0.34 -1.2,0.64 -1.82,0.94 0.4,0.1 0.72,0.16 1.2,0.22 0.64,-0.23 1.18,-0.46 1.77,-0.72 v 0 z m -17.12,-3.24 c 0.37,-0.22 0.68,-0.47 1.01,-0.74 -0.32,-0.31 -0.65,-0.62 -0.97,-0.94 -0.32,-0.32 -0.63,-0.64 -0.94,-0.97 -0.27,0.33 -0.52,0.64 -0.74,1.01 0.25,0.29 0.52,0.57 0.79,0.84 0.27,0.27 0.55,0.54 0.84,0.79 v 0 z m 1.64,-1.27 c 0.46,-0.4 0.92,-0.81 1.37,-1.22 -0.36,-0.35 -0.73,-0.71 -1.09,-1.06 -0.36,-0.36 -0.71,-0.72 -1.06,-1.09 -0.41,0.45 -0.82,0.91 -1.22,1.37 0.33,0.34 0.65,0.68 0.99,1.02 0.33,0.33 0.68,0.66 1.02,0.99 v 0 z m -0.05,-4.18 c 0.36,0.38 0.73,0.75 1.1,1.12 0.37,0.37 0.75,0.74 1.12,1.1 0.64,-0.6 1.28,-1.2 1.92,-1.81 -0.39,-0.39 -0.79,-0.77 -1.18,-1.16 -0.39,-0.39 -0.77,-0.78 -1.16,-1.18 -0.6,0.64 -1.21,1.28 -1.81,1.92 v 0 z m 4.93,-5.16 -2.23,2.3 c 0.39,0.4 0.79,0.8 1.19,1.2 0.4,0.4 0.8,0.79 1.2,1.19 l 2.3,-2.23 c -0.41,-0.41 -0.82,-0.81 -1.23,-1.22 -0.41,-0.41 -0.82,-0.82 -1.22,-1.23 v 0 z m 5.97,-1.01 c -0.42,-0.42 -0.84,-0.83 -1.25,-1.25 -0.42,-0.42 -0.84,-0.84 -1.25,-1.25 -0.82,0.83 -1.64,1.66 -2.46,2.49 0.41,0.41 0.82,0.83 1.24,1.24 0.41,0.41 0.83,0.82 1.24,1.24 0.83,-0.82 1.66,-1.64 2.49,-2.46 v 0 z m 7.63,-7.8 c 0.6,-0.64 1.21,-1.28 1.81,-1.92 -0.36,-0.38 -0.73,-0.75 -1.1,-1.12 -0.37,-0.37 -0.75,-0.73 -1.12,-1.1 -0.64,0.6 -1.28,1.2 -1.92,1.81 0.39,0.39 0.79,0.77 1.18,1.16 0.39,0.39 0.77,0.78 1.16,1.18 v 0 z m 3.76,-4.1 c -0.33,-0.34 -0.65,-0.68 -0.99,-1.02 -0.33,-0.33 -0.68,-0.66 -1.02,-0.99 -0.46,0.4 -0.92,0.81 -1.37,1.22 0.36,0.35 0.73,0.71 1.09,1.06 0.36,0.36 0.71,0.72 1.06,1.09 0.41,-0.45 0.82,-0.91 1.22,-1.37 v 0 z m 2.54,3.08 c -0.56,-0.74 -1.11,-1.43 -1.7,-2.14 -0.38,0.47 -0.77,0.94 -1.17,1.41 0.65,0.75 1.26,1.48 1.88,2.25 0.34,-0.5 0.66,-1 0.98,-1.51 v 0 z M 52.68,112 c -0.58,0.66 -1.16,1.3 -1.76,1.95 0.72,0.79 1.42,1.57 2.11,2.38 0.54,-0.67 1.07,-1.34 1.6,-2.02 -0.65,-0.78 -1.29,-1.54 -1.96,-2.31 v 0 z m -6.9,12.16 c -0.8,-0.8 -1.61,-1.6 -2.41,-2.39 -0.83,0.82 -1.66,1.63 -2.49,2.45 0.81,0.78 1.62,1.55 2.44,2.32 0.83,-0.79 1.64,-1.57 2.46,-2.37 v 0 z m -3.49,3.33 c -0.81,-0.76 -1.62,-1.52 -2.43,-2.29 -0.77,0.74 -1.54,1.47 -2.31,2.2 0.8,0.73 1.59,1.45 2.4,2.17 0.79,-0.69 1.56,-1.38 2.34,-2.08 z m -3.32,2.9 c -0.8,-0.7 -1.59,-1.4 -2.38,-2.11 -0.65,0.6 -1.29,1.18 -1.95,1.76 0.76,0.67 1.52,1.31 2.31,1.96 0.68,-0.53 1.35,-1.06 2.02,-1.6 v 0 z m -5.14,0.36 c -0.47,0.39 -0.93,0.78 -1.41,1.17 0.71,0.59 1.41,1.14 2.14,1.7 0.52,-0.32 1.01,-0.65 1.51,-0.98 -0.77,-0.62 -1.5,-1.24 -2.25,-1.88 v 0 z m 0.96,3.95 c -0.31,0.13 -0.63,0.23 -0.96,0.3 0.62,0.3 1.24,0.56 1.88,0.79 0.29,0 0.61,0 0.92,-0.03 C 36,135.43 35.4,135.08 34.8,134.7 v 0 z m -3.01,-2.27 c -0.32,0.23 -0.68,0.48 -1.04,0.66 0.62,0.48 1.27,0.92 1.95,1.31 0.39,-0.1 0.75,-0.23 1.11,-0.38 -0.69,-0.51 -1.36,-1.03 -2.02,-1.58 v 0 z m 3.79,1.88 c 0.68,0.43 1.33,0.81 2.04,1.2 0.55,-0.23 1.04,-0.45 1.57,-0.71 -0.72,-0.46 -1.39,-0.91 -2.1,-1.41 -0.51,0.33 -0.99,0.62 -1.51,0.91 v 0 z m 4.56,-0.04 c 0.7,-0.44 1.36,-0.88 2.03,-1.35 -0.74,-0.56 -1.46,-1.12 -2.18,-1.69 -0.67,0.53 -1.33,1.03 -2.01,1.54 0.72,0.52 1.42,1.01 2.16,1.5 z m 5.35,-3.96 c -0.74,-0.63 -1.46,-1.26 -2.19,-1.91 -0.77,0.69 -1.54,1.36 -2.33,2.03 0.73,0.6 1.46,1.18 2.2,1.75 0.79,-0.62 1.55,-1.23 2.31,-1.87 v 0 z m 3.38,-3.11 c -0.71,-0.69 -1.41,-1.38 -2.11,-2.08 -0.81,0.79 -1.62,1.56 -2.44,2.33 0.72,0.66 1.45,1.31 2.18,1.96 0.8,-0.73 1.58,-1.47 2.37,-2.22 v 0 z m 0.99,-0.99 c 0.75,-0.78 1.48,-1.57 2.22,-2.37 -0.65,-0.73 -1.3,-1.46 -1.96,-2.18 -0.77,0.82 -1.55,1.63 -2.33,2.44 0.7,0.7 1.39,1.4 2.08,2.11 v 0 z m 3.22,-7.9 c -0.67,0.79 -1.34,1.56 -2.03,2.33 0.65,0.72 1.28,1.45 1.91,2.19 0.64,-0.77 1.25,-1.53 1.87,-2.31 -0.58,-0.75 -1.16,-1.47 -1.75,-2.2 v 0 z m 3.84,-0.83 c -0.49,-0.74 -0.98,-1.44 -1.5,-2.16 -0.51,0.68 -1.01,1.34 -1.54,2.01 0.57,0.73 1.13,1.45 1.69,2.18 0.47,-0.68 0.91,-1.33 1.35,-2.03 z m 1.24,-2.52 c -0.39,-0.71 -0.78,-1.36 -1.2,-2.04 -0.29,0.52 -0.58,1 -0.91,1.51 0.49,0.7 0.95,1.38 1.41,2.1 0.26,-0.53 0.48,-1.02 0.71,-1.57 v 0 z m 0.25,5.34 c -0.29,-0.64 -0.57,-1.2 -0.89,-1.81 -0.41,0.68 -0.83,1.32 -1.27,1.99 0.39,0.6 0.75,1.18 1.11,1.78 0.38,-0.66 0.71,-1.27 1.06,-1.97 v 0 z m -2.89,1.19 c -0.59,0.77 -1.19,1.51 -1.8,2.26 0.47,0.58 0.92,1.16 1.37,1.75 0.56,-0.73 1.08,-1.45 1.61,-2.2 -0.39,-0.63 -0.77,-1.21 -1.18,-1.81 z m -1.24,5 c -0.47,-0.58 -0.95,-1.15 -1.43,-1.73 -0.71,0.79 -1.42,1.55 -2.16,2.32 0.53,0.54 1.05,1.08 1.58,1.62 0.69,-0.73 1.34,-1.46 2.01,-2.21 z m -5.15,5.15 c 0.76,-0.66 1.48,-1.32 2.21,-2 -0.54,-0.53 -1.08,-1.06 -1.62,-1.58 -0.77,0.73 -1.53,1.44 -2.32,2.16 0.57,0.48 1.14,0.96 1.73,1.43 v 0 z m -0.99,0.81 c -0.59,-0.45 -1.17,-0.9 -1.75,-1.37 -0.75,0.61 -1.49,1.21 -2.26,1.8 0.61,0.41 1.19,0.79 1.81,1.18 0.75,-0.53 1.47,-1.05 2.2,-1.61 z m -3.23,2.26 c -0.61,-0.36 -1.19,-0.72 -1.79,-1.11 -0.67,0.44 -1.31,0.86 -1.99,1.27 0.61,0.33 1.17,0.6 1.81,0.89 0.69,-0.34 1.31,-0.68 1.97,-1.06 v 0 z m 5.16,-0.99 c -0.39,-0.23 -0.75,-0.45 -1.14,-0.71 -0.7,0.53 -1.38,1.02 -2.1,1.51 0.42,0.19 0.78,0.35 1.23,0.51 0.7,-0.43 1.34,-0.85 2.01,-1.31 z m 2.96,-2.48 c -0.33,-0.31 -0.67,-0.63 -1,-0.94 -0.71,0.66 -1.4,1.29 -2.13,1.92 0.38,0.27 0.73,0.52 1.13,0.77 0.69,-0.58 1.33,-1.14 1.99,-1.75 v 0 z m 2.61,-2.86 c -0.25,-0.4 -0.5,-0.75 -0.77,-1.13 -0.63,0.73 -1.26,1.42 -1.92,2.13 0.32,0.33 0.63,0.66 0.94,1 0.61,-0.66 1.17,-1.3 1.75,-1.99 v 0 z m -4.92,5.65 c -0.5,0.36 -1.05,0.74 -1.6,1.06 0.03,0 0.05,0 0.08,0 0.62,-0.29 1.22,-0.62 1.8,-0.98 -0.1,-0.02 -0.19,-0.05 -0.28,-0.08 z m -11.9,-33.48 c -0.64,0.23 -1.18,0.46 -1.77,0.72 0.4,0.13 0.74,0.26 1.15,0.43 0.62,-0.34 1.2,-0.64 1.82,-0.94 -0.4,-0.1 -0.72,-0.16 -1.2,-0.22 v 0 z m 5.68,1.34 c -0.56,-0.22 -1.06,-0.39 -1.67,-0.57 -0.56,0.12 -0.99,0.24 -1.49,0.4 0.58,0.25 1.1,0.5 1.68,0.79 0.52,-0.24 0.97,-0.43 1.47,-0.62 v 0 z m -22.61,13.95 c -0.3,-0.58 -0.54,-1.11 -0.79,-1.68 -0.16,0.5 -0.28,0.93 -0.4,1.49 0.18,0.61 0.35,1.11 0.57,1.67 0.19,-0.5 0.39,-0.96 0.62,-1.47 v 0 z m 29.55,-10.36 c 0.32,-0.23 0.68,-0.48 1.04,-0.66 -0.62,-0.48 -1.27,-0.92 -1.95,-1.31 -0.39,0.1 -0.75,0.23 -1.11,0.38 0.69,0.51 1.36,1.03 2.02,1.58 v 0 z m -3.01,-2.27 c 0.31,-0.13 0.63,-0.23 0.96,-0.3 -0.62,-0.3 -1.24,-0.56 -1.88,-0.79 -0.29,0 -0.61,0 -0.92,0.03 0.63,0.33 1.23,0.68 1.83,1.06 v 0 z m -27.98,4.85 c -0.27,0.59 -0.49,1.13 -0.72,1.77 0.06,0.48 0.12,0.8 0.22,1.2 0.3,-0.62 0.6,-1.2 0.94,-1.82 -0.17,-0.42 -0.31,-0.76 -0.43,-1.15 v 0 z m 28.93,-0.9 c 0.47,-0.39 0.93,-0.78 1.41,-1.17 -0.71,-0.59 -1.41,-1.14 -2.14,-1.7 -0.52,0.32 -1.01,0.65 -1.51,0.98 0.77,0.62 1.5,1.24 2.25,1.88 v 0 z m -3.13,-1.24 c -0.68,0.53 -1.35,1.06 -2.02,1.6 0.8,0.7 1.59,1.4 2.38,2.11 0.65,-0.6 1.29,-1.18 1.95,-1.76 -0.76,-0.67 -1.52,-1.31 -2.31,-1.96 v 0 z m -2.99,2.43 c -0.79,0.69 -1.56,1.38 -2.34,2.08 0.82,0.76 1.62,1.52 2.43,2.29 0.77,-0.74 1.54,-1.47 2.31,-2.2 -0.8,-0.73 -1.59,-1.45 -2.4,-2.17 z m 6.87,11.29 c 0.7,-0.78 1.39,-1.55 2.08,-2.34 -0.72,-0.81 -1.43,-1.61 -2.17,-2.4 -0.73,0.78 -1.46,1.55 -2.2,2.31 0.77,0.81 1.53,1.61 2.29,2.43 z m -3.27,-1.4 c -0.81,0.83 -1.63,1.66 -2.45,2.49 0.8,0.8 1.6,1.6 2.39,2.41 0.8,-0.82 1.59,-1.63 2.37,-2.46 -0.77,-0.82 -1.54,-1.63 -2.32,-2.44 v 0 z m -3.49,-3.52 c -0.83,0.82 -1.66,1.64 -2.49,2.46 l 2.51,2.51 c 0.82,-0.83 1.64,-1.66 2.46,-2.49 z m 3.32,-3.23 -2.3,2.23 2.45,2.46 2.23,-2.3 -2.39,-2.39 v 0 z m -4.36,2.21 c -0.81,-0.78 -1.62,-1.55 -2.44,-2.32 -0.83,0.79 -1.64,1.57 -2.46,2.37 0.8,0.8 1.61,1.6 2.41,2.4 0.83,-0.82 1.66,-1.63 2.49,-2.45 z m -9.72,4.12 c -0.7,0.78 -1.39,1.55 -2.08,2.34 0.72,0.81 1.43,1.61 2.17,2.4 0.73,-0.78 1.46,-1.55 2.2,-2.31 -0.77,-0.81 -1.53,-1.61 -2.29,-2.43 z m -2.79,8.91 c -0.65,-0.75 -1.26,-1.48 -1.88,-2.25 -0.34,0.5 -0.66,1 -0.98,1.51 0.56,0.74 1.11,1.43 1.7,2.14 0.39,-0.47 0.77,-0.94 1.17,-1.41 v 0 z m -4.58,-0.62 c -0.38,-0.6 -0.72,-1.21 -1.06,-1.83 -0.03,0.31 -0.04,0.62 -0.04,0.9 0.23,0.65 0.49,1.28 0.79,1.9 0.07,-0.33 0.17,-0.66 0.3,-0.96 v 0 z m 0.93,1.76 c 0.39,0.68 0.83,1.33 1.31,1.95 0.18,-0.36 0.43,-0.72 0.66,-1.04 -0.55,-0.66 -1.07,-1.33 -1.58,-2.02 -0.15,0.36 -0.28,0.72 -0.38,1.11 v 0 z m 1.36,-6.01 c -0.49,-0.7 -0.95,-1.38 -1.41,-2.1 -0.26,0.53 -0.48,1.02 -0.71,1.57 0.39,0.71 0.78,1.36 1.2,2.04 0.29,-0.52 0.58,-1 0.91,-1.51 v 0 z M 29,115.35 c -0.64,0.77 -1.25,1.53 -1.87,2.31 0.58,0.75 1.16,1.47 1.75,2.2 0.67,-0.79 1.34,-1.56 2.03,-2.33 -0.65,-0.72 -1.28,-1.45 -1.91,-2.19 v 0 z m 3.86,-4.07 c -0.75,0.78 -1.48,1.57 -2.22,2.37 0.65,0.73 1.3,1.46 1.96,2.18 0.77,-0.82 1.55,-1.63 2.33,-2.44 -0.7,-0.7 -1.39,-1.4 -2.08,-2.11 v 0 z m 5.2,-1.87 c -0.72,-0.66 -1.45,-1.31 -2.18,-1.96 -0.8,0.73 -1.58,1.47 -2.37,2.22 0.71,0.69 1.41,1.38 2.11,2.08 0.81,-0.79 1.62,-1.56 2.44,-2.33 v 0 z m 5.01,-5.77 c -0.7,0.44 -1.36,0.88 -2.03,1.35 0.74,0.56 1.46,1.12 2.19,1.69 0.67,-0.53 1.33,-1.03 2.01,-1.54 -0.72,-0.52 -1.42,-1.01 -2.16,-1.5 v 0 z m 2.52,-1.24 c -0.55,0.23 -1.04,0.45 -1.57,0.71 0.72,0.46 1.39,0.91 2.1,1.41 0.51,-0.33 0.99,-0.62 1.51,-0.91 -0.68,-0.43 -1.33,-0.81 -2.04,-1.2 v 0 z m -5.52,1.91 c 0.67,-0.44 1.31,-0.86 1.99,-1.27 -0.61,-0.33 -1.17,-0.6 -1.81,-0.89 -0.69,0.34 -1.31,0.68 -1.97,1.06 0.61,0.36 1.19,0.72 1.78,1.11 v 0 z m -8.54,1.77 c -0.76,0.66 -1.48,1.32 -2.21,2.01 0.54,0.53 1.08,1.06 1.62,1.58 0.77,-0.73 1.53,-1.44 2.32,-2.16 -0.57,-0.48 -1.14,-0.96 -1.73,-1.43 z m -4.4,-2.24 c 0.47,0.58 0.95,1.15 1.43,1.73 0.71,-0.79 1.42,-1.55 2.16,-2.32 -0.53,-0.54 -1.05,-1.08 -1.58,-1.62 -0.69,0.73 -1.34,1.46 -2.01,2.21 z m -1.66,11.94 c -0.39,-0.6 -0.75,-1.18 -1.11,-1.78 -0.38,0.66 -0.71,1.27 -1.06,1.97 0.29,0.64 0.57,1.2 0.89,1.81 0.41,-0.68 0.83,-1.32 1.27,-1.99 v 0 z m -0.55,-8.51 c -0.46,0.67 -0.88,1.31 -1.31,2.01 0.16,0.45 0.31,0.81 0.51,1.23 0.5,-0.72 0.98,-1.4 1.51,-2.1 -0.26,-0.39 -0.48,-0.74 -0.71,-1.14 z"
         id="path143" />
    </g>
    <g
       id="g203">
      <path
         class="cls-4"
         d="m 75.88,105.05 -1.23,6.47 c -0.03,0.1 -0.08,0.18 -0.16,0.25 -0.08,0.07 -0.18,0.1 -0.3,0.1 h -1.23 c -0.11,0 -0.21,-0.03 -0.3,-0.1 -0.08,-0.07 -0.13,-0.15 -0.15,-0.26 l -0.9,-4.73 c -0.03,-0.14 -0.05,-0.29 -0.07,-0.42 -0.02,-0.14 -0.04,-0.28 -0.06,-0.42 h -0.2 c -0.02,0.14 -0.04,0.28 -0.06,0.42 -0.02,0.14 -0.04,0.28 -0.06,0.42 l -0.89,4.73 c -0.02,0.11 -0.07,0.19 -0.16,0.26 -0.09,0.07 -0.18,0.1 -0.3,0.1 h -1.24 c -0.12,0 -0.22,-0.03 -0.3,-0.1 -0.08,-0.07 -0.13,-0.15 -0.15,-0.25 l -1.23,-6.47 h 1.27 l 0.86,4.99 c 0.02,0.13 0.04,0.28 0.05,0.44 0.01,0.16 0.04,0.32 0.05,0.48 h 0.21 c 0.03,-0.15 0.05,-0.31 0.08,-0.47 0.03,-0.16 0.05,-0.31 0.08,-0.46 l 0.88,-4.6 c 0.01,-0.12 0.06,-0.21 0.15,-0.28 0.09,-0.07 0.18,-0.1 0.3,-0.1 h 1.12 c 0.12,0 0.22,0.03 0.3,0.1 0.08,0.07 0.13,0.16 0.16,0.28 l 0.88,4.61 c 0.03,0.15 0.06,0.31 0.08,0.46 0.02,0.15 0.04,0.31 0.06,0.46 h 0.22 c 0.01,-0.15 0.03,-0.31 0.05,-0.46 0.02,-0.15 0.04,-0.31 0.06,-0.44 l 0.86,-5 h 1.27 z"
         id="path147" />
      <path
         class="cls-4"
         d="m 79.73,104.92 c 0.53,0 0.97,0.06 1.33,0.17 0.36,0.11 0.65,0.31 0.87,0.58 0.22,0.27 0.38,0.63 0.48,1.09 0.1,0.45 0.15,1.02 0.15,1.7 0,0.68 -0.05,1.24 -0.15,1.7 -0.1,0.46 -0.26,0.82 -0.48,1.09 -0.22,0.27 -0.51,0.46 -0.87,0.58 -0.36,0.12 -0.81,0.17 -1.33,0.17 -0.52,0 -0.95,-0.06 -1.31,-0.17 -0.36,-0.11 -0.66,-0.31 -0.88,-0.58 -0.22,-0.27 -0.38,-0.63 -0.48,-1.09 -0.1,-0.46 -0.15,-1.02 -0.15,-1.7 0,-0.68 0.05,-1.25 0.15,-1.7 0.1,-0.45 0.26,-0.82 0.48,-1.09 0.22,-0.27 0.52,-0.46 0.88,-0.58 0.36,-0.12 0.8,-0.17 1.31,-0.17 z m 0,1.01 c -0.39,0 -0.69,0.08 -0.91,0.23 -0.22,0.15 -0.38,0.42 -0.47,0.78 -0.09,0.37 -0.14,0.87 -0.14,1.52 0,0.65 0.05,1.15 0.14,1.52 0.09,0.37 0.25,0.63 0.47,0.78 0.22,0.15 0.53,0.23 0.91,0.23 0.38,0 0.7,-0.08 0.92,-0.23 0.22,-0.15 0.38,-0.42 0.47,-0.78 0.09,-0.37 0.14,-0.87 0.14,-1.52 0,-0.65 -0.05,-1.15 -0.14,-1.52 -0.09,-0.37 -0.25,-0.63 -0.47,-0.78 -0.22,-0.15 -0.53,-0.23 -0.92,-0.23 z"
         id="path149" />
      <path
         class="cls-4"
         d="m 86.6,104.96 c 0.57,0 1.03,0.06 1.38,0.18 0.35,0.12 0.61,0.32 0.77,0.61 0.16,0.29 0.24,0.69 0.24,1.21 0,0.34 -0.04,0.63 -0.12,0.87 -0.08,0.24 -0.22,0.43 -0.41,0.57 -0.19,0.14 -0.44,0.23 -0.76,0.27 v 0.05 c 0.11,0.03 0.23,0.08 0.35,0.15 0.12,0.08 0.23,0.18 0.34,0.32 0.1,0.14 0.18,0.32 0.23,0.53 l 0.62,2.14 h -1.3 l -0.56,-2.11 c -0.07,-0.24 -0.17,-0.4 -0.3,-0.5 -0.13,-0.1 -0.3,-0.14 -0.51,-0.14 -0.43,0 -0.79,0 -1.1,0 -0.3,0 -0.55,0 -0.76,-0.01 -0.2,0 -0.38,-0.01 -0.53,-0.01 l 0.03,-0.94 h 2.35 c 0.3,0 0.53,-0.04 0.7,-0.1 0.17,-0.06 0.29,-0.17 0.37,-0.34 0.07,-0.16 0.11,-0.39 0.11,-0.69 0,-0.3 -0.04,-0.51 -0.11,-0.67 -0.07,-0.16 -0.19,-0.27 -0.37,-0.33 -0.17,-0.06 -0.41,-0.09 -0.7,-0.09 -0.58,0 -1.08,0 -1.49,0.01 -0.42,0 -0.7,0.01 -0.85,0.02 l -0.14,-0.91 c 0.26,-0.03 0.51,-0.05 0.75,-0.06 0.23,-0.01 0.49,-0.02 0.77,-0.02 0.28,0 0.61,0 1,0 z m -1.29,0.09 v 6.82 h -1.22 v -6.82 z"
         id="path151" />
      <path
         class="cls-4"
         d="m 91.81,105.05 v 5.24 c 0,0.19 0.05,0.33 0.15,0.43 0.1,0.1 0.25,0.14 0.44,0.14 h 2.41 l 0.06,0.94 c -0.45,0.04 -0.91,0.06 -1.4,0.07 -0.49,0.01 -0.96,0.01 -1.44,0.01 -0.5,0 -0.87,-0.13 -1.1,-0.39 -0.23,-0.26 -0.35,-0.58 -0.35,-0.98 v -5.48 h 1.23 z"
         id="path153" />
      <path
         class="cls-4"
         d="m 98.61,104.96 c 0.51,0 0.95,0.06 1.31,0.17 0.36,0.11 0.65,0.31 0.87,0.57 0.22,0.26 0.38,0.63 0.48,1.08 0.1,0.45 0.15,1.01 0.15,1.68 0,0.67 -0.05,1.22 -0.15,1.68 -0.1,0.45 -0.26,0.81 -0.48,1.08 -0.22,0.27 -0.51,0.46 -0.87,0.57 -0.36,0.11 -0.8,0.17 -1.31,0.17 -0.51,0 -0.95,0 -1.37,-0.02 -0.42,-0.02 -0.82,-0.04 -1.2,-0.06 l 0.51,-0.95 c 0.26,0.01 0.57,0.02 0.91,0.03 0.34,0.01 0.72,0.02 1.15,0.02 0.38,0 0.68,-0.07 0.9,-0.22 0.22,-0.15 0.38,-0.41 0.47,-0.77 0.09,-0.37 0.14,-0.87 0.14,-1.52 0,-0.65 -0.05,-1.15 -0.14,-1.52 -0.09,-0.37 -0.25,-0.62 -0.47,-0.78 -0.22,-0.15 -0.52,-0.23 -0.9,-0.23 -0.41,0 -0.77,0 -1.09,0 -0.32,0 -0.63,0 -0.93,0 l -0.54,-0.91 c 0.38,-0.03 0.77,-0.05 1.19,-0.06 0.42,-0.02 0.88,-0.02 1.38,-0.02 z m -1.33,0.09 v 6.82 h -1.24 v -6.82 z"
         id="path155" />
      <path
         class="cls-4"
         d="m 107.62,105.05 v 6.82 h -1.24 v -6.82 z m 2.85,2.7 v 0.97 h -2.93 v -0.97 z m 1.13,-2.7 v 6.82 h -1.24 v -6.82 z"
         id="path157" />
      <path
         class="cls-4"
         d="m 114.7,105.03 h 1.05 c 0.36,0 0.71,0 1.06,0.02 0.35,0.02 0.68,0.03 0.99,0.06 l -0.06,0.92 h -2.67 c -0.18,0 -0.32,0.05 -0.41,0.14 -0.09,0.09 -0.13,0.24 -0.13,0.44 v 3.72 c 0,0.2 0.04,0.34 0.13,0.43 0.09,0.09 0.23,0.14 0.41,0.14 h 2.67 l 0.06,0.92 c -0.31,0.03 -0.64,0.04 -0.99,0.05 -0.35,0.01 -0.7,0.02 -1.06,0.02 -0.36,0 -0.71,0 -1.05,0 -0.42,0 -0.76,-0.12 -1.01,-0.35 -0.25,-0.23 -0.38,-0.55 -0.39,-0.94 v -4.27 c 0,-0.4 0.14,-0.71 0.39,-0.94 0.25,-0.23 0.59,-0.35 1.01,-0.35 z m -1.23,2.82 h 3.89 v 0.91 h -3.89 z"
         id="path159" />
      <path
         class="cls-4"
         d="m 122.23,105.05 c 0.11,0 0.2,0.03 0.28,0.09 0.08,0.06 0.13,0.14 0.17,0.24 l 2.07,6.49 h -1.26 l -1.56,-5.26 c -0.03,-0.1 -0.05,-0.21 -0.08,-0.32 -0.03,-0.1 -0.05,-0.21 -0.07,-0.31 h -0.28 c -0.02,0.1 -0.04,0.2 -0.07,0.31 -0.03,0.11 -0.06,0.21 -0.09,0.32 l -1.55,5.26 h -1.26 l 2.07,-6.49 c 0.03,-0.1 0.08,-0.18 0.16,-0.24 0.08,-0.06 0.18,-0.09 0.28,-0.09 h 1.21 z m 1.15,3.9 v 0.97 h -3.51 v -0.97 z"
         id="path161" />
      <path
         class="cls-4"
         d="m 130.11,105.05 v 1.01 h -5.47 v -1.01 z m -2.12,0 v 6.82 h -1.24 v -6.82 z"
         id="path163" />
      <path
         class="cls-4"
         d="m 73.05,115.83 c 0.34,0 0.68,0 1.02,0 0.35,0 0.69,0.01 1.03,0.02 0.34,0 0.65,0.03 0.94,0.06 l -0.06,0.91 h -2.51 c -0.2,0 -0.35,0.05 -0.45,0.14 -0.1,0.09 -0.15,0.24 -0.15,0.44 v 5.27 h -1.24 v -5.52 c 0,-0.42 0.13,-0.74 0.39,-0.97 0.26,-0.23 0.6,-0.35 1.02,-0.35 z m -1.24,2.93 h 3.8 v 0.91 h -3.8 z"
         id="path165" />
      <path
         class="cls-4"
         d="m 78.54,115.85 v 5.24 c 0,0.19 0.05,0.33 0.15,0.43 0.1,0.1 0.25,0.14 0.44,0.14 h 2.41 l 0.06,0.94 c -0.45,0.04 -0.91,0.06 -1.4,0.07 -0.49,0.01 -0.96,0.01 -1.44,0.01 -0.5,0 -0.87,-0.13 -1.1,-0.39 -0.23,-0.26 -0.35,-0.58 -0.35,-0.98 v -5.48 h 1.23 z"
         id="path167" />
      <path
         class="cls-4"
         d="m 85.23,115.72 c 0.53,0 0.97,0.06 1.33,0.17 0.36,0.11 0.65,0.31 0.87,0.58 0.22,0.27 0.38,0.63 0.48,1.09 0.1,0.45 0.15,1.02 0.15,1.7 0,0.68 -0.05,1.24 -0.15,1.7 -0.1,0.46 -0.26,0.82 -0.48,1.09 -0.22,0.27 -0.51,0.46 -0.87,0.58 -0.36,0.12 -0.81,0.17 -1.33,0.17 -0.52,0 -0.95,-0.06 -1.31,-0.17 -0.36,-0.11 -0.66,-0.31 -0.88,-0.58 -0.22,-0.27 -0.38,-0.63 -0.48,-1.09 -0.1,-0.46 -0.15,-1.02 -0.15,-1.7 0,-0.68 0.05,-1.25 0.15,-1.7 0.1,-0.45 0.26,-0.82 0.48,-1.09 0.22,-0.27 0.52,-0.46 0.88,-0.58 0.36,-0.12 0.8,-0.17 1.31,-0.17 z m 0,1.01 c -0.39,0 -0.69,0.08 -0.91,0.23 -0.22,0.15 -0.38,0.42 -0.47,0.78 -0.09,0.37 -0.14,0.87 -0.14,1.52 0,0.65 0.05,1.15 0.14,1.52 0.09,0.37 0.25,0.63 0.47,0.78 0.22,0.15 0.53,0.23 0.91,0.23 0.38,0 0.7,-0.08 0.92,-0.23 0.22,-0.15 0.38,-0.42 0.47,-0.78 0.09,-0.37 0.14,-0.87 0.14,-1.52 0,-0.65 -0.05,-1.15 -0.14,-1.52 -0.09,-0.37 -0.25,-0.63 -0.47,-0.78 -0.22,-0.15 -0.53,-0.23 -0.92,-0.23 z"
         id="path169" />
      <path
         class="cls-4"
         d="m 98.07,115.85 -1.23,6.47 c -0.03,0.1 -0.08,0.18 -0.16,0.25 -0.08,0.07 -0.18,0.1 -0.3,0.1 h -1.23 c -0.11,0 -0.21,-0.03 -0.3,-0.1 -0.08,-0.07 -0.13,-0.15 -0.15,-0.26 l -0.9,-4.73 c -0.03,-0.14 -0.05,-0.29 -0.07,-0.42 -0.02,-0.14 -0.04,-0.28 -0.06,-0.42 h -0.2 c -0.02,0.14 -0.04,0.28 -0.06,0.42 -0.02,0.14 -0.04,0.28 -0.06,0.42 l -0.89,4.73 c -0.02,0.11 -0.07,0.19 -0.16,0.26 -0.09,0.07 -0.18,0.1 -0.3,0.1 h -1.24 c -0.12,0 -0.22,-0.03 -0.3,-0.1 -0.08,-0.07 -0.13,-0.15 -0.15,-0.25 l -1.23,-6.47 h 1.27 l 0.86,4.99 c 0.02,0.13 0.04,0.28 0.05,0.44 0.01,0.16 0.04,0.32 0.05,0.48 h 0.21 c 0.03,-0.15 0.05,-0.31 0.08,-0.47 0.03,-0.16 0.05,-0.31 0.08,-0.46 l 0.88,-4.6 c 0.01,-0.12 0.06,-0.21 0.15,-0.28 0.09,-0.07 0.18,-0.1 0.3,-0.1 h 1.12 c 0.12,0 0.22,0.03 0.3,0.1 0.08,0.07 0.13,0.16 0.16,0.28 l 0.88,4.61 c 0.03,0.15 0.06,0.31 0.08,0.46 0.02,0.15 0.04,0.31 0.06,0.46 h 0.22 c 0.01,-0.15 0.03,-0.31 0.05,-0.46 0.02,-0.15 0.04,-0.31 0.06,-0.44 l 0.86,-5 h 1.27 z"
         id="path171" />
      <path
         class="cls-4"
         d="m 105.35,115.76 c 0.51,0 0.95,0.06 1.31,0.17 0.36,0.11 0.65,0.31 0.87,0.57 0.22,0.26 0.38,0.63 0.48,1.08 0.1,0.45 0.15,1.01 0.15,1.68 0,0.67 -0.05,1.22 -0.15,1.68 -0.1,0.45 -0.26,0.81 -0.48,1.08 -0.22,0.27 -0.51,0.46 -0.87,0.57 -0.36,0.11 -0.8,0.17 -1.31,0.17 -0.51,0 -0.95,0 -1.37,-0.02 -0.42,-0.02 -0.82,-0.04 -1.2,-0.06 l 0.51,-0.95 c 0.26,0.01 0.57,0.02 0.91,0.03 0.34,0.01 0.72,0.02 1.15,0.02 0.38,0 0.68,-0.07 0.9,-0.22 0.22,-0.15 0.38,-0.41 0.47,-0.77 0.09,-0.37 0.14,-0.87 0.14,-1.52 0,-0.65 -0.05,-1.15 -0.14,-1.52 -0.09,-0.37 -0.25,-0.62 -0.47,-0.78 -0.22,-0.15 -0.52,-0.23 -0.9,-0.23 -0.41,0 -0.77,0 -1.09,0 -0.32,0 -0.63,0 -0.93,0 l -0.54,-0.91 c 0.38,-0.03 0.77,-0.05 1.19,-0.06 0.42,-0.02 0.88,-0.02 1.38,-0.02 z m -1.33,0.09 v 6.82 h -1.24 v -6.82 z"
         id="path173" />
      <path
         class="cls-4"
         d="m 112.64,115.85 c 0.11,0 0.2,0.03 0.28,0.09 0.08,0.06 0.13,0.14 0.17,0.24 l 2.07,6.49 h -1.26 l -1.56,-5.26 c -0.03,-0.1 -0.05,-0.21 -0.08,-0.32 -0.03,-0.1 -0.05,-0.21 -0.07,-0.31 h -0.28 c -0.02,0.1 -0.04,0.2 -0.07,0.31 -0.03,0.11 -0.06,0.21 -0.09,0.32 l -1.55,5.26 h -1.26 l 2.07,-6.49 c 0.03,-0.1 0.08,-0.18 0.16,-0.24 0.08,-0.06 0.18,-0.09 0.28,-0.09 h 1.21 z m 1.15,3.9 v 0.97 h -3.51 v -0.97 z"
         id="path175" />
      <path
         class="cls-4"
         d="m 120.52,115.85 v 1.01 h -5.47 v -1.01 z m -2.12,0 v 6.82 h -1.24 v -6.82 z"
         id="path177" />
      <path
         class="cls-4"
         d="m 124.14,115.85 c 0.11,0 0.2,0.03 0.28,0.09 0.08,0.06 0.13,0.14 0.17,0.24 l 2.07,6.49 h -1.26 l -1.56,-5.26 c -0.03,-0.1 -0.05,-0.21 -0.08,-0.32 -0.03,-0.1 -0.05,-0.21 -0.07,-0.31 h -0.28 c -0.02,0.1 -0.04,0.2 -0.07,0.31 -0.03,0.11 -0.06,0.21 -0.09,0.32 l -1.55,5.26 h -1.26 l 2.07,-6.49 c 0.03,-0.1 0.08,-0.18 0.16,-0.24 0.08,-0.06 0.18,-0.09 0.28,-0.09 h 1.21 z m 1.15,3.9 v 0.97 h -3.51 v -0.97 z"
         id="path179" />
      <path
         class="cls-4"
         d="m 130.12,115.77 c 0.58,0 1.04,0.05 1.38,0.15 0.34,0.1 0.59,0.28 0.75,0.54 0.15,0.26 0.23,0.62 0.23,1.09 0,0.47 -0.09,0.86 -0.28,1.12 -0.18,0.26 -0.49,0.41 -0.91,0.44 v 0.04 c 0.52,0.05 0.88,0.22 1.09,0.53 0.21,0.31 0.31,0.74 0.31,1.29 0,0.47 -0.08,0.83 -0.23,1.09 -0.15,0.26 -0.4,0.44 -0.73,0.54 -0.33,0.1 -0.77,0.15 -1.3,0.15 -0.42,0 -0.78,0 -1.09,0 -0.31,0 -0.59,-0.01 -0.85,-0.02 -0.26,-0.01 -0.52,-0.03 -0.8,-0.05 l 0.14,-0.9 c 0.16,0 0.45,0.01 0.88,0.02 0.43,0 0.93,0.01 1.51,0.01 0.31,0 0.55,-0.03 0.73,-0.08 0.18,-0.06 0.3,-0.16 0.38,-0.32 0.08,-0.15 0.11,-0.37 0.11,-0.66 0,-0.32 -0.04,-0.56 -0.12,-0.73 -0.08,-0.17 -0.21,-0.29 -0.39,-0.36 -0.18,-0.07 -0.44,-0.1 -0.77,-0.1 h -2.35 v -0.84 h 2.34 c 0.28,0 0.51,-0.03 0.67,-0.08 0.16,-0.06 0.28,-0.16 0.35,-0.3 0.07,-0.15 0.11,-0.35 0.11,-0.62 0,-0.27 -0.04,-0.48 -0.11,-0.62 -0.08,-0.14 -0.2,-0.24 -0.38,-0.29 -0.18,-0.05 -0.43,-0.07 -0.74,-0.07 h -0.93 c -0.27,0 -0.51,0 -0.72,0 -0.21,0 -0.4,0.01 -0.57,0.02 l -0.14,-0.9 c 0.25,-0.03 0.49,-0.04 0.72,-0.05 0.23,0 0.48,-0.02 0.75,-0.02 0.27,0 0.59,0 0.95,0 z m -1.22,0.08 v 6.82 h -1.21 v -6.82 z"
         id="path181" />
      <path
         class="cls-4"
         d="m 137.18,115.85 c 0.11,0 0.2,0.03 0.28,0.09 0.08,0.06 0.13,0.14 0.17,0.24 l 2.07,6.49 h -1.26 l -1.56,-5.26 c -0.03,-0.1 -0.05,-0.21 -0.08,-0.32 -0.03,-0.1 -0.05,-0.21 -0.07,-0.31 h -0.28 c -0.02,0.1 -0.04,0.2 -0.07,0.31 -0.03,0.11 -0.06,0.21 -0.09,0.32 l -1.55,5.26 h -1.26 l 2.07,-6.49 c 0.03,-0.1 0.08,-0.18 0.16,-0.24 0.08,-0.06 0.18,-0.09 0.28,-0.09 h 1.21 z m 1.15,3.9 v 0.97 h -3.51 v -0.97 z"
         id="path183" />
      <path
         class="cls-4"
         d="m 142.84,115.72 c 0.34,0 0.69,0.03 1.06,0.06 0.37,0.03 0.74,0.1 1.09,0.19 l -0.08,0.84 c -0.28,0 -0.61,-0.01 -0.98,-0.02 -0.37,0 -0.73,-0.02 -1.07,-0.02 -0.21,0 -0.39,0 -0.54,0.02 -0.15,0.02 -0.27,0.05 -0.36,0.1 -0.09,0.05 -0.16,0.13 -0.2,0.24 -0.04,0.11 -0.06,0.26 -0.06,0.45 0,0.3 0.06,0.51 0.18,0.63 0.12,0.13 0.32,0.22 0.6,0.3 l 1.34,0.4 c 0.54,0.17 0.91,0.4 1.12,0.72 0.21,0.32 0.31,0.73 0.31,1.25 0,0.39 -0.05,0.71 -0.14,0.96 -0.09,0.25 -0.23,0.44 -0.42,0.58 -0.19,0.14 -0.44,0.24 -0.75,0.3 -0.31,0.06 -0.68,0.09 -1.12,0.09 -0.22,0 -0.53,-0.01 -0.92,-0.04 -0.39,-0.03 -0.84,-0.09 -1.34,-0.2 l 0.08,-0.89 c 0.39,0.01 0.71,0.02 0.98,0.03 0.27,0.01 0.49,0.02 0.68,0.02 h 0.53 c 0.3,0 0.54,-0.02 0.71,-0.06 0.17,-0.04 0.29,-0.12 0.36,-0.25 0.07,-0.12 0.1,-0.31 0.1,-0.54 0,-0.2 -0.02,-0.36 -0.07,-0.48 -0.05,-0.12 -0.13,-0.21 -0.24,-0.27 -0.11,-0.07 -0.26,-0.12 -0.44,-0.17 l -1.39,-0.43 c -0.51,-0.16 -0.88,-0.39 -1.08,-0.7 -0.21,-0.31 -0.31,-0.72 -0.31,-1.25 0,-0.39 0.05,-0.71 0.14,-0.95 0.09,-0.25 0.23,-0.44 0.42,-0.56 0.19,-0.13 0.44,-0.22 0.74,-0.27 0.3,-0.05 0.66,-0.07 1.08,-0.07 z"
         id="path185" />
      <path
         class="cls-4"
         d="m 148.01,115.83 h 1.05 c 0.36,0 0.71,0 1.06,0.02 0.35,0.02 0.68,0.03 0.99,0.06 l -0.06,0.92 h -2.67 c -0.18,0 -0.32,0.05 -0.41,0.14 -0.09,0.09 -0.13,0.24 -0.13,0.44 v 3.72 c 0,0.2 0.04,0.34 0.13,0.43 0.09,0.09 0.23,0.14 0.41,0.14 h 2.67 l 0.06,0.92 c -0.31,0.03 -0.64,0.04 -0.99,0.05 -0.35,0.01 -0.7,0.02 -1.06,0.02 -0.36,0 -0.71,0 -1.05,0 -0.42,0 -0.76,-0.12 -1.01,-0.35 -0.25,-0.23 -0.38,-0.55 -0.39,-0.94 v -4.27 c 0,-0.4 0.14,-0.71 0.39,-0.94 0.25,-0.23 0.59,-0.35 1.01,-0.35 z m -1.23,2.82 h 3.89 v 0.91 h -3.89 z"
         id="path187" />
      <path
         class="cls-3"
         d="m 70.74,126.56 c 0.6,0 1.07,0.06 1.41,0.19 0.34,0.13 0.59,0.35 0.74,0.66 0.15,0.31 0.22,0.76 0.22,1.33 0,0.57 -0.07,1.02 -0.21,1.33 -0.14,0.32 -0.38,0.54 -0.7,0.66 -0.33,0.12 -0.76,0.19 -1.3,0.19 -0.3,0 -0.58,0 -0.85,-0.03 -0.27,-0.02 -0.53,-0.05 -0.76,-0.08 -0.23,-0.03 -0.43,-0.07 -0.6,-0.1 -0.17,-0.04 -0.28,-0.07 -0.35,-0.09 l 0.03,-0.66 h 2.35 c 0.29,0 0.52,-0.04 0.69,-0.11 0.17,-0.07 0.29,-0.19 0.36,-0.36 0.07,-0.17 0.1,-0.42 0.1,-0.75 0,-0.33 -0.03,-0.57 -0.1,-0.75 -0.07,-0.17 -0.19,-0.3 -0.36,-0.37 -0.17,-0.07 -0.4,-0.1 -0.69,-0.1 -0.58,0 -1.08,0 -1.49,0.01 -0.42,0 -0.7,0.02 -0.85,0.03 l -0.14,-0.92 c 0.26,-0.03 0.51,-0.05 0.75,-0.06 0.23,-0.01 0.49,-0.02 0.76,-0.02 0.27,0 0.6,0 0.99,0 z m -1.26,0.09 v 6.82 h -1.24 v -6.82 z"
         id="path189" />
      <path
         class="cls-3"
         d="m 76.97,126.56 c 0.57,0 1.03,0.06 1.38,0.18 0.35,0.12 0.61,0.32 0.77,0.61 0.16,0.29 0.24,0.69 0.24,1.21 0,0.34 -0.04,0.63 -0.12,0.87 -0.08,0.24 -0.22,0.43 -0.41,0.57 -0.19,0.14 -0.44,0.23 -0.76,0.27 v 0.05 c 0.11,0.03 0.23,0.08 0.35,0.15 0.12,0.08 0.23,0.18 0.34,0.32 0.1,0.14 0.18,0.32 0.23,0.53 l 0.62,2.14 h -1.3 l -0.56,-2.11 c -0.07,-0.24 -0.17,-0.4 -0.3,-0.5 -0.13,-0.1 -0.3,-0.14 -0.51,-0.14 -0.43,0 -0.79,0 -1.1,0 -0.3,0 -0.55,0 -0.76,-0.01 -0.2,0 -0.38,-0.01 -0.53,-0.01 l 0.03,-0.94 h 2.35 c 0.3,0 0.53,-0.04 0.7,-0.1 0.17,-0.06 0.29,-0.17 0.37,-0.34 0.07,-0.16 0.11,-0.39 0.11,-0.69 0,-0.3 -0.04,-0.51 -0.11,-0.67 -0.07,-0.16 -0.19,-0.27 -0.37,-0.33 -0.17,-0.06 -0.41,-0.09 -0.7,-0.09 -0.58,0 -1.08,0 -1.49,0.01 -0.42,0 -0.7,0.01 -0.85,0.02 l -0.14,-0.91 c 0.26,-0.03 0.51,-0.05 0.75,-0.06 0.23,-0.01 0.49,-0.02 0.77,-0.02 0.28,0 0.61,0 1,0 z m -1.29,0.09 v 6.82 h -1.22 v -6.82 z"
         id="path191" />
      <path
         class="cls-3"
         d="m 83.56,126.52 c 0.53,0 0.97,0.06 1.33,0.17 0.36,0.11 0.65,0.31 0.87,0.58 0.22,0.27 0.38,0.63 0.48,1.09 0.1,0.45 0.15,1.02 0.15,1.7 0,0.68 -0.05,1.24 -0.15,1.7 -0.1,0.46 -0.26,0.82 -0.48,1.09 -0.22,0.27 -0.51,0.46 -0.87,0.58 -0.36,0.12 -0.81,0.17 -1.33,0.17 -0.52,0 -0.95,-0.06 -1.31,-0.17 -0.36,-0.11 -0.66,-0.31 -0.88,-0.58 -0.22,-0.27 -0.38,-0.63 -0.48,-1.09 -0.1,-0.46 -0.15,-1.02 -0.15,-1.7 0,-0.68 0.05,-1.25 0.15,-1.7 0.1,-0.45 0.26,-0.82 0.48,-1.09 0.22,-0.27 0.52,-0.46 0.88,-0.58 0.36,-0.12 0.8,-0.17 1.31,-0.17 z m 0,1.01 c -0.39,0 -0.69,0.08 -0.91,0.23 -0.22,0.15 -0.38,0.42 -0.47,0.78 -0.09,0.37 -0.14,0.87 -0.14,1.52 0,0.65 0.05,1.15 0.14,1.52 0.09,0.37 0.25,0.63 0.47,0.78 0.22,0.15 0.53,0.23 0.91,0.23 0.38,0 0.7,-0.08 0.92,-0.23 0.22,-0.15 0.38,-0.42 0.47,-0.78 0.09,-0.37 0.14,-0.87 0.14,-1.52 0,-0.65 -0.05,-1.15 -0.14,-1.52 -0.09,-0.37 -0.25,-0.63 -0.47,-0.78 -0.22,-0.15 -0.53,-0.23 -0.92,-0.23 z"
         id="path193" />
      <path
         class="cls-3"
         d="m 89.81,126.65 v 5.44 c 0,0.49 -0.13,0.86 -0.38,1.11 -0.25,0.25 -0.61,0.38 -1.08,0.38 -0.1,0 -0.22,0 -0.37,-0.01 -0.15,-0.01 -0.28,-0.03 -0.42,-0.05 -0.14,-0.02 -0.24,-0.06 -0.33,-0.09 l 0.14,-0.83 h 0.48 c 0.48,0 0.72,-0.21 0.72,-0.63 v -5.3 h 1.23 z"
         id="path195" />
      <path
         class="cls-3"
         d="m 92.88,126.63 h 1.05 c 0.36,0 0.71,0 1.06,0.02 0.35,0.02 0.68,0.03 0.99,0.06 l -0.06,0.92 h -2.67 c -0.18,0 -0.32,0.05 -0.41,0.14 -0.09,0.09 -0.13,0.24 -0.13,0.44 v 3.72 c 0,0.2 0.04,0.34 0.13,0.43 0.09,0.09 0.23,0.14 0.41,0.14 h 2.67 l 0.06,0.92 c -0.31,0.03 -0.64,0.04 -0.99,0.05 -0.35,0.01 -0.7,0.02 -1.06,0.02 -0.36,0 -0.71,0 -1.05,0 -0.42,0 -0.76,-0.12 -1.01,-0.35 -0.25,-0.23 -0.38,-0.55 -0.39,-0.94 v -4.27 c 0,-0.4 0.14,-0.71 0.39,-0.94 0.25,-0.23 0.59,-0.35 1.01,-0.35 z m -1.23,2.82 h 3.89 v 0.91 h -3.89 z"
         id="path197" />
      <path
         class="cls-3"
         d="m 99.91,126.53 c 0.31,0 0.57,0 0.79,0.02 0.22,0.02 0.42,0.04 0.6,0.07 0.18,0.03 0.38,0.07 0.57,0.12 l -0.11,0.92 c -0.2,-0.01 -0.4,-0.02 -0.57,-0.03 -0.17,-0.01 -0.37,-0.02 -0.57,-0.02 -0.2,0 -0.44,0 -0.72,0 -0.38,0 -0.68,0.08 -0.9,0.23 -0.22,0.15 -0.37,0.41 -0.46,0.76 -0.09,0.36 -0.13,0.85 -0.13,1.47 0,0.62 0.04,1.12 0.13,1.47 0.09,0.35 0.24,0.61 0.46,0.76 0.22,0.15 0.52,0.23 0.9,0.23 0.44,0 0.81,0 1.11,-0.02 0.3,-0.02 0.59,-0.04 0.88,-0.07 l 0.11,0.91 c -0.3,0.09 -0.6,0.16 -0.92,0.2 -0.32,0.04 -0.71,0.06 -1.19,0.06 -0.69,0 -1.23,-0.11 -1.64,-0.34 -0.41,-0.23 -0.7,-0.6 -0.88,-1.11 -0.18,-0.51 -0.27,-1.21 -0.27,-2.08 0,-0.87 0.09,-1.56 0.27,-2.08 0.18,-0.51 0.48,-0.88 0.88,-1.11 0.41,-0.23 0.96,-0.34 1.64,-0.34 z"
         id="path199" />
      <path
         class="cls-3"
         d="m 108.22,126.65 v 1.01 h -5.47 v -1.01 z m -2.12,0 v 6.82 h -1.24 v -6.82 z"
         id="path201" />
    </g>
  </g>
</svg>
