<?xml version="1.0" encoding="UTF-8" standalone="no"?>
<svg
   width="88.5219"
   height="27.6528"
   version="1.1"
   viewBox="0 0 88.5219 27.6528"
   id="svg22"
   sodipodi:docname="portal_logo.svg"
   inkscape:version="1.2.1 (9c6d41e410, 2022-07-14)"
   xmlns:inkscape="http://www.inkscape.org/namespaces/inkscape"
   xmlns:sodipodi="http://sodipodi.sourceforge.net/DTD/sodipodi-0.dtd"
   xmlns="http://www.w3.org/2000/svg"
   xmlns:svg="http://www.w3.org/2000/svg">
  <sodipodi:namedview
     id="namedview24"
     pagecolor="#ffffff"
     bordercolor="#000000"
     borderopacity="0.25"
     inkscape:showpageshadow="2"
     inkscape:pageopacity="0.0"
     inkscape:pagecheckerboard="0"
     inkscape:deskcolor="#d1d1d1"
     showgrid="false"
     inkscape:zoom="8.5176666"
     inkscape:cx="32.579345"
     inkscape:cy="18.432278"
     inkscape:window-width="1920"
     inkscape:window-height="986"
     inkscape:window-x="1789"
     inkscape:window-y="1620"
     inkscape:window-maximized="1"
     inkscape:current-layer="svg22" />
  <defs
     id="defs4">
    <style
       id="style2">.cls-1,.cls-2{fill:#fff;}.cls-3{fill:#699bd1;}.cls-4,.cls-5{fill:#354b9b;}.cls-6{fill:#3b95d2;}.cls-6,.cls-7{opacity:.66;}.cls-6,.cls-7,.cls-5,.cls-2{fill-rule:evenodd;}.cls-7{fill:#c1e5fb;}</style>
  </defs>
  <g
     transform="matrix(.971223 0 0 .971223 1.27368 .397878)"
     stroke-width="1.02963"
     id="g20">
    <g
       transform="translate(-1.505e-4,-4.594e-4)"
       id="g18">
      <path
         class="cls-6"
         d="m3.46625 0.509733c-0.463667 0.501673-0.889329 0.988143-1.33019 1.51262 0.190028 0.304044 0.380055 0.570082 0.585285 0.858924 0.478869-0.55488 0.957739-1.07936 1.45941-1.61903-0.243235-0.250836-0.478869-0.501673-0.714503-0.76011zm25.0076 17.7106c-0.380055 0.547279-0.744908 1.06415-1.14777 1.59623 0.197629 0.296443 0.364853 0.562481 0.539678 0.866525 0.349651-0.509273 0.668897-0.995744 0.995744-1.52782-0.121617-0.342049-0.235634-0.615689-0.387656-0.934935zm0.440864 1.74825c-0.243235 0.418061-0.532077 0.836121-0.805717 1.20858 0.0228 0.06081 0.04561 0.13682 0.06081 0.212831 0.27364-0.440864 0.524476-0.89693 0.737307-1.353v-0.06841zm-1.353 1.93828c-0.364853 0.471268-0.82852 0.97294-1.22378 1.3986 0.06081 0.06841 0.129219 0.152022 0.190027 0.220432 0.395258-0.425662 0.767712-0.866526 1.09456-1.31499 0-0.106416-0.0304-0.20523-0.06081-0.304044zm-1.64184 2.22712c-0.07601-0.06081-0.152022-0.121618-0.220431-0.190028-0.425662 0.402859-0.927335 0.866526-1.3986 1.23138 0.09121 0.03801 0.190028 0.06841 0.27364 0.06841h0.0076c0.471268-0.342049 0.912132-0.706902 1.33779-1.10216zm3.76254-8.06477c-0.228033 0.471268-0.456066 0.912132-0.714503 1.3834 0.136819 0.319246 0.235634 0.577684 0.326847 0.874126 0.20523-0.448464 0.372454-0.858924 0.547279-1.34539-0.04561-0.364853-0.08361-0.608088-0.167224-0.912132zm-0.06841-4.01338c-0.144421 0.380055-0.288842 0.729706-0.471268 1.11736 0.220432 0.440863 0.410459 0.843722 0.600487 1.27698 0.121617-0.380055 0.212831-0.706902 0.304044-1.13256-0.13682-0.463668-0.266039-0.843723-0.433263-1.26938zm-14.0468 14.6929c-0.387656 0.182427-0.737306 0.326848-1.11736 0.471268 0.425661 0.167225 0.805716 0.296443 1.26938 0.433263 0.425662-0.09121 0.752509-0.182426 1.13256-0.304044-0.440864-0.190027-0.836121-0.380055-1.27698-0.600487zm12.5266-18.4327c0.114017-0.27364 0.212831-0.547279 0.288842-0.843722-0.296443-0.516875-0.630891-1.01095-0.995744-1.48221-0.13682 0.27364-0.326848 0.547279-0.501673 0.790514 0.418061 0.501673 0.813318 1.01095 1.20097 1.53542zm0.516875 0.752509c0.288842 0.456066 0.547279 0.912132 0.805716 1.391 0.0228-0.235634 0.03041-0.471268 0.0228-0.684099-0.174822-0.494072-0.37245-0.972941-0.600483-1.44421-0.05321 0.250836-0.129219 0.494072-0.228033 0.729706zm-2.34874-2.98723c0.20523-0.250836 0.395257-0.48647 0.562481-0.767711-0.190027-0.220432-0.395257-0.433263-0.600487-0.638492-0.205229-0.20523-0.41806-0.410459-0.638492-0.600487-0.281241 0.167224-0.516875 0.357252-0.767711 0.562481 0.243235 0.235634 0.494071 0.471268 0.737307 0.714503 0.243235 0.243235 0.478869 0.48647 0.714503 0.737307zm-5.5488 20.8194c-0.296443-0.09881-0.562481-0.197628-0.874127-0.326847-0.471268 0.258437-0.912132 0.48647-1.3834 0.714503 0.304044 0.07601 0.547279 0.121618 0.912132 0.167225 0.486471-0.174826 0.89693-0.349651 1.3454-0.54728zm-13.0131-2.46276c0.281241-0.167224 0.516875-0.357252 0.767711-0.562482-0.243235-0.235634-0.494072-0.471268-0.737307-0.714503s-0.478869-0.48647-0.714503-0.737307c-0.20523 0.250837-0.395257 0.486471-0.562481 0.767711 0.190028 0.220432 0.395257 0.433263 0.600487 0.638493s0.41806 0.410459 0.638492 0.600487zm1.24658-0.96534c0.349651-0.304044 0.699301-0.615689 1.04135-0.927334-0.27364-0.266039-0.55488-0.539678-0.82852-0.805717-0.27364-0.273639-0.539678-0.547279-0.805717-0.82852-0.311645 0.34205-0.62329 0.691701-0.927334 1.04135 0.250836 0.258438 0.494072 0.516875 0.752509 0.775312 0.250836 0.250837 0.516875 0.501673 0.775312 0.752509zm-0.038006-3.17726c0.27364 0.288842 0.55488 0.570083 0.836121 0.851324 0.281241 0.28124 0.570082 0.562481 0.851324 0.836121 0.48647-0.456066 0.972941-0.912132 1.45941-1.3758-0.296443-0.296442-0.600487-0.585284-0.89693-0.881727s-0.585284-0.592886-0.881727-0.89693c-0.456067 0.48647-0.919734 0.972941-1.3758 1.45941zm3.74734-3.92217-1.69504 1.74825c0.296443 0.304044 0.600487 0.608088 0.904531 0.912132s0.608089 0.600487 0.912132 0.904531l1.74825-1.69505c-0.311645-0.311645-0.62329-0.615689-0.934935-0.927334s-0.62329-0.62329-0.927334-0.934935zm4.53786-0.767711c-0.319246-0.319247-0.638492-0.630892-0.950137-0.950138l-0.950137-0.950137c-0.623291 0.630891-1.24658 1.26178-1.86987 1.89267 0.311645 0.311645 0.62329 0.630891 0.942536 0.942536 0.311646 0.311645 0.630892 0.62329 0.942537 0.942536l1.89267-1.86987zm5.79964-5.92886c0.456066-0.48647 0.919733-0.972941 1.3758-1.45941-0.27364-0.288842-0.55488-0.570082-0.836121-0.851323s-0.570082-0.55488-0.851323-0.836121c-0.48647 0.456066-0.972941 0.912132-1.45941 1.3758 0.296443 0.296443 0.600487 0.585285 0.896929 0.881728 0.296443 0.296443 0.585285 0.592886 0.881728 0.89693zm2.85801-3.11645c-0.250837-0.258437-0.494072-0.516875-0.752509-0.775312-0.250837-0.250836-0.516875-0.501673-0.775313-0.752509-0.34965 0.304044-0.699301 0.615689-1.04135 0.927334 0.273639 0.266038 0.55488 0.539678 0.82852 0.805717 0.273639 0.27364 0.539678 0.547279 0.805716 0.82852 0.311645-0.34205 0.62329-0.6917 0.927334-1.04135zm1.93068 2.34114c-0.425662-0.562481-0.843722-1.08696-1.29219-1.62664-0.288842 0.357252-0.585285 0.714503-0.889329 1.07176 0.494072 0.570082 0.957739 1.12496 1.42901 1.71025 0.258437-0.380055 0.501673-0.76011 0.744908-1.14777zm-2.7288 0.060809c-0.440864 0.501673-0.881728 0.988143-1.33779 1.48221 0.54728 0.600487 1.07936 1.19337 1.60383 1.80906 0.410459-0.509274 0.813317-1.01855 1.21618-1.53542-0.494072-0.592885-0.980542-1.17057-1.48982-1.75585zm-5.24476 9.24294c-0.608088-0.608088-1.22378-1.21618-1.83186-1.81666-0.630891 0.62329-1.26178 1.23898-1.89267 1.86227 0.615689 0.592886 1.23138 1.17817 1.85467 1.76346 0.630892-0.600487 1.24658-1.19337 1.86987-1.80146zm-2.65278 2.53117c-0.615689-0.577683-1.23138-1.15537-1.84707-1.74065-0.585285 0.562482-1.17057 1.11736-1.75585 1.67224 0.608088 0.554881 1.20858 1.10216 1.82426 1.64944 0.600487-0.524476 1.18577-1.04895 1.77866-1.58103zm-2.52356 2.20432c-0.608088-0.532077-1.20858-1.06415-1.80906-1.60383-0.494071 0.456066-0.980542 0.89693-1.48221 1.33779 0.577683 0.509273 1.15537 0.995744 1.75585 1.48982 0.516875-0.402858 1.02615-0.805716 1.53542-1.21618zm-3.90696 0.27364c-0.357252 0.296443-0.706903 0.592886-1.07176 0.889328 0.539678 0.448465 1.07176 0.866526 1.62664 1.29219 0.395257-0.243235 0.767711-0.494071 1.14777-0.744907-0.585285-0.471269-1.14016-0.942537-1.71025-1.42901zm0.729705 3.00243c-0.235634 0.09881-0.478869 0.174826-0.729705 0.228033 0.471268 0.228033 0.942536 0.425662 1.42901 0.600487 0.220432 0 0.463667 0 0.699302-0.0228-0.47887-0.250836-0.934936-0.516875-1.391-0.805717zm-2.28793-1.72545c-0.243235 0.174825-0.516875 0.364852-0.790514 0.501672 0.471268 0.364853 0.96534 0.699301 1.48221 0.995744 0.296443-0.076011 0.570083-0.174825 0.843722-0.288842-0.524476-0.387656-1.03375-0.782913-1.53542-1.20097zm2.88082 1.42901c0.516875 0.326848 1.01095 0.615689 1.55062 0.912132 0.418061-0.174825 0.790515-0.342049 1.19337-0.539678-0.547279-0.34965-1.05655-0.6917-1.59623-1.07176-0.387656 0.250836-0.752509 0.471268-1.14777 0.6917zm3.4661-0.0304c0.532077-0.334448 1.03375-0.668897 1.54302-1.02615-0.562482-0.425661-1.10976-0.851323-1.65704-1.28458-0.509274 0.402858-1.01095 0.782913-1.52782 1.17057 0.547279 0.395257 1.07936 0.767711 1.64184 1.14016zm4.06659-3.01004c-0.562481-0.478869-1.10976-0.957738-1.66464-1.45181-0.585285 0.524476-1.17057 1.03375-1.77106 1.54302 0.55488 0.456066 1.10976 0.896929 1.67224 1.33019 0.600487-0.471268 1.17817-0.934935 1.75585-1.42141zm2.56917-2.36394c-0.539678-0.524476-1.07176-1.04895-1.60383-1.58103-0.615689 0.600487-1.23138 1.18577-1.85467 1.77106 0.54728 0.501672 1.10216 0.995744 1.65704 1.48982 0.608088-0.55488 1.20097-1.11736 1.80146-1.68744zm0.752509-0.752509c0.570082-0.592885 1.12496-1.19337 1.68744-1.80146-0.494072-0.554881-0.988143-1.10976-1.48982-1.65704-0.585284 0.62329-1.17817 1.23898-1.77106 1.85467 0.532077 0.532077 1.05655 1.06415 1.58103 1.60383zm2.44755-6.00487c-0.509274 0.600487-1.01855 1.18577-1.54302 1.77106 0.494071 0.547279 0.97294 1.10216 1.45181 1.66464 0.48647-0.585285 0.950137-1.16297 1.4214-1.75586-0.440863-0.570082-0.881727-1.11736-1.33019-1.67224zm2.91882-0.630891c-0.372454-0.562481-0.744907-1.09456-1.14016-1.64184-0.387656 0.516875-0.767711 1.01855-1.17057 1.52782 0.433263 0.55488 0.858924 1.10216 1.28459 1.65704 0.357252-0.516874 0.6917-1.01095 1.02615-1.54302zm0.942537-1.91548c-0.296443-0.539678-0.592886-1.03375-0.912132-1.55062-0.220432 0.395258-0.440864 0.76011-0.6917 1.14777 0.372454 0.532077 0.722104 1.04895 1.07176 1.59623 0.197628-0.402859 0.364853-0.775313 0.539678-1.19337zm0.190027 4.05899c-0.220432-0.48647-0.433262-0.912132-0.676498-1.3758-0.311645 0.516875-0.630891 1.00334-0.965339 1.51262 0.296443 0.456066 0.570082 0.89693 0.843722 1.353 0.288842-0.501673 0.539678-0.96534 0.805716-1.49742zm-2.19672 0.904527c-0.448465 0.585285-0.904531 1.14777-1.3682 1.71785 0.357252 0.440864 0.699302 0.881727 1.04135 1.33019 0.425662-0.55488 0.820919-1.10216 1.22378-1.67224-0.296443-0.478869-0.585285-0.919733-0.89693-1.3758zm-0.942536 3.80055c-0.357252-0.440864-0.722105-0.874126-1.08696-1.31499-0.539678 0.600487-1.07936 1.17817-1.64184 1.76346 0.402858 0.410459 0.798116 0.820919 1.20097 1.23138 0.524476-0.55488 1.01855-1.10976 1.52782-1.67984zm-3.91457 3.91457c0.577684-0.501673 1.12496-1.00335 1.67984-1.52022-0.41046-0.402859-0.820919-0.805717-1.23138-1.20097-0.585284 0.55488-1.16297 1.09456-1.76346 1.64184 0.433263 0.364853 0.866526 0.729706 1.31499 1.08696zm-0.752508 0.615689c-0.448465-0.34205-0.889329-0.684099-1.33019-1.04135-0.570082 0.463667-1.13256 0.919733-1.71785 1.3682 0.463668 0.311645 0.904531 0.600487 1.3758 0.89693 0.570082-0.402858 1.11736-0.798116 1.67224-1.22378zm-2.45516 1.71785c-0.463667-0.273639-0.904531-0.547279-1.3606-0.843722-0.509273 0.334449-0.995744 0.653695-1.51262 0.96534 0.463668 0.250836 0.889329 0.456066 1.3758 0.676498 0.524475-0.258438 0.995744-0.516875 1.49742-0.805717zm3.92217-0.752509c-0.296443-0.174825-0.570083-0.342049-0.866525-0.539678-0.532078 0.402859-1.04895 0.775313-1.59623 1.14777 0.319247 0.144421 0.592886 0.266039 0.934936 0.387657 0.532077-0.326848 1.01855-0.646094 1.52782-0.995745zm2.24992-1.88507c-0.250836-0.235634-0.509273-0.47887-0.760109-0.714504-0.539679 0.501673-1.06416 0.980542-1.61904 1.45941 0.288842 0.20523 0.55488 0.395258 0.858924 0.585285 0.524476-0.440864 1.01095-0.866525 1.51262-1.33019zm1.98389-2.17392c-0.190028-0.304044-0.380055-0.570082-0.585285-0.858924-0.478869 0.55488-0.957739 1.07936-1.45941 1.61903 0.243235 0.250836 0.478869 0.501673 0.714503 0.76011 0.463667-0.501673 0.889329-0.988143 1.33019-1.51262zm-3.73974 4.29462c-0.380055 0.273639-0.798115 0.562481-1.21618 0.805716h0.06081c0.471268-0.220432 0.927334-0.471268 1.3682-0.744908-0.07601-0.0152-0.144421-0.038-0.212831-0.06081zm-9.04531-25.4485c-0.48647 0.174825-0.896929 0.349651-1.34539 0.547279 0.304044 0.0988143 0.562481 0.197629 0.874126 0.326847 0.471268-0.258437 0.912132-0.48647 1.3834-0.714503-0.304044-0.076011-0.547279-0.121618-0.912132-0.167224zm4.31742 1.01855c-0.425661-0.167224-0.805716-0.296443-1.26938-0.433263-0.425661 0.0912132-0.752508 0.182426-1.13256 0.304044 0.440863 0.190028 0.836121 0.380055 1.27698 0.600487 0.395258-0.182426 0.737307-0.326847 1.11736-0.471268zm-17.1861 10.6035c-0.228033-0.440864-0.410459-0.843722-0.600487-1.27698-0.121618 0.380055-0.212831 0.706902-0.304044 1.13256 0.13682 0.463667 0.266038 0.843722 0.433263 1.26938 0.144421-0.380055 0.296443-0.729705 0.471268-1.11736zm22.4613-7.87474c0.243235-0.174825 0.516874-0.364853 0.790514-0.501673-0.471268-0.364853-0.96534-0.699301-1.48222-0.995744-0.296442 0.076011-0.570082 0.174825-0.843722 0.288842 0.524476 0.387656 1.03375 0.782913 1.53542 1.20097zm-2.28793-1.72545c0.235634-0.098814 0.478869-0.174825 0.729705-0.228033-0.471268-0.228033-0.942536-0.425662-1.42901-0.600487-0.220432 0-0.463667 0-0.699301 0.022803 0.478869 0.250836 0.934935 0.516875 1.391 0.805717zm-21.2679 3.68653c-0.20523 0.448465-0.372454 0.858924-0.547279 1.34539 0.0456066 0.364853 0.0912132 0.608088 0.167224 0.912132 0.228033-0.471268 0.456066-0.912132 0.714503-1.3834-0.129219-0.319246-0.235634-0.577684-0.326847-0.874126zm21.99-0.684099c0.357252-0.296443 0.706902-0.592886 1.07176-0.889329-0.539678-0.448465-1.07176-0.866525-1.62664-1.29219-0.395258 0.243235-0.767711 0.494072-1.14777 0.744908 0.585284 0.471268 1.14016 0.942536 1.71025 1.42901zm-2.37914-0.942536c-0.516875 0.402858-1.02615 0.805717-1.53542 1.21618 0.608088 0.532077 1.20858 1.06415 1.80906 1.60383 0.494072-0.456066 0.980542-0.89693 1.48222-1.33779-0.577684-0.509274-1.15537-0.995744-1.75585-1.48982zm-2.27273 1.84707c-0.600487 0.524476-1.18577 1.04895-1.77866 1.58103 0.623291 0.577684 1.23138 1.15537 1.84707 1.74065 0.585284-0.562481 1.17057-1.11736 1.75585-1.67224-0.608088-0.55488-1.20858-1.10216-1.82426-1.64944zm5.22196 8.58164c0.532077-0.592886 1.05655-1.17817 1.58103-1.77866-0.547279-0.615689-1.08696-1.22378-1.64944-1.82426-0.554881 0.592886-1.10976 1.17817-1.67224 1.75585 0.585284 0.615689 1.16297 1.22378 1.74065 1.84707zm-2.48556-1.06415c-0.615689 0.630891-1.23898 1.26178-1.86227 1.89267 0.608088 0.608088 1.21618 1.21618 1.81666 1.83186 0.608088-0.623291 1.20858-1.23898 1.80146-1.86987-0.585285-0.62329-1.17057-1.23898-1.76346-1.85467zm-2.65278-2.67559-1.89267 1.86987 1.90788 1.90788c0.62329-0.630891 1.24658-1.26178 1.86987-1.89267zm2.52356-2.45515-1.74825 1.69504 1.86227 1.86987 1.69504-1.74825-1.81666-1.81666zm-3.31408 1.67984c-0.615689-0.592886-1.23138-1.17817-1.85467-1.76345-0.630891 0.600487-1.24658 1.19337-1.86987 1.80146 0.608088 0.608088 1.22378 1.21618 1.83187 1.82426 0.630891-0.62329 1.26178-1.23898 1.89267-1.86227zm-4.53786 4.53786c0.615689-0.630891 1.23898-1.26178 1.86227-1.89267-0.608088-0.608088-1.21618-1.21618-1.82426-1.83186-0.608088 0.62329-1.20097 1.23898-1.80146 1.86987 0.585284 0.62329 1.17057 1.23898 1.76346 1.85467zm-2.85041-1.4062c-0.532077 0.592886-1.05655 1.17817-1.58103 1.77866 0.547279 0.615689 1.08696 1.22378 1.64944 1.82426 0.55488-0.592886 1.10976-1.17817 1.67224-1.75585-0.585284-0.615689-1.16297-1.22378-1.74065-1.84707zm-1.84707 2.86562c-0.410459 0.509274-0.813318 1.01855-1.21618 1.53542 0.494072 0.592886 0.980542 1.17057 1.48982 1.75585 0.440864-0.501672 0.881728-0.988143 1.33779-1.48221-0.547279-0.600487-1.07936-1.19337-1.60383-1.80906zm-0.27364 3.90697c-0.494072-0.570083-0.957739-1.12496-1.42901-1.71025-0.258437 0.380055-0.501673 0.76011-0.744908 1.14777 0.425662 0.562482 0.843722 1.08696 1.29219 1.62664 0.296443-0.357252 0.585285-0.714504 0.889329-1.07176zm-3.4813-0.471269c-0.288842-0.456066-0.547279-0.919733-0.805717-1.391-0.022803 0.235634-0.030404 0.471268-0.030404 0.684099 0.174825 0.494072 0.372454 0.972941 0.600487 1.44421 0.053208-0.250836 0.129219-0.501672 0.228033-0.729706zm0.706902 1.33779c0.296443 0.516875 0.630891 1.01095 0.995744 1.48221 0.13682-0.273639 0.326847-0.547279 0.501673-0.790514-0.41806-0.501673-0.813318-1.01095-1.20097-1.53542-0.114016 0.273639-0.212831 0.547279-0.288842 0.843722zm1.03375-4.56826c-0.372454-0.532077-0.722104-1.04895-1.07176-1.59623-0.197629 0.402858-0.364853 0.775312-0.539678 1.19337 0.296443 0.539678 0.592886 1.03375 0.912132 1.55062 0.220432-0.395257 0.440864-0.76011 0.6917-1.14777zm1.12496-4.94832c-0.48647 0.585284-0.950138 1.16297-1.42141 1.75585 0.440864 0.570082 0.881728 1.11736 1.33019 1.67224 0.509274-0.600487 1.01855-1.18577 1.54302-1.77106-0.494072-0.54728-0.972941-1.10216-1.45181-1.66464zm2.93402-3.09365c-0.570082 0.592886-1.12496 1.19337-1.68744 1.80146 0.494072 0.55488 0.988143 1.10976 1.48982 1.65704 0.585285-0.623291 1.17817-1.23898 1.77106-1.85467-0.532077-0.532077-1.05655-1.06415-1.58103-1.60383zm3.95257-1.42141c-0.547279-0.501673-1.10216-0.995744-1.65704-1.48982-0.608088 0.55488-1.20097 1.11736-1.80146 1.68744 0.539679 0.524476 1.07176 1.04895 1.60383 1.58103 0.615689-0.600487 1.23138-1.18577 1.85467-1.77106zm3.17726-1.46701c-0.554881-0.456066-1.10976-0.89693-1.67224-1.33019-0.600487 0.471268-1.17817 0.934935-1.75585 1.42141 0.562481 0.478869 1.10976 0.957739 1.66464 1.45181 0.585284-0.524476 1.17057-1.03375 1.77106-1.54302zm0.638492-2.91882c-0.532077 0.334448-1.03375 0.668897-1.54302 1.02615 0.562481 0.425662 1.10976 0.851323 1.66464 1.28459 0.509273-0.402858 1.01095-0.782913 1.52782-1.17057-0.547279-0.395257-1.07936-0.767711-1.64184-1.14016zm1.91548-0.942536c-0.41806 0.174825-0.790514 0.34205-1.19337 0.539678 0.547279 0.349651 1.05655 0.6917 1.59623 1.07176 0.387656-0.250836 0.752509-0.471268 1.14777-0.6917-0.516875-0.326847-1.01095-0.615689-1.55062-0.912132zm-4.19581 1.45181c0.509274-0.334448 0.995744-0.653695 1.51262-0.96534-0.463667-0.250836-0.889329-0.456066-1.3758-0.676498-0.524476 0.258437-0.995744 0.516875-1.49742 0.805717 0.463667 0.27364 0.904531 0.547279 1.353 0.843722zm-3.51171-1.00335c-0.570083 0.402858-1.11736 0.798116-1.67224 1.22378 0.448465 0.34205 0.889329 0.684099 1.33019 1.04135 0.570083-0.463667 1.14016-0.919733 1.71785-1.3682-0.456066-0.311645-0.89693-0.600487-1.3758-0.89693zm-2.97963 2.34874c-0.577684 0.501673-1.12496 1.00335-1.67984 1.52782 0.410459 0.402858 0.820919 0.805717 1.23138 1.20097 0.585285-0.55488 1.16297-1.09456 1.76346-1.64184-0.433263-0.364853-0.866525-0.729706-1.31499-1.08696zm-3.34448-1.70265c0.357252 0.440864 0.722104 0.874126 1.08696 1.31499 0.539678-0.600487 1.07936-1.17817 1.64184-1.76346-0.402858-0.410459-0.798116-0.820919-1.20097-1.23138-0.524476 0.55488-1.01855 1.10976-1.52782 1.67984zm0.372454 5.09274c-0.425662 0.55488-0.820919 1.10216-1.22378 1.67224 0.296443 0.478869 0.585285 0.919733 0.89693 1.3758 0.448465-0.577684 0.904531-1.14777 1.3682-1.71785-0.357252-0.440864-0.699301-0.881728-1.04135-1.33019zm-1.62664 3.98298c-0.296443-0.456066-0.570082-0.89693-0.843722-1.353-0.288842 0.501673-0.539678 0.96534-0.805717 1.49742 0.220432 0.48647 0.433263 0.912132 0.676498 1.3758 0.311645-0.516875 0.630891-1.00334 0.96534-1.51262zm-0.41806-6.46854c-0.349651 0.509274-0.668897 0.995744-0.995744 1.52782 0.121618 0.34205 0.235634 0.615689 0.387656 0.934935 0.380055-0.547279 0.744908-1.06415 1.14777-1.59623-0.197629-0.296443-0.364853-0.562481-0.539678-0.866525z"
         stroke-width=".782632"
         id="path6" />
      <path
         class="cls-5"
         d="m28.6031 17.9695c-0.380055 0.547279-0.744908 1.06415-1.14777 1.59623 0.197628 0.296443 0.364852 0.562481 0.539678 0.866525 0.34965-0.509274 0.668897-0.995744 0.995744-1.52782-0.121618-0.342049-0.235634-0.615689-0.387656-0.934935zm0.440864 1.74825c-0.243236 0.41806-0.532077 0.836121-0.805717 1.20858 0.0228 0.06081 0.04561 0.136819 0.06081 0.21283 0.273639-0.440863 0.524476-0.896929 0.737306-1.353v-0.06841zm-1.353 1.93828c-0.364853 0.471268-0.82852 0.972941-1.22378 1.3986 0.06081 0.06841 0.129218 0.152022 0.190027 0.220432 0.395257-0.425662 0.767711-0.866526 1.09456-1.31499 0-0.106415-0.03041-0.205229-0.06081-0.304044zm-1.64184 2.22712c-0.07601-0.06081-0.152022-0.121618-0.220432-0.190028-0.425661 0.402858-0.927334 0.866525-1.3986 1.23138 0.09121 0.03801 0.190027 0.06841 0.273639 0.06841h0.0076c0.471268-0.342049 0.912132-0.706902 1.33779-1.10216zm3.76254-8.06477c-0.228033 0.471269-0.456066 0.912132-0.714504 1.3834 0.13682 0.319246 0.235634 0.577683 0.326848 0.874126 0.205229-0.448465 0.372453-0.858924 0.547279-1.3454-0.04561-0.364852-0.08361-0.608087-0.167224-0.912132zm-0.06841-4.01338c-0.144421 0.380055-0.288842 0.729705-0.471268 1.11736 0.220431 0.440864 0.410459 0.843722 0.600486 1.27698 0.121618-0.380055 0.212831-0.706902 0.304044-1.13256-0.136819-0.463667-0.266038-0.843722-0.433262-1.26938zm-14.0468 14.6929c-0.387656 0.182426-0.737307 0.326847-1.11736 0.471268 0.425662 0.167224 0.805717 0.296443 1.26938 0.433263 0.425662-0.09121 0.752509-0.182427 1.13256-0.304044-0.440864-0.190028-0.836121-0.380055-1.27698-0.600487zm12.5266-18.4327c0.114016-0.27364 0.212831-0.547279 0.288842-0.843722-0.296443-0.516875-0.630892-1.01095-0.995744-1.48221-0.13682 0.27364-0.326848 0.547279-0.501673 0.790514 0.41806 0.501673 0.813318 1.01095 1.20097 1.53542zm0.516875 0.752509c0.288841 0.456066 0.547279 0.912132 0.805716 1.391 0.0228-0.235634 0.03041-0.471268 0.0228-0.684099-0.174822-0.494072-0.37245-0.972941-0.600483-1.44421-0.053208 0.250836-0.129219 0.494072-0.228033 0.729706zm-2.34874-2.98723c0.205229-0.250836 0.395257-0.48647 0.562481-0.767711-0.190027-0.220432-0.395257-0.433263-0.600487-0.638492-0.205229-0.20523-0.41806-0.410459-0.638492-0.600487-0.281241 0.167224-0.516875 0.357252-0.767711 0.562481 0.243235 0.235634 0.494071 0.471268 0.737306 0.714503 0.243236 0.243235 0.47887 0.48647 0.714504 0.737307zm-5.5488 20.8194c-0.296443-0.09881-0.562482-0.197629-0.874127-0.326847-0.471268 0.258437-0.912132 0.48647-1.3834 0.714503 0.304044 0.07601 0.547279 0.121618 0.912132 0.167224 0.48647-0.174825 0.89693-0.34965 1.3454-0.547279zm-13.0131-2.46276c0.281241-0.167225 0.516875-0.357252 0.767711-0.562482-0.243235-0.235634-0.494072-0.471268-0.737307-0.714503s-0.478869-0.486471-0.714503-0.737307c-0.20523 0.250836-0.395257 0.48647-0.562481 0.767711 0.190028 0.220432 0.395257 0.433263 0.600487 0.638493 0.20523 0.205229 0.41806 0.410459 0.638492 0.600486zm1.24658-0.96534c0.349651-0.304044 0.699301-0.615689 1.04135-0.927334-0.27364-0.266039-0.554881-0.539678-0.82852-0.805717-0.27364-0.27364-0.539678-0.547279-0.805717-0.82852-0.311645 0.34205-0.62329 0.6917-0.927334 1.04135 0.250836 0.258437 0.494072 0.516875 0.752509 0.775312 0.250836 0.250836 0.516875 0.501673 0.775312 0.752509zm-0.038006-3.17726c0.27364 0.288842 0.55488 0.570083 0.836121 0.851323 0.281241 0.281241 0.570083 0.562482 0.851324 0.836121 0.48647-0.456066 0.97294-0.912132 1.45941-1.3758-0.296443-0.296443-0.600487-0.585285-0.89693-0.881727-0.296443-0.296443-0.585285-0.592886-0.881728-0.89693-0.456066 0.48647-0.919733 0.972941-1.3758 1.45941zm3.74734-3.92217-1.69505 1.74825c0.296443 0.304044 0.600487 0.608088 0.904531 0.912132s0.608088 0.600487 0.912132 0.904531l1.74825-1.69504c-0.311645-0.311645-0.62329-0.615689-0.934935-0.927334s-0.62329-0.62329-0.927334-0.934935zm4.53786-0.767711c-0.319245-0.319246-0.638491-0.630891-0.950136-0.950137l-0.950138-0.950138c-0.62329 0.630892-1.24658 1.26178-1.86987 1.89267 0.311645 0.311645 0.62329 0.630892 0.942536 0.942537 0.311645 0.311645 0.630892 0.62329 0.942537 0.942536l1.89267-1.86987zm5.79964-5.92886c0.456067-0.48647 0.919734-0.972941 1.3758-1.45941-0.27364-0.288842-0.55488-0.570082-0.836121-0.851323s-0.570083-0.55488-0.851323-0.836121c-0.486471 0.456066-0.972941 0.912132-1.45941 1.3758 0.296443 0.296443 0.600487 0.585285 0.89693 0.881728s0.585285 0.592886 0.881728 0.89693zm2.85801-3.11645c-0.250836-0.258437-0.494071-0.516875-0.752509-0.775312-0.250836-0.250836-0.516874-0.501673-0.775312-0.752509-0.34965 0.304044-0.699301 0.615689-1.04135 0.927334 0.273639 0.266038 0.55488 0.539678 0.828519 0.805717 0.27364 0.27364 0.539679 0.547279 0.805717 0.82852 0.311645-0.34205 0.62329-0.6917 0.927334-1.04135zm1.93068 2.34114c-0.425662-0.562481-0.843722-1.08696-1.29219-1.62664-0.288842 0.357252-0.585285 0.714503-0.889329 1.07176 0.494071 0.570082 0.957739 1.12496 1.42901 1.71025 0.258437-0.380055 0.501672-0.76011 0.744908-1.14777zm-2.7288 0.0608088c-0.440864 0.501673-0.881728 0.988143-1.33779 1.48221 0.547279 0.600487 1.07936 1.19337 1.60383 1.80906 0.41046-0.509273 0.813318-1.01855 1.21618-1.53542-0.494071-0.592886-0.980542-1.17057-1.48982-1.75585zm-5.24476 9.24294c-0.608088-0.608088-1.22378-1.21618-1.83186-1.81666-0.630892 0.62329-1.26178 1.23898-1.89267 1.86227 0.615689 0.592886 1.23138 1.17817 1.85467 1.76346 0.630891-0.600487 1.24658-1.19337 1.86987-1.80146zm-2.65278 2.53117c-0.615689-0.577684-1.23138-1.15537-1.84707-1.74065-0.585285 0.562481-1.17057 1.11736-1.75586 1.67224 0.608088 0.55488 1.20858 1.10216 1.82426 1.64944 0.600487-0.524476 1.18577-1.04895 1.77866-1.58103zm-2.52356 2.20432c-0.608088-0.532077-1.20858-1.06415-1.80906-1.60383-0.494072 0.456066-0.980542 0.89693-1.48222 1.33779 0.577684 0.509274 1.15537 0.995744 1.75585 1.48982 0.516875-0.402858 1.02615-0.805717 1.53542-1.21618zm-3.90697 0.273639c-0.357251 0.296443-0.706902 0.592886-1.07175 0.889329 0.539678 0.448465 1.07175 0.866526 1.62664 1.29219 0.395257-0.243235 0.767711-0.494071 1.14777-0.744908-0.585285-0.471268-1.14016-0.942536-1.71025-1.42901zm0.729706 3.00244c-0.235634 0.09881-0.478869 0.174825-0.729706 0.228033 0.471268 0.228033 0.942537 0.425662 1.42901 0.600487 0.220432 0 0.463667 0 0.699301-0.0228-0.478869-0.250837-0.934935-0.516875-1.391-0.805717zm-2.28793-1.72545c-0.243235 0.174826-0.516875 0.364853-0.790514 0.501673 0.471268 0.364853 0.96534 0.699301 1.48221 0.995744 0.296443-0.07601 0.570082-0.174825 0.843722-0.288842-0.524476-0.387656-1.03375-0.782913-1.53542-1.20097zm2.88082 1.42901c0.516874 0.326847 1.01095 0.615689 1.55062 0.912132 0.418061-0.174825 0.790514-0.342049 1.19337-0.539678-0.547279-0.349651-1.05655-0.6917-1.59623-1.07176-0.387656 0.250836-0.752509 0.471268-1.14777 0.6917zm3.4661-0.0304c0.532077-0.334449 1.03375-0.668897 1.54302-1.02615-0.562482-0.425661-1.10976-0.851323-1.65704-1.28459-0.509274 0.402859-1.01095 0.782914-1.52782 1.17057 0.547279 0.395257 1.07936 0.767711 1.64184 1.14016zm4.06659-3.01004c-0.562482-0.478869-1.10976-0.957739-1.66464-1.45181-0.585285 0.524476-1.17057 1.03375-1.77106 1.54302 0.55488 0.456066 1.10976 0.89693 1.67224 1.33019 0.600487-0.471268 1.17817-0.934936 1.75585-1.42141zm2.56917-2.36394c-0.539678-0.524476-1.07176-1.04895-1.60383-1.58103-0.61569 0.600487-1.23138 1.18577-1.85467 1.77106 0.547279 0.501673 1.10216 0.995745 1.65704 1.48982 0.608088-0.55488 1.20097-1.11736 1.80146-1.68744zm0.752509-0.752509c0.570082-0.592886 1.12496-1.19337 1.68744-1.80146-0.494072-0.55488-0.988143-1.10976-1.48982-1.65704-0.585285 0.62329-1.17817 1.23898-1.77106 1.85467 0.532077 0.532077 1.05655 1.06415 1.58103 1.60383zm2.44755-6.00487c-0.509274 0.600487-1.01855 1.18577-1.54302 1.77106 0.494072 0.54728 0.972941 1.10216 1.45181 1.66464 0.486471-0.585284 0.950138-1.16297 1.42141-1.75585-0.440864-0.570082-0.881727-1.11736-1.33019-1.67224zm2.91882-0.630891c-0.372454-0.562482-0.744908-1.09456-1.14016-1.64184-0.387656 0.516875-0.767711 1.01855-1.17057 1.52782 0.433262 0.554881 0.858924 1.10216 1.28459 1.65704 0.357251-0.516875 0.6917-1.01095 1.02615-1.54302zm0.942537-1.91548c-0.296443-0.539679-0.592886-1.03375-0.912132-1.55062-0.220432 0.395257-0.440864 0.76011-0.691701 1.14777 0.372454 0.532077 0.722105 1.04895 1.07176 1.59623 0.197628-0.402858 0.364852-0.775312 0.539678-1.19337zm0.190027 4.05899c-0.220432-0.48647-0.433263-0.912132-0.676498-1.3758-0.311645 0.516875-0.630891 1.00334-0.96534 1.51262 0.296443 0.456066 0.570083 0.89693 0.843723 1.353 0.288841-0.501673 0.539678-0.96534 0.805716-1.49742zm-2.19672 0.904531c-0.448465 0.585285-0.904531 1.14777-1.3682 1.71785 0.357252 0.440864 0.699301 0.881728 1.04135 1.33019 0.425661-0.55488 0.820919-1.10216 1.22378-1.67224-0.296443-0.478869-0.585285-0.919733-0.89693-1.3758zm-0.942536 3.80055c-0.357252-0.440864-0.722105-0.874127-1.08696-1.31499-0.539678 0.600486-1.07936 1.17817-1.64184 1.76346 0.402858 0.410459 0.798115 0.820919 1.20097 1.23138 0.524475-0.55488 1.01855-1.10976 1.52782-1.67984zm-3.91457 3.91457c0.577684-0.501672 1.12496-1.00334 1.67984-1.52022-0.410459-0.402858-0.820918-0.805716-1.23138-1.20097-0.585285 0.55488-1.16297 1.09456-1.76346 1.64184 0.433263 0.364853 0.866525 0.729706 1.31499 1.08696zm-0.752509 0.615689c-0.448465-0.342049-0.889328-0.684099-1.33019-1.04135-0.570083 0.463667-1.13256 0.919733-1.71785 1.3682 0.463667 0.311645 0.904531 0.600487 1.3758 0.89693 0.570083-0.402859 1.11736-0.798116 1.67224-1.22378zm-2.45516 1.71785c-0.463667-0.27364-0.904531-0.547279-1.3606-0.843722-0.509274 0.334448-0.995744 0.653695-1.51262 0.96534 0.463667 0.250836 0.889329 0.456066 1.3758 0.676498 0.524476-0.258438 0.995744-0.516875 1.49742-0.805717zm3.92217-0.752509c-0.296443-0.174825-0.570083-0.342049-0.866526-0.539678-0.532077 0.402858-1.04895 0.775312-1.59623 1.14777 0.319246 0.144421 0.592886 0.266039 0.934936 0.387656 0.532077-0.326847 1.01855-0.646093 1.52782-0.995744zm2.24992-1.88507c-0.250836-0.235634-0.509273-0.478869-0.76011-0.714503-0.539678 0.501673-1.06415 0.980542-1.61903 1.45941 0.288842 0.20523 0.55488 0.395257 0.858924 0.585285 0.524476-0.440864 1.01095-0.866526 1.51262-1.33019zm1.98389-2.17391c-0.190027-0.304044-0.380055-0.570083-0.585284-0.858925-0.47887 0.554881-0.957739 1.07936-1.45941 1.61904 0.243236 0.250836 0.47887 0.501672 0.714504 0.76011 0.463667-0.501673 0.889329-0.988143 1.33019-1.51262zm-3.73974 4.29462c-0.380055 0.27364-0.798115 0.562482-1.21618 0.805717h0.06081c0.471268-0.220432 0.927334-0.471268 1.3682-0.744908-0.07601-0.0152-0.144421-0.038-0.212831-0.06081zm-9.04531-25.4485c-0.48647 0.174825-0.89693 0.349651-1.3454 0.547279 0.304044 0.0988143 0.562482 0.197629 0.874127 0.326847 0.471268-0.258437 0.912132-0.48647 1.3834-0.714503-0.304044-0.076011-0.547279-0.121618-0.912132-0.167224zm4.31742 1.01855c-0.425662-0.167224-0.805717-0.296443-1.26938-0.433263-0.425661 0.0912132-0.752509 0.182426-1.13256 0.304044 0.440864 0.190028 0.836121 0.380055 1.27698 0.600487 0.395257-0.182426 0.737307-0.326847 1.11736-0.471268zm-17.1861 10.6035c-0.228033-0.440863-0.410459-0.843722-0.600487-1.27698-0.121618 0.380055-0.212831 0.706902-0.304044 1.13256 0.13682 0.463668 0.266038 0.843723 0.433263 1.26938 0.144421-0.380055 0.296443-0.729705 0.471268-1.11736zm22.4613-7.87474c0.243236-0.174825 0.516875-0.364853 0.790515-0.501673-0.471268-0.364853-0.96534-0.699301-1.48222-0.995744-0.296443 0.076011-0.570082 0.174825-0.843722 0.288842 0.524476 0.387656 1.03375 0.782913 1.53542 1.20097zm-2.28793-1.72545c0.235634-0.098814 0.47887-0.174825 0.729706-0.228033-0.471268-0.228033-0.942537-0.425662-1.42901-0.600487-0.220432 0-0.463667 0-0.699301 0.022803 0.478869 0.250836 0.934935 0.516875 1.391 0.805717zm-21.2679 3.68653c-0.20523 0.448465-0.372454 0.858924-0.547279 1.34539 0.0456066 0.364853 0.0912132 0.608088 0.167224 0.912132 0.228033-0.471268 0.456066-0.912132 0.714503-1.3834-0.129219-0.319246-0.235634-0.577684-0.326847-0.874126zm21.99-0.684099c0.357251-0.296443 0.706902-0.592886 1.07176-0.889329-0.539678-0.448465-1.07176-0.866525-1.62664-1.29219-0.395257 0.243235-0.767711 0.494072-1.14777 0.744908 0.585285 0.471268 1.14016 0.942536 1.71025 1.42901zm-2.37914-0.942536c-0.516874 0.402858-1.02615 0.805717-1.53542 1.21618 0.608088 0.532077 1.20858 1.06415 1.80906 1.60383 0.494072-0.456066 0.980542-0.89693 1.48222-1.33779-0.577684-0.509274-1.15537-0.995744-1.75586-1.48982zm-2.27273 1.84707c-0.600487 0.524476-1.18577 1.04895-1.77866 1.58103 0.62329 0.577684 1.23138 1.15537 1.84707 1.74065 0.585285-0.562481 1.17057-1.11736 1.75586-1.67224-0.608088-0.55488-1.20858-1.10216-1.82426-1.64944zm5.22196 8.58164c0.532077-0.592885 1.05655-1.17817 1.58103-1.77866-0.547279-0.615689-1.08696-1.22378-1.64944-1.82426-0.55488 0.592886-1.10976 1.17817-1.67224 1.75585 0.585285 0.615689 1.16297 1.22378 1.74065 1.84707zm-2.48556-1.06415c-0.61569 0.630892-1.23898 1.26178-1.86227 1.89267 0.608088 0.608088 1.21618 1.21618 1.81666 1.83186 0.608088-0.62329 1.20858-1.23898 1.80146-1.86987-0.585285-0.62329-1.17057-1.23898-1.76346-1.85467zm-2.65278-2.67559-1.89267 1.86987 1.90788 1.90788c0.62329-0.630891 1.24658-1.26178 1.86987-1.89267zm2.52356-2.45516-1.74825 1.69505 1.86227 1.86987 1.69505-1.74825-1.81666-1.81666zm-3.31408 1.67984c-0.615689-0.592886-1.23138-1.17817-1.85467-1.76346-0.630891 0.600487-1.24658 1.19337-1.86987 1.80146 0.608088 0.608088 1.22378 1.21618 1.83186 1.82426 0.630892-0.62329 1.26178-1.23898 1.89267-1.86227zm-7.38827 3.13165c-0.532077 0.592886-1.05655 1.17817-1.58103 1.77866 0.547279 0.615689 1.08696 1.22378 1.64944 1.82426 0.55488-0.592886 1.10976-1.17817 1.67224-1.75586-0.585285-0.615689-1.16297-1.22378-1.74065-1.84707zm-2.12071 6.77258c-0.494072-0.570082-0.957739-1.12496-1.42901-1.71025-0.258437 0.380055-0.501673 0.76011-0.744908 1.14777 0.425662 0.562481 0.843722 1.08696 1.29219 1.62664 0.296443-0.357251 0.585285-0.714503 0.889329-1.07176zm-3.4813-0.471268c-0.288842-0.456066-0.547279-0.919733-0.805717-1.391-0.022803 0.235634-0.030404 0.471268-0.030404 0.684099 0.174825 0.494071 0.372454 0.972941 0.600487 1.44421 0.053208-0.250837 0.129219-0.501673 0.228033-0.729706zm0.706902 1.33779c0.296443 0.516874 0.630891 1.01095 0.995744 1.48221 0.13682-0.273639 0.326847-0.547279 0.501673-0.790514-0.41806-0.501673-0.813318-1.01095-1.20097-1.53542-0.114016 0.273639-0.212831 0.547279-0.288842 0.843722zm1.03375-4.56826c-0.372454-0.532077-0.722104-1.04895-1.07176-1.59623-0.197629 0.402858-0.364853 0.775312-0.539678 1.19337 0.296443 0.539678 0.592886 1.03375 0.912132 1.55062 0.220432-0.395258 0.440864-0.76011 0.6917-1.14777zm1.12496-4.94832c-0.48647 0.585285-0.950138 1.16297-1.42141 1.75586 0.440864 0.570082 0.881728 1.11736 1.33019 1.67224 0.509274-0.600487 1.01855-1.18577 1.54302-1.77106-0.494072-0.547279-0.972941-1.10216-1.45181-1.66464zm2.93402-3.09365c-0.570083 0.592886-1.12496 1.19337-1.68744 1.80146 0.494072 0.55488 0.988143 1.10976 1.48982 1.65704 0.585285-0.62329 1.17817-1.23898 1.77106-1.85467-0.532077-0.532077-1.05655-1.06415-1.58103-1.60383zm3.95257-1.42141c-0.54728-0.501673-1.10216-0.995744-1.65704-1.48982-0.608088 0.55488-1.20097 1.11736-1.80146 1.68744 0.539678 0.524476 1.07176 1.04895 1.60383 1.58103 0.615689-0.600487 1.23138-1.18577 1.85467-1.77106zm3.80815-4.38583c-0.532077 0.334448-1.03375 0.668897-1.54302 1.02615 0.562482 0.425662 1.10976 0.851323 1.66464 1.28459 0.509274-0.402858 1.01095-0.782913 1.52782-1.17057-0.547279-0.395257-1.07936-0.767711-1.64184-1.14016zm1.91548-0.942536c-0.418061 0.174825-0.790514 0.34205-1.19337 0.539678 0.547279 0.349651 1.05655 0.6917 1.59623 1.07176 0.387656-0.250836 0.752509-0.471268 1.14777-0.6917-0.516874-0.326847-1.01095-0.615689-1.55062-0.912132zm-4.19581 1.45181c0.509273-0.334448 0.995744-0.653695 1.51262-0.96534-0.463667-0.250836-0.889329-0.456066-1.3758-0.676498-0.524476 0.258437-0.995745 0.516875-1.49742 0.805717 0.463667 0.27364 0.904531 0.547279 1.353 0.843722zm-6.49134 1.34539c-0.577684 0.501673-1.12496 1.00335-1.67984 1.52782 0.410459 0.402858 0.820919 0.805717 1.23138 1.20097 0.585285-0.55488 1.16297-1.09456 1.76346-1.64184-0.433263-0.364853-0.866526-0.729706-1.31499-1.08696zm-3.34448-1.70265c0.357252 0.440864 0.722104 0.874126 1.08696 1.31499 0.539678-0.600487 1.07936-1.17817 1.64184-1.76346-0.402858-0.410459-0.798116-0.820919-1.20097-1.23138-0.524476 0.55488-1.01855 1.10976-1.52782 1.67984zm-1.26178 9.07571c-0.296443-0.456066-0.570082-0.89693-0.843722-1.353-0.288842 0.501673-0.539678 0.96534-0.805717 1.49742 0.220432 0.48647 0.433263 0.912132 0.676498 1.3758 0.311645-0.516875 0.630891-1.00334 0.96534-1.51262zm-0.41806-6.46854c-0.349651 0.509274-0.668897 0.995744-0.995744 1.52782 0.121618 0.34205 0.235634 0.615689 0.387656 0.934935 0.380055-0.547279 0.744908-1.06415 1.14777-1.59623-0.197629-0.296443-0.364853-0.562481-0.539678-0.866525z"
         stroke-width=".782632"
         id="path8" />
      <g
         aria-label="GHFDB"
         id="text12"
         style="font-size:17.2887px;font-family:'Segoe UI';text-align:center;text-anchor:middle;fill:#354b9b;stroke-width:2.00972;stroke-linecap:square;stroke-linejoin:bevel">
        <path
           d="m 43.77335,15.881359 q -1.823417,1.029894 -4.052039,1.029894 -2.591617,0 -4.195549,-1.671467 -1.59549,-1.671466 -1.59549,-4.423476 0,-2.8111017 1.772767,-4.609194 1.781209,-1.8065341 4.507893,-1.8065341 1.975369,0 3.317607,0.6415728 v 1.5701652 q -1.468864,-0.9285923 -3.478,-0.9285923 -2.034461,0 -3.33449,1.4013302 -1.30003,1.4013301 -1.30003,3.6299512 0,2.296156 1.20717,3.613069 1.20717,1.308471 3.275399,1.308471 1.418213,0 2.456548,-0.565598 v -3.393582 h -2.650708 v -1.283146 h 4.068922 z"
           id="path564" />
        <path
           d="m 55.684656,16.708651 h -1.418213 v -5.520904 h -6.263777 v 5.520904 H 46.584452 V 4.6031838 h 1.418214 v 5.3098596 h 6.263777 V 4.6031838 h 1.418213 z"
           id="path566" />
        <path
           d="m 65.004345,5.8863295 h -4.727379 v 4.1871075 h 4.372826 v 1.274704 h -4.372826 v 5.36051 H 58.858753 V 4.6031838 h 6.145592 z"
           id="path568" />
        <path
           d="M 67.300502,16.708651 V 4.6031838 h 3.342932 q 6.398845,0 6.398845,5.9007822 0,2.80266 -1.781208,4.507893 -1.772768,1.696792 -4.752705,1.696792 z M 68.718716,5.8863295 v 9.5391755 h 1.806534 q 2.380573,0 3.705927,-1.274704 1.325355,-1.274704 1.325355,-3.613068 0,-4.6514035 -4.946865,-4.6514035 z"
           id="path570" />
        <path
           d="M 79.422851,16.708651 V 4.6031838 h 3.444233 q 1.570165,0 2.490316,0.7681991 0.92015,0.7681991 0.92015,2.0006943 0,1.0298933 -0.557155,1.7896506 -0.557155,0.7597573 -1.536398,1.0805442 v 0.03377 q 1.224053,0.143509 1.958485,0.928592 0.734432,0.776641 0.734432,2.026019 0,1.553282 -1.11431,2.515641 -1.114311,0.96236 -2.811102,0.96236 z M 80.841065,5.8863295 v 3.9085294 h 1.45198 q 1.164961,0 1.83186,-0.5571554 0.666898,-0.5655971 0.666898,-1.5870486 0,-1.7643254 -2.321481,-1.7643254 z m 0,5.1832335 v 4.355942 h 1.924718 q 1.249379,0 1.93316,-0.590922 0.692224,-0.590923 0.692224,-1.620816 0,-2.144204 -2.920845,-2.144204 z"
           id="path572" />
      </g>
      <g
         aria-label="RESEARCH DATA PORTAL"
         id="text16"
         style="font-weight:bold;font-size:4.85361px;font-family:Consolas;text-align:center;letter-spacing:0px;word-spacing:-1.4582px;text-anchor:middle;fill:#699bd1;stroke-width:2.00972;stroke-linecap:square;stroke-linejoin:bevel">
        <path
           d="m 36.57743,22.401575 -0.436066,-0.995369 q -0.06162,-0.142196 -0.173005,-0.213294 -0.109017,-0.07347 -0.258322,-0.07347 H 35.59865 v 1.28213 h -0.583002 v -3.097494 h 0.902942 q 0.255952,0 0.464506,0.04503 0.208554,0.04266 0.355489,0.144566 0.146936,0.101907 0.225143,0.265432 0.08058,0.163525 0.08058,0.400517 0,0.170635 -0.04977,0.303351 -0.04977,0.132716 -0.139826,0.229883 -0.09006,0.0948 -0.215663,0.154045 -0.123236,0.05925 -0.270172,0.08295 0.113757,0.0237 0.208554,0.130346 0.0948,0.104276 0.189594,0.30335 l 0.495315,1.038028 z m -0.144565,-2.185072 q 0,-0.227513 -0.144566,-0.32705 -0.144566,-0.09954 -0.433697,-0.09954 H 35.59865 v 0.874503 h 0.236993 q 0.135086,0 0.244102,-0.02844 0.111387,-0.02844 0.189595,-0.08532 0.07821,-0.05688 0.120866,-0.139825 0.04266,-0.08532 0.04266,-0.194334 z"
           id="path632" />
        <path
           d="m 37.814532,22.401575 v -3.097494 h 1.865132 v 0.492945 h -1.27265 v 0.770226 h 1.213402 v 0.481095 h -1.213402 v 0.860283 h 1.27265 v 0.492945 z"
           id="path634" />
        <path
           d="m 42.464328,21.465454 q 0,0.253582 -0.0948,0.440806 -0.09243,0.187225 -0.260692,0.310461 -0.168265,0.120866 -0.400517,0.180114 -0.232253,0.05925 -0.507165,0.05925 -0.244102,0 -0.471615,-0.02844 -0.227513,-0.02844 -0.450286,-0.0948 v -0.575892 q 0.109016,0.03792 0.227513,0.0711 0.118496,0.03318 0.236992,0.05925 0.120867,0.0237 0.239363,0.03792 0.118496,0.01422 0.229883,0.01422 0.165895,0 0.282021,-0.02844 0.116127,-0.02844 0.189594,-0.07821 0.07347,-0.04977 0.106647,-0.118497 0.03318,-0.06873 0.03318,-0.151675 0,-0.113756 -0.06636,-0.189594 -0.06399,-0.07821 -0.170635,-0.137456 -0.106646,-0.05925 -0.244102,-0.106647 -0.135086,-0.0474 -0.277282,-0.101906 -0.139825,-0.05451 -0.277281,-0.123237 -0.135086,-0.06873 -0.241732,-0.170634 -0.106647,-0.101907 -0.173005,-0.241733 -0.06399,-0.142196 -0.06399,-0.341269 0,-0.182485 0.06636,-0.34601 0.06636,-0.163525 0.208553,-0.284391 0.142196,-0.123236 0.364969,-0.194334 0.222773,-0.07347 0.537973,-0.07347 0.09243,0 0.191965,0.0095 0.101906,0.0071 0.199073,0.02133 0.09954,0.01185 0.189595,0.03081 0.09243,0.01659 0.168264,0.03555 v 0.533234 q -0.07584,-0.02844 -0.165895,-0.05214 -0.09006,-0.0237 -0.187224,-0.04029 -0.0948,-0.01896 -0.191964,-0.02844 -0.09717,-0.0095 -0.184854,-0.0095 -0.154045,0 -0.260692,0.02607 -0.106647,0.0237 -0.175375,0.06873 -0.06873,0.04266 -0.09954,0.106647 -0.03081,0.06399 -0.03081,0.142195 0,0.09717 0.06399,0.168265 0.06636,0.06873 0.173005,0.125606 0.109017,0.05451 0.244103,0.104277 0.137455,0.0474 0.279651,0.104277 0.144565,0.05451 0.279651,0.125606 0.137456,0.0711 0.244103,0.173005 0.109016,0.101906 0.173004,0.241732 0.06636,0.137456 0.06636,0.32705 z"
           id="path636" />
        <path
           d="m 43.151608,22.401575 v -3.097494 h 1.865132 v 0.492945 h -1.272651 v 0.770226 h 1.213403 v 0.481095 h -1.213403 v 0.860283 h 1.272651 v 0.492945 z"
           id="path638" />
        <path
           d="m 47.398516,22.401575 -0.170635,-0.611441 h -1.080686 l -0.175375,0.611441 h -0.578262 l 0.917162,-3.097494 h 0.815254 l 0.917162,3.097494 z m -0.703868,-2.528712 -0.407628,1.440916 h 0.810515 z"
           id="path640" />
        <path
           d="m 49.920118,22.401575 -0.436067,-0.995369 q -0.06162,-0.142196 -0.173005,-0.213294 -0.109016,-0.07347 -0.258322,-0.07347 h -0.111386 v 1.28213 h -0.583002 v -3.097494 h 0.902942 q 0.255952,0 0.464506,0.04503 0.208553,0.04266 0.355489,0.144566 0.146935,0.101907 0.225143,0.265432 0.08058,0.163525 0.08058,0.400517 0,0.170635 -0.04977,0.303351 -0.04977,0.132716 -0.139826,0.229883 -0.09006,0.0948 -0.215663,0.154045 -0.123236,0.05925 -0.270172,0.08295 0.113757,0.0237 0.208554,0.130346 0.0948,0.104276 0.189594,0.30335 l 0.495314,1.038028 z m -0.144566,-2.185072 q 0,-0.227513 -0.144565,-0.32705 -0.144566,-0.09954 -0.433697,-0.09954 h -0.255952 v 0.874503 h 0.236993 q 0.135085,0 0.244102,-0.02844 0.111387,-0.02844 0.189594,-0.08532 0.07821,-0.05688 0.120866,-0.139825 0.04266,-0.08532 0.04266,-0.194334 z"
           id="path642" />
        <path
           d="m 53.100561,22.280709 q -0.206184,0.08295 -0.400518,0.123236 -0.191964,0.04029 -0.400517,0.04029 -0.33416,0 -0.592482,-0.09717 -0.255952,-0.09954 -0.433697,-0.293871 -0.175374,-0.194334 -0.267801,-0.481095 -0.09006,-0.289131 -0.09006,-0.67069 0,-0.391037 0.09954,-0.694388 0.09954,-0.305721 0.284392,-0.514274 0.184854,-0.210924 0.447916,-0.31994 0.265431,-0.111387 0.594851,-0.111387 0.106647,0 0.199074,0.0047 0.0948,0.0047 0.184854,0.01896 0.09006,0.01185 0.182485,0.03318 0.09243,0.02133 0.191964,0.05451 v 0.578262 q -0.201444,-0.0948 -0.383928,-0.135086 -0.182485,-0.04029 -0.33179,-0.04029 -0.220403,0 -0.376818,0.08058 -0.156416,0.07821 -0.258322,0.222773 -0.09954,0.142195 -0.146936,0.341269 -0.0474,0.196704 -0.0474,0.433697 0,0.251212 0.0474,0.450286 0.04977,0.196704 0.151675,0.33416 0.101907,0.137455 0.260692,0.210923 0.158786,0.0711 0.376819,0.0711 0.07821,0 0.168265,-0.01422 0.09243,-0.01659 0.184854,-0.04029 0.0948,-0.02607 0.184854,-0.05925 0.09243,-0.03555 0.170635,-0.0711 z"
           id="path644" />
        <path
           d="m 55.250084,22.401575 v -1.348488 h -1.052247 v 1.348488 h -0.583002 v -3.097494 h 0.583002 v 1.244211 h 1.052247 v -1.244211 h 0.583002 v 3.097494 z"
           id="path646" />
        <path
           d="m 59.811499,20.813724 q 0,0.360229 -0.09006,0.6541 -0.08769,0.293871 -0.277281,0.502424 -0.187224,0.206184 -0.481095,0.319941 -0.293871,0.111386 -0.703868,0.111386 h -0.786816 v -3.097494 h 0.917162 q 0.355489,0 0.62092,0.09006 0.267802,0.08769 0.445547,0.272542 0.177744,0.184854 0.265431,0.469245 0.09006,0.284391 0.09006,0.677799 z m -0.625661,0.03792 q 0,-0.251212 -0.04029,-0.447916 -0.04029,-0.196704 -0.137455,-0.33179 -0.0948,-0.137456 -0.255953,-0.208553 -0.161155,-0.0711 -0.400517,-0.0711 h -0.296241 v 2.121084 h 0.255952 q 0.428957,0 0.65173,-0.255952 0.222773,-0.255952 0.222773,-0.805775 z"
           id="path648" />
        <path
           d="m 61.951542,22.401575 -0.170635,-0.611441 h -1.080686 l -0.175375,0.611441 h -0.578262 l 0.917162,-3.097494 h 0.815255 l 0.917161,3.097494 z m -0.703868,-2.528712 -0.407627,1.440916 h 0.810514 z"
           id="path650" />
        <path
           d="m 64.238521,19.789916 v 2.611659 H 63.6413 v -2.611659 h -0.848434 v -0.485835 h 2.294089 v 0.485835 z"
           id="path652" />
        <path
           d="m 67.288616,22.401575 -0.170634,-0.611441 h -1.080687 l -0.175374,0.611441 h -0.578263 l 0.917162,-3.097494 h 0.815255 l 0.917162,3.097494 z m -0.703868,-2.528712 -0.407627,1.440916 h 0.810515 z"
           id="path654" />
        <path
           d="m 71.622518,20.28997 q 0,0.241733 -0.08058,0.447916 -0.08058,0.203814 -0.239363,0.35312 -0.158785,0.149305 -0.395778,0.232252 -0.236992,0.08295 -0.549823,0.08295 h -0.296241 v 0.995369 h -0.587741 v -3.097494 h 0.907681 q 0.300981,0 0.530864,0.06636 0.232253,0.06399 0.388668,0.189594 0.158785,0.125606 0.239363,0.31046 0.08295,0.182485 0.08295,0.419477 z m -0.611441,0.04029 q 0,-0.123236 -0.04029,-0.222773 -0.03792,-0.101907 -0.118496,-0.173005 -0.07821,-0.0711 -0.199074,-0.109016 -0.120866,-0.03792 -0.286761,-0.03792 h -0.305721 v 1.135195 h 0.32468 q 0.151676,0 0.267802,-0.04029 0.116126,-0.04266 0.194334,-0.120866 0.08058,-0.07821 0.120866,-0.187224 0.04266,-0.109017 0.04266,-0.244103 z"
           id="path656" />
        <path
           d="m 74.402442,20.839793 q 0,0.421847 -0.09954,0.727568 -0.09717,0.30572 -0.270172,0.502424 -0.170634,0.196704 -0.402887,0.291501 -0.229883,0.0948 -0.492945,0.0948 -0.611441,0 -0.919532,-0.405257 -0.30809,-0.407627 -0.30809,-1.182594 0,-0.421847 0.09717,-0.727567 0.09954,-0.305721 0.270172,-0.502425 0.173004,-0.196703 0.402887,-0.291501 0.232253,-0.0948 0.495315,-0.0948 0.611441,0 0.919531,0.405258 0.308091,0.405257 0.308091,1.182593 z m -0.616181,0.02844 q 0,-0.549823 -0.146936,-0.819994 -0.146935,-0.270172 -0.483465,-0.270172 -0.168264,0 -0.286761,0.0711 -0.118496,0.06873 -0.196704,0.203814 -0.07584,0.135085 -0.111386,0.334159 -0.03555,0.196704 -0.03555,0.452656 0,0.549823 0.146935,0.819995 0.149306,0.270172 0.483465,0.270172 0.168265,0 0.286761,-0.06873 0.120867,-0.0711 0.196704,-0.206184 0.07584,-0.135086 0.111387,-0.33179 0.03555,-0.199073 0.03555,-0.455026 z"
           id="path658" />
        <path
           d="m 76.357631,22.401575 -0.436067,-0.995369 q -0.06162,-0.142196 -0.173004,-0.213294 -0.109017,-0.07347 -0.258322,-0.07347 h -0.111387 v 1.28213 h -0.583002 v -3.097494 h 0.902942 q 0.255952,0 0.464506,0.04503 0.208554,0.04266 0.355489,0.144566 0.146935,0.101907 0.225143,0.265432 0.08058,0.163525 0.08058,0.400517 0,0.170635 -0.04977,0.303351 -0.04977,0.132716 -0.139826,0.229883 -0.09006,0.0948 -0.215663,0.154045 -0.123236,0.05925 -0.270172,0.08295 0.113757,0.0237 0.208554,0.130346 0.0948,0.104276 0.189594,0.30335 l 0.495315,1.038028 z m -0.144566,-2.185072 q 0,-0.227513 -0.144565,-0.32705 -0.144566,-0.09954 -0.433697,-0.09954 h -0.255952 v 0.874503 h 0.236993 q 0.135086,0 0.244102,-0.02844 0.111387,-0.02844 0.189595,-0.08532 0.07821,-0.05688 0.120866,-0.139825 0.04266,-0.08532 0.04266,-0.194334 z"
           id="path660" />
        <path
           d="m 78.791545,19.789916 v 2.611659 H 78.194324 V 19.789916 H 77.34589 v -0.485835 h 2.294089 v 0.485835 z"
           id="path662" />
        <path
           d="M 81.841645,22.401575 81.67101,21.790134 h -1.080687 l -0.175374,0.611441 h -0.578262 l 0.917161,-3.097494 h 0.815255 l 0.917162,3.097494 z m -0.703869,-2.528712 -0.407627,1.440916 h 0.810515 z"
           id="path664" />
        <path
           d="m 82.96262,22.401575 v -3.097494 h 0.592481 v 2.59744 h 1.3082 v 0.500054 z"
           id="path666" />
      </g>
    </g>
  </g>
</svg>
