<svg width="600" height="190.98" version="1.1" viewBox="0 0 600 190.98" xmlns="http://www.w3.org/2000/svg"><defs><style>.cls-1,.cls-2{fill:#fff;}.cls-3{fill:#699bd1;}.cls-4,.cls-5{fill:#354b9b;}.cls-6{fill:#3b95d2;}.cls-6,.cls-7{opacity:.66;}.cls-6,.cls-7,.cls-5,.cls-2{fill-rule:evenodd;}.cls-7{fill:#c1e5fb;}</style></defs><path class="cls-6" d="m49.2331 11.9447c-2.90882 3.14726-5.57922 6.19914-8.34497 9.48945 1.19214 1.90743 2.38428 3.57642 3.6718 5.38848 3.0042-3.48105 6.0084-6.77139 9.15564-10.157-1.52594-1.57362-3.00419-3.14726-4.48245-4.76857zm156.886 111.108c-2.38428 3.43337-4.67319 6.67597-7.20055 10.014 1.23982 1.85974 2.28891 3.52874 3.38568 5.43616 2.19354-3.19493 4.19633-6.24682 6.24682-9.58481-0.76297-2.14585-1.47826-3.86253-2.43197-5.86533zm2.76577 10.9677c-1.52594 2.62272-3.33799 5.24542-5.05468 7.58205 0.14304 0.3815 0.28614 0.85835 0.38149 1.3352 1.71669-2.76577 3.29031-5.62691 4.62551-8.48807v-0.42917zm-8.48807 12.1598c-2.28891 2.95651-5.19774 6.10376-7.67741 8.77415 0.38149 0.42917 0.81066 0.95371 1.19214 1.38288 2.47966-2.6704 4.81626-5.43617 6.86674-8.24962 0-0.6676-0.19071-1.28751-0.38149-1.90742zm-10.3001 13.9719c-0.47685-0.38149-0.95371-0.76297-1.38287-1.19214-2.6704 2.52734-5.81766 5.43617-8.77415 7.72509 0.57221 0.23845 1.19215 0.42917 1.71669 0.42917h0.0477c2.9565-2.14585 5.72227-4.43477 8.39265-6.91443zm23.6044-50.5945c-1.43057 2.95651-2.86114 5.72228-4.48244 8.67878 0.85833 2.0028 1.47825 3.62412 2.05048 5.48385 1.28751-2.81345 2.33659-5.38848 3.43336-8.44033-0.28613-2.28891-0.52453-3.81485-1.04908-5.72228zm-0.42917-25.178c-0.90603 2.38428-1.81205 4.57783-2.95651 7.00978 1.38289 2.76576 2.57503 5.29311 3.76717 8.01116 0.76297-2.38428 1.3352-4.43476 1.90743-7.10514-0.85835-2.90883-1.669-5.29311-2.71809-7.96348zm-88.1229 92.1762c-2.43197 1.14446-4.6255 2.05049-7.00978 2.95651 2.67039 1.04909 5.05468 1.85974 7.96348 2.71808 2.6704-0.57221 4.72088-1.14445 7.10514-1.90742-2.76577-1.19214-5.24542-2.38429-8.01116-3.76717zm78.5859-115.638c0.71529-1.71669 1.3352-3.43337 1.81205-5.29311-1.85974-3.24262-3.9579-6.34222-6.24682-9.29867-0.85834 1.71669-2.05048 3.43337-3.14725 4.95931 2.62271 3.14726 5.10236 6.34222 7.53431 9.63249zm3.24262 4.72088c1.81206 2.86114 3.43337 5.72228 5.05468 8.72647 0.14303-1.47826 0.19078-2.95651 0.14303-4.29171-1.09674-3.09957-2.33657-6.10376-3.76714-9.06028-0.33381 1.57362-0.81066 3.09957-1.43057 4.57782zm-14.7349-18.7404c1.28751-1.57362 2.47965-3.05188 3.52873-4.81625-1.19214-1.38288-2.47965-2.71808-3.76717-4.00559-1.2875-1.28752-2.6227-2.57502-4.00559-3.76717-1.76437 1.04908-3.24262 2.24123-4.81625 3.52874 1.52594 1.47826 3.09957 2.95651 4.62551 4.48245 1.52594 1.52594 3.0042 3.05188 4.48245 4.62551zm-34.8105 130.611c-1.85974-0.61988-3.52874-1.23982-5.48386-2.05048-2.9565 1.62131-5.72227 3.05188-8.67878 4.48245 1.90742 0.47685 3.43336 0.76297 5.72228 1.04909 3.05188-1.09677 5.6269-2.19354 8.44039-3.43337zm-81.6379-15.4502c1.76437-1.04908 3.24262-2.24123 4.81625-3.52874-1.52594-1.47826-3.09957-2.95651-4.62551-4.48245-1.52594-1.52594-3.00419-3.05188-4.48245-4.62551-1.28752 1.57363-2.47965 3.05188-3.52874 4.81625 1.19214 1.38288 2.47965 2.71808 3.76717 4.0056 1.28752 1.28751 2.62271 2.57502 4.00559 3.76716zm7.82044-6.05608c2.19354-1.90743 4.38708-3.86254 6.53293-5.81765-1.71669-1.669-3.48105-3.38568-5.19774-5.05468-1.71669-1.71668-3.38568-3.43337-5.05468-5.19774-1.95511 2.14586-3.91022 4.3394-5.81765 6.53293 1.57362 1.62132 3.09957 3.24263 4.72088 4.86394 1.57362 1.57363 3.24262 3.14725 4.86394 4.72088zm-0.238431-19.9326c1.71669 1.81206 3.48105 3.57643 5.24542 5.3408s3.57642 3.52874 5.3408 5.24542c3.05188-2.86113 6.10376-5.72227 9.15564-8.6311-1.85975-1.85974-3.76717-3.6718-5.62691-5.53154s-3.67179-3.71948-5.53153-5.6269c-2.86114 3.05187-5.76997 6.10376-8.63111 9.15563zm23.509-24.6058-10.6339 10.9677c1.85974 1.90743 3.76717 3.81486 5.6746 5.72228 1.90742 1.90743 3.81485 3.76717 5.72227 5.6746l10.9677-10.6339c-1.95512-1.95512-3.91023-3.86254-5.86534-5.81765s-3.91022-3.91023-5.81765-5.86534zm28.4684-4.81625c-2.0028-2.0028-4.0056-3.95791-5.96071-5.96071l-5.9607-5.9607c-3.91023 3.95791-7.82045 7.9158-11.7307 11.8737 1.95511 1.95511 3.91022 3.95791 5.91302 5.91302 1.95512 1.95511 3.95791 3.91022 5.91303 5.91302l11.8737-11.7307zm36.3842-37.1948c2.86114-3.05188 5.76997-6.10376 8.63111-9.15564-1.71668-1.81206-3.48105-3.57642-5.24542-5.34079s-3.57642-3.48105-5.34079-5.24542c-3.05188 2.86114-6.10377 5.72228-9.15564 8.63111 1.85974 1.85974 3.76717 3.6718 5.6269 5.53154 1.85974 1.85974 3.6718 3.71948 5.53154 5.62691zm17.9298-19.5511c-1.57363-1.62131-3.09957-3.24263-4.72088-4.86394-1.57364-1.57362-3.24263-3.14726-4.86395-4.72088-2.19353 1.90743-4.38707 3.86254-6.53293 5.81765 1.71668 1.669 3.48106 3.38568 5.19774 5.05468 1.71668 1.71669 3.38568 3.43336 5.05468 5.19774 1.95511-2.14586 3.91022-4.33939 5.81764-6.53293zm12.1122 14.6872c-2.6704-3.52874-5.29311-6.81907-8.10658-10.2048-1.81206 2.24123-3.6718 4.48245-5.57923 6.72371 3.09957 3.57642 6.0084 7.05746 8.96493 10.7293 1.62131-2.38428 3.14725-4.76857 4.67319-7.20056zm-17.1192 0.381486c-2.76576 3.14726-5.53153 6.19914-8.39265 9.29867 3.43337 3.76717 6.77139 7.48663 10.0617 11.3492 2.57502-3.19494 5.10236-6.38989 7.62973-9.63249-3.09957-3.71948-6.15145-7.34359-9.34641-11.0154zm-32.9031 57.9858c-3.81485-3.81485-7.67741-7.62973-11.4922-11.3968-3.95791 3.91022-7.9158 7.77277-11.8737 11.683 3.86254 3.71948 7.72509 7.39127 11.6353 11.0631 3.95792-3.76717 7.82045-7.48663 11.7307-11.3015zm-16.6423 15.8794c-3.86254-3.62411-7.72509-7.24824-11.5876-10.92-3.6718 3.52874-7.3436 7.00978-11.0154 10.4908 3.81485 3.48105 7.58205 6.91442 11.4445 10.3478 3.76717-3.29031 7.43895-6.58061 11.1585-9.91862zm-15.8316 13.8288c-3.81486-3.33799-7.58206-6.67596-11.3492-10.0617-3.09956 2.86114-6.15145 5.62691-9.29867 8.39266 3.6241 3.19493 7.24823 6.24682 11.0154 9.34641 3.24262-2.52734 6.43757-5.05467 9.63249-7.62973zm-24.5104 1.71669c-2.24123 1.85974-4.43477 3.71948-6.72371 5.57922 3.38568 2.81345 6.72371 5.43617 10.2048 8.10658 2.47966-1.52594 4.81625-3.09957 7.20056-4.67319-3.67179-2.95652-7.15281-5.91303-10.7293-8.96492zm4.57782 18.8358c-1.47825 0.61988-3.00419 1.09677-4.57782 1.43056 2.95651 1.43057 5.91302 2.6704 8.96493 3.76717 1.38288 0 2.90882 0 4.38708-0.14303-3.0042-1.57363-5.86534-3.24263-8.72646-5.05469zm-14.3534-10.8246c-1.52594 1.09677-3.24263 2.28891-4.95931 3.14725 2.95651 2.28891 6.05608 4.38708 9.29867 6.24682 1.85974-0.47685 3.57643-1.09677 5.29311-1.81206-3.29031-2.43196-6.48525-4.91162-9.63249-7.53431zm18.0729 8.96492c3.24263 2.05049 6.34221 3.86254 9.72785 5.72228 2.62271-1.09677 4.95931-2.14585 7.48663-3.38568-3.43337-2.19354-6.62829-4.33939-10.014-6.72371-2.43196 1.57363-4.72088 2.95651-7.20055 4.3394zm21.7446-0.19071c3.33799-2.09817 6.48525-4.19634 9.68016-6.43757-3.52874-2.6704-6.9621-5.3408-10.3955-8.05884-3.19494 2.52733-6.34221 4.91162-9.58481 7.34359 3.43337 2.47965 6.77139 4.81625 10.3001 7.15282zm25.5118-18.8836c-3.52873-3.00419-6.9621-6.00839-10.4432-9.10796-3.6718 3.29031-7.3436 6.48525-11.1108 9.68017 3.48105 2.86114 6.9621 5.6269 10.4908 8.34497 3.76717-2.95651 7.39127-5.86533 11.0154-8.91724zm16.1177-14.8302c-3.38568-3.29031-6.72371-6.58061-10.0617-9.91863-3.86254 3.76717-7.72509 7.43896-11.6353 11.1108 3.43337 3.14725 6.91442 6.24682 10.3955 9.34642 3.81486-3.48105 7.53431-7.00978 11.3015-10.5862zm4.72088-4.72088c3.57642-3.71948 7.05746-7.48663 10.5862-11.3015-3.09957-3.48106-6.19914-6.9621-9.34642-10.3955-3.67179 3.91022-7.39127 7.77276-11.1108 11.6353 3.338 3.33799 6.62829 6.67596 9.91863 10.0617zm15.3548-37.6717c-3.19494 3.76717-6.38989 7.43896-9.68016 11.1108 3.09956 3.43337 6.10376 6.91443 9.10796 10.4432 3.05188-3.6718 5.9607-7.29592 8.91718-11.0154-2.76576-3.57642-5.53153-7.00978-8.34498-10.4908zm18.3113-3.95791c-2.3366-3.52874-4.67319-6.86674-7.15282-10.3001-2.43196 3.24263-4.81625 6.38989-7.34359 9.58481 2.71808 3.48105 5.38848 6.91442 8.0589 10.3955 2.24123-3.24262 4.33939-6.34221 6.43757-9.68016zm5.91302-12.0168c-1.85974-3.38568-3.71948-6.48525-5.72227-9.72785-1.38289 2.47966-2.76577 4.76857-4.3394 7.20056 2.3366 3.338 4.53014 6.58061 6.72371 10.014 1.23982-2.52734 2.28891-4.86394 3.38568-7.48663zm1.19214 25.4642c-1.38288-3.05188-2.71807-5.72228-4.24402-8.63111-1.95511 3.24263-3.95791 6.29447-6.05607 9.48945 1.85974 2.86114 3.57642 5.62691 5.2931 8.48808 1.81206-3.14726 3.38568-6.05608 5.05468-9.3941zm-13.7812 5.67457c-2.81346 3.6718-5.6746 7.20056-8.58343 10.777 2.24122 2.76577 4.38708 5.53154 6.53293 8.34498 2.6704-3.48105 5.15005-6.91442 7.6774-10.4908-1.85974-3.0042-3.67179-5.76997-5.6269-8.63111zm-5.91302 23.8428c-2.24123-2.76576-4.53014-5.48384-6.81907-8.24961-3.38568 3.76717-6.77138 7.39127-10.3001 11.0631 2.52733 2.57502 5.00699 5.15005 7.53431 7.72509 3.29031-3.48105 6.38989-6.9621 9.5848-10.5385zm-24.5581 24.5581c3.62412-3.14726 7.05746-6.29454 10.5385-9.53713-2.57502-2.52735-5.15005-5.05468-7.72508-7.53431-3.67179 3.48105-7.29592 6.86674-11.0631 10.3001 2.71808 2.28892 5.43616 4.57783 8.24961 6.81907zm-4.72087 3.86254c-2.81345-2.14586-5.57922-4.29171-8.34497-6.53293-3.57642 2.90882-7.10514 5.76996-10.777 8.58343 2.90883 1.95511 5.67459 3.76716 8.63111 5.6269 3.57642-2.52733 7.00978-5.00699 10.4908-7.6774zm-15.4025 10.777c-2.90883-1.71668-5.6746-3.43336-8.53576-5.29311-3.19493 2.09818-6.24682 4.10097-9.48945 6.05608 2.90883 1.57363 5.57923 2.86114 8.63111 4.24403 3.29031-1.62132 6.24682-3.24263 9.3941-5.05468zm24.6058-4.72088c-1.85974-1.09677-3.57643-2.14585-5.43616-3.38568-3.33801 2.52734-6.58061 4.86394-10.014 7.20056 2.00281 0.90603 3.71949 1.669 5.86534 2.43197 3.338-2.05048 6.3899-4.05328 9.58481-6.24682zm14.1149-11.826c-1.57363-1.47826-3.19494-3.0042-4.76856-4.48246-3.38569 3.14726-6.67603 6.15145-10.1571 9.15564 1.81205 1.28751 3.48105 2.47966 5.38847 3.6718 3.29031-2.76577 6.34222-5.43617 9.48946-8.34498zm12.446-13.6381c-1.19215-1.90743-2.38428-3.57642-3.6718-5.38848-3.00419 3.48105-6.00839 6.77139-9.15564 10.157 1.52594 1.57362 3.0042 3.14725 4.48245 4.76856 2.90883-3.14725 5.57923-6.19913 8.34498-9.48945zm-23.4613 26.9424c-2.38429 1.71668-5.007 3.52874-7.62973 5.05468h0.38149c2.95651-1.38289 5.81765-2.95651 8.58343-4.6732-0.47685-0.0954-0.90603-0.23839-1.3352-0.38149zm-56.7459-159.652c-3.05188 1.09677-5.6269 2.19354-8.44033 3.43337 1.90743 0.619913 3.52874 1.23983 5.48385 2.05048 2.95651-1.62131 5.72228-3.05188 8.67879-4.48245-1.90743-0.476856-3.43337-0.762973-5.72228-1.04908zm27.0854 6.38989c-2.67039-1.04908-5.05467-1.85974-7.96348-2.71808-2.67039 0.572228-4.72087 1.14445-7.10514 1.90743 2.76577 1.19214 5.24543 2.38428 8.01116 3.76717 2.47966-1.14445 4.62551-2.05048 7.00978-2.95651zm-107.817 66.5213c-1.43057-2.76577-2.57502-5.29311-3.76717-8.01116-0.762973 2.38428-1.3352 4.43476-1.90743 7.10514 0.858343 2.90882 1.669 5.29311 2.71808 7.96348 0.906028-2.38428 1.85974-4.57782 2.95651-7.00978zm140.911-49.4023c1.52594-1.09677 3.24261-2.28891 4.9593-3.14726-2.95651-2.28891-6.05608-4.38708-9.29874-6.24682-1.85973 0.476856-3.57642 1.09677-5.2931 1.81206 3.29031 2.43197 6.48525 4.91162 9.63249 7.53431zm-14.3534-10.8246c1.47826-0.619911 3.0042-1.09677 4.57782-1.43057-2.95651-1.43057-5.91302-2.6704-8.96492-3.76717-1.38289 0-2.90883 0-4.38708 0.143055 3.00419 1.57362 5.86533 3.24263 8.72646 5.05468zm-133.425 23.1275c-1.28752 2.81345-2.3366 5.38848-3.43337 8.44033 0.286114 2.28891 0.572228 3.81485 1.04908 5.72228 1.43057-2.95651 2.86114-5.72228 4.48245-8.67879-0.810658-2.0028-1.47826-3.62411-2.05048-5.48385zm137.955-4.29171c2.24123-1.85974 4.43476-3.71948 6.72371-5.57922-3.38568-2.81345-6.72371-5.43616-10.2048-8.10658-2.47966 1.52594-4.81625 3.09957-7.20056 4.6732 3.67179 2.95651 7.15282 5.91302 10.7293 8.96492zm-14.9256-5.91302c-3.24263 2.52734-6.43758 5.05468-9.63249 7.62973 3.81485 3.338 7.58205 6.67597 11.3492 10.0617 3.09957-2.86114 6.15145-5.62691 9.29874-8.39265-3.62411-3.19494-7.24824-6.24682-11.0154-9.34642zm-14.258 11.5876c-3.76717 3.29031-7.43895 6.58061-11.1585 9.91862 3.91023 3.62411 7.72509 7.24824 11.5876 10.92 3.67179-3.52874 7.3436-7.00978 11.0154-10.4908-3.81485-3.48105-7.58205-6.91442-11.4445-10.3478zm32.7601 53.8371c3.338-3.71948 6.62829-7.39127 9.91862-11.1585-3.43336-3.86254-6.81906-7.67741-10.3478-11.4445-3.48106 3.71948-6.9621 7.39127-10.4908 11.0154 3.67179 3.86254 7.29591 7.67741 10.92 11.5876zm-15.5932-6.67597c-3.86254 3.95791-7.77277 7.91581-11.683 11.8737 3.81485 3.81485 7.62973 7.62973 11.3968 11.4922 3.81486-3.91023 7.58206-7.77277 11.3015-11.7307-3.6718-3.91022-7.34359-7.77277-11.0631-11.6353zm-16.6423-16.7854-11.8737 11.7307 11.9691 11.9691c3.91022-3.95791 7.82045-7.91581 11.7307-11.8737zm15.8316-15.4024-10.9677 10.6339 11.683 11.7307 10.6339-10.9677-11.3968-11.3969zm-20.791 10.5385c-3.86254-3.71948-7.72509-7.39127-11.6353-11.063-3.95791 3.76717-7.82045 7.48663-11.7307 11.3015 3.81485 3.81485 7.67741 7.62973 11.4923 11.4445 3.9579-3.91022 7.9158-7.77277 11.8737-11.683zm-28.4684 28.4684c3.86254-3.95791 7.77277-7.9158 11.683-11.8737-3.81485-3.81485-7.62973-7.62973-11.4445-11.4922-3.81485 3.91022-7.53431 7.77277-11.3015 11.7307 3.67179 3.91022 7.3436 7.77277 11.0631 11.6353zm-17.8821-8.82182c-3.338 3.71948-6.62829 7.39128-9.91862 11.1585 3.43337 3.86254 6.81906 7.67741 10.3478 11.4445 3.48105-3.71949 6.9621-7.39128 10.4908-11.0154-3.67179-3.86254-7.29592-7.67741-10.92-11.5876zm-11.5876 17.9775c-2.57502 3.19494-5.10237 6.38989-7.62973 9.63249 3.09957 3.71948 6.15145 7.34359 9.34642 11.0154 2.76577-3.14725 5.53154-6.19914 8.39265-9.29868-3.43337-3.76716-6.77139-7.48663-10.0617-11.3492zm-1.71669 24.5104c-3.09957-3.57642-6.0084-7.05746-8.96492-10.7293-1.62131 2.38428-3.14726 4.76856-4.6732 7.20055 2.6704 3.52875 5.29311 6.81907 8.10658 10.2048 1.85974-2.24123 3.6718-4.48245 5.57922-6.72371zm-21.84-2.95651c-1.81206-2.86114-3.43336-5.76997-5.05468-8.72647-0.143055 1.47826-0.19074 2.95651-0.19074 4.29171 1.09677 3.09957 2.3366 6.10377 3.76717 9.06028 0.333801-1.57362 0.810658-3.14725 1.43057-4.57782zm4.43476 8.39265c1.85974 3.24263 3.95791 6.34222 6.24682 9.29867 0.858343-1.71668 2.05048-3.43336 3.14726-4.9593-2.62271-3.14726-5.10237-6.34222-7.53431-9.63249-0.715281 1.71668-1.3352 3.43337-1.81206 5.29311zm6.48525-28.6591c-2.3366-3.338-4.53013-6.58061-6.72371-10.014-1.23983 2.52734-2.28891 4.86393-3.38568 7.48663 1.85974 3.38568 3.71948 6.48525 5.72228 9.72785 1.38288-2.47966 2.76577-4.76857 4.33939-7.20056zm7.05746-31.0434c-3.05188 3.67179-5.96071 7.29592-8.91724 11.0154 2.76577 3.57642 5.53154 7.00978 8.34497 10.4908 3.19494-3.76717 6.38989-7.43896 9.68017-11.1108-3.09957-3.43337-6.10376-6.91442-9.10796-10.4432zm18.4066-19.4081c-3.57642 3.71948-7.05746 7.48663-10.5862 11.3015 3.09957 3.48105 6.19914 6.9621 9.34642 10.3955 3.6718-3.91023 7.39127-7.77277 11.1108-11.6353-3.33799-3.338-6.62828-6.67597-9.91862-10.0617zm24.7965-8.91724c-3.43336-3.14726-6.91442-6.24682-10.3955-9.34642-3.81485 3.48105-7.53431 7.00978-11.3015 10.5862 3.38569 3.29031 6.72371 6.58061 10.0617 9.91862 3.86254-3.76717 7.72509-7.43895 11.6353-11.1108zm19.9326-9.20332c-3.48106-2.86114-6.96211-5.62691-10.4908-8.34497-3.76716 2.95651-7.39127 5.86533-11.0154 8.91724 3.52874 3.00419 6.96211 6.0084 10.4432 9.10796 3.67179-3.29031 7.34359-6.48525 11.1108-9.68017zm4.00559-18.3113c-3.338 2.09817-6.48525 4.19634-9.68017 6.43757 3.52874 2.6704 6.9621 5.34079 10.4432 8.0589 3.19494-2.52734 6.34222-4.91162 9.58481-7.34359-3.43336-2.47965-6.77138-4.81625-10.3001-7.15282zm12.0168-5.91302c-2.62271 1.09677-4.95931 2.14586-7.48663 3.38568 3.43337 2.19354 6.62829 4.33939 10.014 6.72371 2.43197-1.57362 4.72088-2.95651 7.20056-4.33939-3.24263-2.05048-6.34222-3.86254-9.72785-5.72228zm-26.3225 9.10796c3.19494-2.09817 6.24682-4.10097 9.48945-6.05608-2.90882-1.57362-5.57922-2.86114-8.6311-4.24402-3.29032 1.62131-6.24682 3.24263-9.3941 5.05468 2.90883 1.71669 5.67459 3.43336 8.48807 5.29311zm-22.0308-6.29454c-3.57643 2.52734-7.00978 5.007-10.4908 7.67741 2.81345 2.14586 5.57922 4.29171 8.34497 6.53293 3.57643-2.90882 7.15282-5.76996 10.777-8.58343-2.86114-1.95511-5.62691-3.76717-8.63111-5.62691zm-18.6928 14.7349c-3.62411 3.14726-7.05746 6.29454-10.5385 9.58481 2.57502 2.52734 5.15005 5.05468 7.72509 7.53431 3.6718-3.48105 7.29592-6.86674 11.0631-10.3001-2.71808-2.28891-5.43616-4.57782-8.24962-6.81906zm-20.9817-10.6816c2.24123 2.76577 4.53013 5.48385 6.81906 8.24962 3.38568-3.76717 6.77139-7.39127 10.3001-11.0631-2.52734-2.57502-5.007-5.15005-7.53431-7.72509-3.29031 3.48105-6.38989 6.9621-9.58481 10.5385zm2.3366 31.9494c-2.6704 3.48105-5.15005 6.91442-7.67741 10.4908 1.85974 3.00419 3.6718 5.76996 5.62691 8.63111 2.81346-3.62411 5.67459-7.20056 8.58343-10.777-2.24123-2.76577-4.38708-5.53154-6.53293-8.34497zm-10.2048 24.9873c-1.85974-2.86114-3.57642-5.62691-5.29311-8.48807-1.81206 3.14726-3.38568 6.05608-5.05468 9.39409 1.38288 3.05188 2.71808 5.72228 4.24402 8.63111 1.95511-3.24262 3.95791-6.29447 6.05608-9.48945zm-2.62271-40.5805c-2.19354 3.19494-4.19634 6.24682-6.24682 9.58481 0.762973 2.14586 1.47826 3.86254 2.43197 5.86533 2.38428-3.43336 4.6732-6.67597 7.20056-10.014-1.23983-1.85974-2.28891-3.52874-3.38568-5.43616z" stroke-width=".760106"/><path class="cls-5" d="m206.93 121.479c-2.38429 3.43336-4.6732 6.67596-7.20056 10.014 1.23982 1.85974 2.2889 3.52873 3.38568 5.43616 2.19353-3.19494 4.19634-6.24682 6.24682-9.58481-0.76297-2.14585-1.47826-3.86254-2.43197-5.86533zm2.76577 10.9677c-1.52595 2.6227-3.338 5.24542-5.05469 7.58205 0.14304 0.38149 0.28614 0.85833 0.3815 1.33519 1.71668-2.76576 3.29031-5.6269 4.6255-8.48807v-0.42917zm-8.48808 12.1598c-2.28891 2.9565-5.19773 6.10376-7.67741 8.77414 0.3815 0.42917 0.81066 0.95371 1.19214 1.38288 2.47966-2.67039 4.81625-5.43616 6.86675-8.24961 0-0.6676-0.19078-1.28751-0.3815-1.90743zm-10.3001 13.9719c-0.47685-0.3815-0.95372-0.76298-1.38289-1.19215-2.67039 2.52734-5.81765 5.43616-8.77414 7.72509 0.5722 0.23846 1.19213 0.42917 1.71668 0.42917h0.0477c2.9565-2.14585 5.72227-4.43476 8.39265-6.91442zm23.6044-50.5945c-1.43057 2.95652-2.86114 5.72228-4.48246 8.67879 0.85834 2.00279 1.47826 3.6241 2.05049 5.48385 1.28751-2.81346 2.33659-5.38848 3.43336-8.4404-0.28613-2.2889-0.52452-3.81484-1.04908-5.72228zm-0.42918-25.178c-0.90602 2.38428-1.81205 4.57782-2.9565 7.00978 1.38287 2.76577 2.57502 5.29311 3.76716 8.01116 0.76297-2.38428 1.3352-4.43476 1.90742-7.10514-0.85833-2.90882-1.66899-5.29311-2.71808-7.96348zm-88.1229 92.1762c-2.43196 1.14446-4.62551 2.05048-7.00978 2.95651 2.6704 1.04909 5.05469 1.85974 7.96348 2.71809 2.6704-0.57221 4.72088-1.14446 7.10514-1.90743-2.76577-1.19214-5.24542-2.38428-8.01116-3.76717zm78.5859-115.638c0.71528-1.71669 1.3352-3.43336 1.81206-5.29311-1.85975-3.24263-3.95792-6.34222-6.24682-9.29868-0.85835 1.71669-2.05049 3.43337-3.14726 4.95931 2.62271 3.14726 5.10237 6.34222 7.53431 9.63249zm3.24263 4.72088c1.81205 2.86114 3.43336 5.72228 5.05467 8.72647 0.14304-1.47826 0.19078-2.95651 0.14304-4.29171-1.09675-3.09957-2.33658-6.10376-3.76715-9.06028-0.33381 1.57362-0.81065 3.09957-1.43056 4.57782zm-14.7349-18.7404c1.28751-1.57362 2.47965-3.05188 3.52873-4.81625-1.19213-1.38288-2.47965-2.71808-3.76716-4.00559-1.28751-1.28752-2.62271-2.57502-4.0056-3.76717-1.76437 1.04908-3.24262 2.24123-4.81625 3.52874 1.52594 1.47826 3.09957 2.95651 4.62551 4.48245 1.52594 1.52594 3.0042 3.05188 4.48245 4.62551zm-34.8105 130.611c-1.85974-0.61989-3.52874-1.23983-5.48385-2.05048-2.95651 1.62131-5.72228 3.05187-8.67879 4.48244 1.90743 0.47685 3.43337 0.76298 5.72228 1.04909 3.05188-1.09677 5.62691-2.19354 8.44039-3.43337zm-81.6379-15.4502c1.76437-1.04909 3.24263-2.24122 4.81625-3.52874-1.52594-1.47825-3.09957-2.95651-4.62551-4.48245-1.52594-1.52594-3.00419-3.05188-4.48245-4.62551-1.28751 1.57363-2.47965 3.05188-3.52874 4.81625 1.19214 1.38289 2.47965 2.71809 3.76717 4.0056 1.28751 1.28751 2.62271 2.57502 4.00559 3.76716zm7.82044-6.05608c2.19354-1.90742 4.38708-3.86253 6.53293-5.81765-1.71669-1.669-3.48106-3.38568-5.19774-5.05468-1.71669-1.71668-3.38568-3.43336-5.05468-5.19773-1.95511 2.14585-3.91022 4.33939-5.81765 6.53293 1.57362 1.62131 3.09957 3.24262 4.72088 4.86393 1.57362 1.57363 3.24263 3.14726 4.86394 4.72088zm-0.238432-19.9326c1.71669 1.81205 3.48105 3.57643 5.24542 5.34079 1.76437 1.76437 3.57643 3.52874 5.3408 5.24542 3.05188-2.86114 6.10376-5.72228 9.15564-8.63111-1.85974-1.85974-3.76717-3.67179-5.62691-5.53153-1.85974-1.85974-3.6718-3.71948-5.53154-5.62691-2.86114 3.05188-5.76996 6.10377-8.63111 9.15564zm23.509-24.6058-10.6339 10.9677c1.85974 1.90742 3.76717 3.81485 5.6746 5.72228 1.90742 1.90742 3.81485 3.76716 5.72227 5.67459l10.9677-10.6339c-1.95512-1.95511-3.91023-3.86253-5.86534-5.81765-1.95511-1.95511-3.91022-3.91022-5.81765-5.86533zm28.4684-4.81625c-2.00279-2.0028-4.00559-3.95791-5.9607-5.96071l-5.96071-5.96071c-3.91022 3.95791-7.82044 7.91581-11.7307 11.8737 1.95512 1.95511 3.91023 3.95791 5.91302 5.91302 1.95511 1.95511 3.95792 3.91022 5.91303 5.91302l11.8737-11.7307zm36.3842-37.1948c2.86114-3.05188 5.76997-6.10376 8.6311-9.15564-1.71668-1.81206-3.48105-3.57642-5.24542-5.34079s-3.57642-3.48105-5.34079-5.24542c-3.05188 2.86114-6.10376 5.72228-9.15564 8.63111 1.85974 1.85974 3.76717 3.6718 5.62691 5.53154s3.6718 3.71948 5.53154 5.62691zm17.9298-19.5511c-1.57363-1.62131-3.09957-3.24262-4.72088-4.86394-1.57363-1.57362-3.24262-3.14726-4.86394-4.72088-2.19353 1.90743-4.38708 3.86254-6.53293 5.81765 1.71668 1.669 3.48105 3.38568 5.19773 5.05468 1.71669 1.71669 3.38569 3.43337 5.05469 5.19774 1.95511-2.14586 3.91022-4.33939 5.81764-6.53293zm12.1122 14.6872c-2.6704-3.52874-5.29311-6.81906-8.10658-10.2048-1.81206 2.24123-3.6718 4.48245-5.57922 6.72371 3.09956 3.57642 6.00839 7.05746 8.96492 10.7293 1.62131-2.38428 3.14725-4.76857 4.67319-7.20056zm-17.1192 0.381486c-2.76577 3.14726-5.53154 6.19914-8.39266 9.29867 3.43337 3.76717 6.77139 7.48663 10.0617 11.3492 2.57503-3.19494 5.10237-6.38989 7.62973-9.63249-3.09956-3.71948-6.15145-7.34359-9.34641-11.0154zm-32.9031 57.9858c-3.81485-3.81485-7.67741-7.62973-11.4922-11.3969-3.95791 3.91023-7.9158 7.77277-11.8737 11.683 3.86253 3.71948 7.72508 7.39128 11.6353 11.0631 3.9579-3.76716 7.82044-7.48663 11.7307-11.3015zm-16.6423 15.8793c-3.86254-3.62411-7.72509-7.24823-11.5876-10.92-3.6718 3.52874-7.34359 7.00978-11.0154 10.4908 3.81485 3.48105 7.58205 6.91442 11.4445 10.3478 3.76717-3.29031 7.43895-6.58061 11.1585-9.91863zm-15.8316 13.8288c-3.81485-3.338-7.58205-6.67597-11.3492-10.0617-3.09957 2.86114-6.15145 5.62691-9.29873 8.39265 3.62411 3.19494 7.24823 6.24682 11.0154 9.34642 3.24262-2.52734 6.43757-5.05468 9.63248-7.62973zm-24.5105 1.71668c-2.24122 1.85974-4.43476 3.71948-6.72364 5.57922 3.38568 2.81346 6.72364 5.43617 10.2048 8.10658 2.47965-1.52594 4.81625-3.09956 7.20055-4.67319-3.67179-2.95651-7.15281-5.91302-10.7293-8.96493zm4.57783 18.8359c-1.47826 0.61988-3.0042 1.09676-4.57783 1.43057 2.95651 1.43056 5.91303 2.67039 8.96493 3.76716 1.38288 0 2.90882 0 4.38707-0.14303-3.00419-1.57363-5.86533-3.24263-8.72646-5.05469zm-14.3534-10.8246c-1.52594 1.09678-3.24263 2.28891-4.95931 3.14726 2.95651 2.28891 6.05608 4.38708 9.29867 6.24682 1.85974-0.47685 3.57642-1.09677 5.29311-1.81206-3.29031-2.43197-6.48525-4.91162-9.63249-7.53431zm18.0729 8.96492c3.24261 2.05048 6.34221 3.86254 9.72784 5.72228 2.62272-1.09677 4.95931-2.14585 7.48663-3.38568-3.43336-2.19354-6.62829-4.33939-10.014-6.72371-2.43197 1.57363-4.72088 2.95651-7.20056 4.3394zm21.7446-0.19071c3.338-2.09817 6.48525-4.19634 9.68017-6.43757-3.52874-2.6704-6.9621-5.3408-10.3955-8.05891-3.19494 2.52735-6.34222 4.91163-9.58481 7.3436 3.43336 2.47965 6.77138 4.81625 10.3001 7.15282zm25.5118-18.8836c-3.52875-3.00419-6.9621-6.00839-10.4432-9.10796-3.67179 3.29031-7.34359 6.48525-11.1108 9.68017 3.48106 2.86114 6.96211 5.62691 10.4908 8.34497 3.76716-2.95651 7.39127-5.86534 11.0154-8.91724zm16.1177-14.8302c-3.38568-3.29031-6.72371-6.58061-10.0617-9.91863-3.86255 3.76717-7.72509 7.43896-11.6353 11.1108 3.43336 3.14726 6.91442 6.24683 10.3955 9.34642 3.81485-3.48105 7.53431-7.00978 11.3015-10.5862zm4.72088-4.72088c3.57642-3.71949 7.05746-7.48663 10.5862-11.3015-3.09958-3.48105-6.19914-6.9621-9.34642-10.3955-3.6718 3.91022-7.39127 7.77276-11.1108 11.6353 3.33799 3.33799 6.62829 6.67596 9.91862 10.0617zm15.3548-37.6717c-3.19494 3.76717-6.38989 7.43896-9.68017 11.1108 3.09957 3.43337 6.10377 6.91442 9.10796 10.4432 3.05189-3.67179 5.96071-7.29592 8.91725-11.0154-2.76577-3.57642-5.53154-7.00978-8.34498-10.4908zm18.3113-3.95791c-2.3366-3.52874-4.6732-6.86674-7.15282-10.3001-2.43197 3.24262-4.81625 6.38989-7.34359 9.58481 2.71807 3.48106 5.38847 6.91442 8.0589 10.3955 2.24122-3.24263 4.33939-6.34222 6.43757-9.68017zm5.91302-12.0168c-1.85974-3.38569-3.71948-6.48525-5.72228-9.72785-1.38288 2.47965-2.76577 4.76856-4.3394 7.20056 2.3366 3.338 4.53014 6.58061 6.72371 10.014 1.23982-2.52734 2.28891-4.86394 3.38568-7.48663zm1.19214 25.4642c-1.38289-3.05188-2.71809-5.72228-4.24402-8.63111-1.95512 3.24262-3.95791 6.29448-6.05608 9.48945 1.85974 2.86114 3.57642 5.62691 5.29311 8.48808 1.81205-3.14726 3.38568-6.05608 5.05467-9.3941zm-13.7812 5.67459c-2.81345 3.6718-5.67459 7.20056-8.58343 10.777 2.24123 2.76577 4.38708 5.53154 6.53293 8.34497 2.67039-3.48105 5.15005-6.91442 7.67741-10.4908-1.85974-3.00419-3.6718-5.76996-5.62691-8.63111zm-5.91302 23.8428c-2.24122-2.76577-4.53014-5.48385-6.81906-8.24962-3.38568 3.76717-6.77139 7.39128-10.3001 11.0631 2.52734 2.57502 5.00699 5.15005 7.53431 7.72508 3.29031-3.48105 6.3899-6.9621 9.58481-10.5385zm-24.5581 24.5581c3.62411-3.14725 7.05746-6.29447 10.5385-9.53713-2.57502-2.52733-5.15005-5.05467-7.72509-7.53431-3.67179 3.48105-7.29591 6.86675-11.0631 10.3001 2.71809 2.28891 5.43616 4.57782 8.24962 6.81907zm-4.72088 3.86254c-2.81345-2.14585-5.57922-4.29171-8.34497-6.53293-3.57643 2.90882-7.10514 5.76996-10.777 8.58343 2.90882 1.95511 5.67459 3.76717 8.63111 5.62691 3.57643-2.52734 7.00978-5.007 10.4908-7.67741zm-15.4025 10.777c-2.90882-1.71669-5.67459-3.43337-8.53575-5.29311-3.19494 2.09817-6.24682 4.10097-9.48945 6.05608 2.90883 1.57362 5.57923 2.86114 8.63111 4.24402 3.29031-1.62131 6.24682-3.24262 9.39409-5.05468zm24.6058-4.72088c-1.85974-1.09677-3.57643-2.14585-5.43617-3.38568-3.338 2.52733-6.58061 4.86393-10.014 7.20055 2.00279 0.90603 3.71948 1.66901 5.86534 2.43197 3.33799-2.05048 6.38989-4.05328 9.58481-6.24682zm14.1149-11.826c-1.57362-1.47825-3.19493-3.00419-4.76856-4.48245-3.38568 3.14726-6.67597 6.15145-10.157 9.15564 1.81206 1.28752 3.48105 2.47965 5.38848 3.6718 3.29031-2.76577 6.34221-5.43617 9.48945-8.34497zm12.446-13.6381c-1.19214-1.90742-2.38428-3.57642-3.67179-5.38848-3.0042 3.48106-6.0084 6.77139-9.15564 10.1571 1.52595 1.57363 3.0042 3.14725 4.48245 4.76857 2.90883-3.14726 5.57923-6.19914 8.34498-9.48946zm-23.4613 26.9424c-2.38428 1.71669-5.00699 3.52874-7.62972 5.05468h0.38149c2.95651-1.38288 5.81765-2.95651 8.58343-4.67319-0.47685-0.0954-0.90603-0.2384-1.3352-0.3815zm-56.7459-159.652c-3.05188 1.09677-5.62691 2.19354-8.44039 3.43337 1.90742 0.619914 3.52874 1.23983 5.48385 2.05048 2.95651-1.62131 5.72228-3.05188 8.67879-4.48245-1.90743-0.476856-3.43337-0.762973-5.72228-1.04908zm27.0854 6.38989c-2.6704-1.04908-5.05468-1.85974-7.96348-2.71808-2.67039 0.572228-4.72088 1.14445-7.10514 1.90743 2.76577 1.19214 5.24543 2.38428 8.01116 3.76717 2.47966-1.14445 4.62551-2.05048 7.00978-2.95651zm-107.817 66.5213c-1.43057-2.76576-2.57502-5.29311-3.76717-8.01116-0.762973 2.38428-1.3352 4.43476-1.90743 7.10514 0.858343 2.90883 1.669 5.29311 2.71808 7.96348 0.906028-2.38428 1.85974-4.57782 2.95651-7.00978zm140.911-49.4023c1.52594-1.09677 3.24262-2.28891 4.95931-3.14726-2.95651-2.28891-6.05608-4.38708-9.29874-6.24682-1.85974 0.476857-3.57642 1.09677-5.29311 1.81206 3.29031 2.43197 6.48525 4.91162 9.63249 7.53431zm-14.3534-10.8246c1.47826-0.619912 3.0042-1.09677 4.57783-1.43057-2.95651-1.43057-5.91303-2.6704-8.96493-3.76717-1.38288 0-2.90882 0-4.38708 0.143055 3.0042 1.57362 5.86534 3.24263 8.72647 5.05468zm-133.425 23.1275c-1.28751 2.81345-2.3366 5.38848-3.43336 8.44033 0.286114 2.28891 0.572228 3.81485 1.04908 5.72228 1.43057-2.95651 2.86114-5.72228 4.48245-8.67879-0.810658-2.0028-1.47826-3.62411-2.05048-5.48385zm137.955-4.29171c2.24122-1.85974 4.43476-3.71948 6.72371-5.57922-3.38568-2.81345-6.72371-5.43616-10.2048-8.10658-2.47965 1.52594-4.81625 3.09957-7.20056 4.6732 3.6718 2.95651 7.15282 5.91302 10.7293 8.96492zm-14.9256-5.91302c-3.24262 2.52734-6.43758 5.05468-9.63249 7.62973 3.81485 3.338 7.58205 6.67597 11.3492 10.0617 3.09957-2.86114 6.15145-5.62691 9.29874-8.39265-3.62411-3.19494-7.24824-6.24682-11.0154-9.34642zm-14.258 11.5876c-3.76717 3.29031-7.43895 6.58061-11.1585 9.91862 3.91022 3.62411 7.72509 7.24824 11.5876 10.92 3.6718-3.52874 7.3436-7.00978 11.0154-10.4908-3.81485-3.48105-7.58205-6.91442-11.4445-10.3478zm32.7601 53.8371c3.338-3.71948 6.62829-7.39127 9.91862-11.1585-3.43336-3.86254-6.81906-7.67741-10.3478-11.4445-3.48105 3.71948-6.9621 7.39127-10.4908 11.0154 3.67179 3.86254 7.29591 7.67741 10.92 11.5876zm-15.5932-6.67597c-3.86254 3.95791-7.77277 7.9158-11.683 11.8737 3.81485 3.81486 7.62973 7.62973 11.3968 11.4922 3.81486-3.91022 7.58206-7.77276 11.3015-11.7307-3.6718-3.91022-7.34359-7.77277-11.0631-11.6353zm-16.6423-16.7854-11.8737 11.7307 11.9691 11.9691c3.91022-3.9579 7.82045-7.9158 11.7307-11.8737zm15.8316-15.4025-10.9677 10.6339 11.683 11.7307 10.6339-10.9677-11.3968-11.3969zm-20.791 10.5385c-3.86254-3.71948-7.72509-7.39127-11.6353-11.0631-3.95791 3.76717-7.82045 7.48663-11.7307 11.3015 3.81485 3.81485 7.67741 7.62973 11.4922 11.4445 3.95792-3.91022 7.9158-7.77277 11.8737-11.683zm-46.3505 19.6465c-3.338 3.71948-6.62829 7.39127-9.91862 11.1585 3.43336 3.86253 6.81906 7.6774 10.3478 11.4445 3.48105-3.71948 6.9621-7.39127 10.4908-11.0154-3.6718-3.86254-7.29591-7.67741-10.92-11.5876zm-13.3043 42.4879c-3.09957-3.57642-6.00839-7.05746-8.96492-10.7293-1.62131 2.38428-3.14726 4.76856-4.6732 7.20055 2.6704 3.52874 5.29311 6.81907 8.10658 10.2048 1.85974-2.24122 3.6718-4.48245 5.57922-6.72371zm-21.84-2.95651c-1.81206-2.86113-3.43337-5.76996-5.05468-8.72646-0.143055 1.47825-0.19074 2.95651-0.19074 4.29171 1.09677 3.09956 2.3366 6.10376 3.76717 9.06028 0.333801-1.57363 0.810658-3.14726 1.43057-4.57783zm4.43476 8.39266c1.85974 3.24262 3.95791 6.34221 6.24682 9.29867 0.858343-1.71668 2.05048-3.43336 3.14726-4.9593-2.62271-3.14726-5.10237-6.34222-7.53431-9.63249-0.715282 1.71668-1.3352 3.43336-1.81206 5.2931zm6.48525-28.6591c-2.3366-3.338-4.53013-6.58061-6.72371-10.014-1.23983 2.52733-2.28891 4.86393-3.38568 7.48663 1.85974 3.38568 3.71948 6.48525 5.72228 9.72784 1.38288-2.47966 2.76577-4.76856 4.33939-7.20056zm7.05746-31.0434c-3.05188 3.6718-5.96071 7.29592-8.91724 11.0154 2.76577 3.57642 5.53154 7.00978 8.34497 10.4908 3.19494-3.76717 6.38989-7.43896 9.68017-11.1108-3.09957-3.43336-6.10376-6.91442-9.10796-10.4432zm18.4066-19.4081c-3.57643 3.71948-7.05746 7.48663-10.5862 11.3015 3.09957 3.48105 6.19914 6.9621 9.34642 10.3955 3.6718-3.91022 7.39127-7.77277 11.1108-11.6353-3.33799-3.338-6.62829-6.67597-9.91862-10.0617zm24.7965-8.91724c-3.43337-3.14726-6.91442-6.24682-10.3955-9.34642-3.81485 3.48105-7.53431 7.00978-11.3015 10.5862 3.38568 3.29031 6.72371 6.58061 10.0617 9.91862 3.86254-3.76717 7.72509-7.43895 11.6353-11.1108zm23.8905-27.5146c-3.338 2.09817-6.48525 4.19634-9.68017 6.43757 3.52874 2.6704 6.9621 5.34079 10.4432 8.0589 3.19494-2.52734 6.34222-4.91162 9.58481-7.34359-3.43336-2.47965-6.77139-4.81625-10.3001-7.15282zm12.0168-5.91302c-2.62272 1.09677-4.95931 2.14586-7.48663 3.38568 3.43336 2.19354 6.62829 4.33939 10.014 6.72371 2.43197-1.57362 4.72088-2.95651 7.20056-4.33939-3.24262-2.05048-6.34222-3.86254-9.72785-5.72228zm-26.3225 9.10796c3.19494-2.09817 6.24682-4.10097 9.48945-6.05608-2.90882-1.57362-5.57922-2.86114-8.63111-4.24402-3.29031 1.62131-6.24682 3.24263-9.39409 5.05468 2.90882 1.71669 5.67459 3.43337 8.48807 5.29311zm-40.7236 8.44033c-3.62411 3.14726-7.05746 6.29454-10.5385 9.58481 2.57502 2.52734 5.15005 5.05468 7.72509 7.53431 3.6718-3.48105 7.29592-6.86674 11.0631-10.3001-2.71808-2.28891-5.43617-4.57783-8.24962-6.81907zm-20.9817-10.6816c2.24123 2.76577 4.53013 5.48385 6.81907 8.24962 3.38568-3.76717 6.77139-7.39127 10.3001-11.0631-2.52734-2.57502-5.007-5.15005-7.53431-7.72509-3.29031 3.48105-6.38989 6.9621-9.58481 10.5385zm-7.9158 56.9366c-1.85974-2.86114-3.57642-5.62691-5.29311-8.48807-1.81206 3.14726-3.38568 6.05608-5.05468 9.39409 1.38288 3.05188 2.71808 5.72228 4.24402 8.63111 1.95511-3.24263 3.95791-6.29447 6.05608-9.48945zm-2.62271-40.5805c-2.19354 3.19494-4.19634 6.24682-6.24682 9.58481 0.762972 2.14586 1.47825 3.86254 2.43197 5.86533 2.38428-3.43337 4.6732-6.67597 7.20056-10.014-1.23983-1.85974-2.28891-3.52874-3.38568-5.43616z" stroke-width=".760106"/><g transform="matrix(6.05314 0 0 6.05314 36.2036 12.3426)" fill="#354b9b" stroke-linecap="square" stroke-linejoin="bevel" stroke-width=".322459" aria-label="GHFDB"><path d="m43.7734 15.8814q-1.82342 1.02989-4.05204 1.02989-2.59162 0-4.19555-1.67147-1.59549-1.67147-1.59549-4.42348 0-2.8111 1.77277-4.60919 1.78121-1.80653 4.50789-1.80653 1.97537 0 3.31761 0.641573v1.57017q-1.46886-0.928592-3.478-0.928592-2.03446 0-3.33449 1.40133t-1.30003 3.62995q0 2.29616 1.20717 3.61307 1.20717 1.30847 3.2754 1.30847 1.41821 0 2.45655-0.565598v-3.39358h-2.65071v-1.28315h4.06892z"/><path d="m55.6847 16.7087h-1.41821v-5.5209h-6.26378v5.5209h-1.41821v-12.1055h1.41821v5.30986h6.26378v-5.30986h1.41821z"/><path d="m65.0043 5.88633h-4.72738v4.18711h4.37283v1.2747h-4.37283v5.36051h-1.41821v-12.1055h6.14559z"/><path d="m67.3005 16.7087v-12.1055h3.34293q6.39884 0 6.39884 5.90078 0 2.80266-1.78121 4.50789-1.77277 1.69679-4.7527 1.69679zm1.41821-10.8223v9.53918h1.80653q2.38057 0 3.70593-1.2747t1.32536-3.61307q0-4.6514-4.94686-4.6514z"/><path d="m79.4229 16.7087v-12.1055h3.44423q1.57016 0 2.49032 0.768199 0.92015 0.768199 0.92015 2.00069 0 1.02989-0.557155 1.78965t-1.5364 1.08054v0.03377q1.22405 0.143509 1.95848 0.928592 0.734432 0.776641 0.734432 2.02602 0 1.55328-1.11431 2.51564t-2.8111 0.96236zm1.41821-10.8223v3.90853h1.45198q1.16496 0 1.83186-0.557155 0.666898-0.565597 0.666898-1.58705 0-1.76433-2.32148-1.76433zm0 5.18323v4.35594h1.92472q1.24938 0 1.93316-0.590922 0.692224-0.590923 0.692224-1.62082 0-2.1442-2.92084-2.1442z"/></g><g transform="matrix(6.27352 0 0 6.27352 27.4876 4.74687)" fill="#699bd1" stroke-linecap="square" stroke-linejoin="bevel" stroke-width=".311131" aria-label="RESEARCH DATA PORTAL"><path d="m36.5774 22.4016-0.436066-0.995369q-0.06162-0.142196-0.173005-0.213294-0.109017-0.07347-0.258322-0.07347h-0.111387v1.28213h-0.583002v-3.09749h0.902942q0.255952 0 0.464506 0.04503 0.208554 0.04266 0.355489 0.144566 0.146936 0.101907 0.225143 0.265432 0.08058 0.163525 0.08058 0.400517 0 0.170635-0.04977 0.303351t-0.139826 0.229883q-0.09006 0.0948-0.215663 0.154045-0.123236 0.05925-0.270172 0.08295 0.113757 0.0237 0.208554 0.130346 0.0948 0.104276 0.189594 0.30335l0.495315 1.03803zm-0.144565-2.18507q0-0.227513-0.144566-0.32705-0.144566-0.09954-0.433697-0.09954h-0.255952v0.874503h0.236993q0.135086 0 0.244102-0.02844 0.111387-0.02844 0.189595-0.08532 0.07821-0.05688 0.120866-0.139825 0.04266-0.08532 0.04266-0.194334z"/><path d="m37.8145 22.4016v-3.09749h1.86513v0.492945h-1.27265v0.770226h1.2134v0.481095h-1.2134v0.860283h1.27265v0.492945z"/><path d="m42.4643 21.4655q0 0.253582-0.0948 0.440806-0.09243 0.187225-0.260692 0.310461-0.168265 0.120866-0.400517 0.180114-0.232253 0.05925-0.507165 0.05925-0.244102 0-0.471615-0.02844t-0.450286-0.0948v-0.575892q0.109016 0.03792 0.227513 0.0711 0.118496 0.03318 0.236992 0.05925 0.120867 0.0237 0.239363 0.03792t0.229883 0.01422q0.165895 0 0.282021-0.02844 0.116127-0.02844 0.189594-0.07821 0.07347-0.04977 0.106647-0.118497 0.03318-0.06873 0.03318-0.151675 0-0.113756-0.06636-0.189594-0.06399-0.07821-0.170635-0.137456-0.106646-0.05925-0.244102-0.106647-0.135086-0.0474-0.277282-0.101906-0.139825-0.05451-0.277281-0.123237-0.135086-0.06873-0.241732-0.170634-0.106647-0.101907-0.173005-0.241733-0.06399-0.142196-0.06399-0.341269 0-0.182485 0.06636-0.34601t0.208553-0.284391q0.142196-0.123236 0.364969-0.194334 0.222773-0.07347 0.537973-0.07347 0.09243 0 0.191965 0.0095 0.101906 0.0071 0.199073 0.02133 0.09954 0.01185 0.189595 0.03081 0.09243 0.01659 0.168264 0.03555v0.533234q-0.07584-0.02844-0.165895-0.05214-0.09006-0.0237-0.187224-0.04029-0.0948-0.01896-0.191964-0.02844-0.09717-0.0095-0.184854-0.0095-0.154045 0-0.260692 0.02607-0.106647 0.0237-0.175375 0.06873-0.06873 0.04266-0.09954 0.106647-0.03081 0.06399-0.03081 0.142195 0 0.09717 0.06399 0.168265 0.06636 0.06873 0.173005 0.125606 0.109017 0.05451 0.244103 0.104277 0.137455 0.0474 0.279651 0.104277 0.144565 0.05451 0.279651 0.125606 0.137456 0.0711 0.244103 0.173005 0.109016 0.101906 0.173004 0.241732 0.06636 0.137456 0.06636 0.32705z"/><path d="m43.1516 22.4016v-3.09749h1.86513v0.492945h-1.27265v0.770226h1.2134v0.481095h-1.2134v0.860283h1.27265v0.492945z"/><path d="m47.3985 22.4016-0.170635-0.611441h-1.08069l-0.175375 0.611441h-0.578262l0.917162-3.09749h0.815254l0.917162 3.09749zm-0.703868-2.52871-0.407628 1.44092h0.810515z"/><path d="m49.9201 22.4016-0.436067-0.995369q-0.06162-0.142196-0.173005-0.213294-0.109016-0.07347-0.258322-0.07347h-0.111386v1.28213h-0.583002v-3.09749h0.902942q0.255952 0 0.464506 0.04503 0.208553 0.04266 0.355489 0.144566 0.146935 0.101907 0.225143 0.265432 0.08058 0.163525 0.08058 0.400517 0 0.170635-0.04977 0.303351t-0.139826 0.229883q-0.09006 0.0948-0.215663 0.154045-0.123236 0.05925-0.270172 0.08295 0.113757 0.0237 0.208554 0.130346 0.0948 0.104276 0.189594 0.30335l0.495314 1.03803zm-0.144566-2.18507q0-0.227513-0.144565-0.32705-0.144566-0.09954-0.433697-0.09954h-0.255952v0.874503h0.236993q0.135085 0 0.244102-0.02844 0.111387-0.02844 0.189594-0.08532 0.07821-0.05688 0.120866-0.139825 0.04266-0.08532 0.04266-0.194334z"/><path d="m53.1006 22.2807q-0.206184 0.08295-0.400518 0.123236-0.191964 0.04029-0.400517 0.04029-0.33416 0-0.592482-0.09717-0.255952-0.09954-0.433697-0.293871-0.175374-0.194334-0.267801-0.481095-0.09006-0.289131-0.09006-0.67069 0-0.391037 0.09954-0.694388 0.09954-0.305721 0.284392-0.514274 0.184854-0.210924 0.447916-0.31994 0.265431-0.111387 0.594851-0.111387 0.106647 0 0.199074 0.0047 0.0948 0.0047 0.184854 0.01896 0.09006 0.01185 0.182485 0.03318 0.09243 0.02133 0.191964 0.05451v0.578262q-0.201444-0.0948-0.383928-0.135086-0.182485-0.04029-0.33179-0.04029-0.220403 0-0.376818 0.08058-0.156416 0.07821-0.258322 0.222773-0.09954 0.142195-0.146936 0.341269-0.0474 0.196704-0.0474 0.433697 0 0.251212 0.0474 0.450286 0.04977 0.196704 0.151675 0.33416 0.101907 0.137455 0.260692 0.210923 0.158786 0.0711 0.376819 0.0711 0.07821 0 0.168265-0.01422 0.09243-0.01659 0.184854-0.04029 0.0948-0.02607 0.184854-0.05925 0.09243-0.03555 0.170635-0.0711z"/><path d="m55.2501 22.4016v-1.34849h-1.05225v1.34849h-0.583002v-3.09749h0.583002v1.24421h1.05225v-1.24421h0.583002v3.09749z"/><path d="m59.8115 20.8137q0 0.360229-0.09006 0.6541-0.08769 0.293871-0.277281 0.502424-0.187224 0.206184-0.481095 0.319941-0.293871 0.111386-0.703868 0.111386h-0.786816v-3.09749h0.917162q0.355489 0 0.62092 0.09006 0.267802 0.08769 0.445547 0.272542 0.177744 0.184854 0.265431 0.469245 0.09006 0.284391 0.09006 0.677799zm-0.625661 0.03792q0-0.251212-0.04029-0.447916t-0.137455-0.33179q-0.0948-0.137456-0.255953-0.208553-0.161155-0.0711-0.400517-0.0711h-0.296241v2.12108h0.255952q0.428957 0 0.65173-0.255952t0.222773-0.805775z"/><path d="m61.9515 22.4016-0.170635-0.611441h-1.08069l-0.175375 0.611441h-0.578262l0.917162-3.09749h0.815255l0.917161 3.09749zm-0.703868-2.52871-0.407627 1.44092h0.810514z"/><path d="m64.2385 19.7899v2.61166h-0.597221v-2.61166h-0.848434v-0.485835h2.29409v0.485835z"/><path d="m67.2886 22.4016-0.170634-0.611441h-1.08069l-0.175374 0.611441h-0.578263l0.917162-3.09749h0.815255l0.917162 3.09749zm-0.703868-2.52871-0.407627 1.44092h0.810515z"/><path d="m71.6225 20.29q0 0.241733-0.08058 0.447916-0.08058 0.203814-0.239363 0.35312-0.158785 0.149305-0.395778 0.232252-0.236992 0.08295-0.549823 0.08295h-0.296241v0.995369h-0.587741v-3.09749h0.907681q0.300981 0 0.530864 0.06636 0.232253 0.06399 0.388668 0.189594 0.158785 0.125606 0.239363 0.31046 0.08295 0.182485 0.08295 0.419477zm-0.611441 0.04029q0-0.123236-0.04029-0.222773-0.03792-0.101907-0.118496-0.173005-0.07821-0.0711-0.199074-0.109016-0.120866-0.03792-0.286761-0.03792h-0.305721v1.1352h0.32468q0.151676 0 0.267802-0.04029 0.116126-0.04266 0.194334-0.120866 0.08058-0.07821 0.120866-0.187224 0.04266-0.109017 0.04266-0.244103z"/><path d="m74.4024 20.8398q0 0.421847-0.09954 0.727568-0.09717 0.30572-0.270172 0.502424-0.170634 0.196704-0.402887 0.291501-0.229883 0.0948-0.492945 0.0948-0.611441 0-0.919532-0.405257-0.30809-0.407627-0.30809-1.18259 0-0.421847 0.09717-0.727567 0.09954-0.305721 0.270172-0.502425 0.173004-0.196703 0.402887-0.291501 0.232253-0.0948 0.495315-0.0948 0.611441 0 0.919531 0.405258 0.308091 0.405257 0.308091 1.18259zm-0.616181 0.02844q0-0.549823-0.146936-0.819994-0.146935-0.270172-0.483465-0.270172-0.168264 0-0.286761 0.0711-0.118496 0.06873-0.196704 0.203814-0.07584 0.135085-0.111386 0.334159-0.03555 0.196704-0.03555 0.452656 0 0.549823 0.146935 0.819995 0.149306 0.270172 0.483465 0.270172 0.168265 0 0.286761-0.06873 0.120867-0.0711 0.196704-0.206184 0.07584-0.135086 0.111387-0.33179 0.03555-0.199073 0.03555-0.455026z"/><path d="m76.3576 22.4016-0.436067-0.995369q-0.06162-0.142196-0.173004-0.213294-0.109017-0.07347-0.258322-0.07347h-0.111387v1.28213h-0.583002v-3.09749h0.902942q0.255952 0 0.464506 0.04503 0.208554 0.04266 0.355489 0.144566 0.146935 0.101907 0.225143 0.265432 0.08058 0.163525 0.08058 0.400517 0 0.170635-0.04977 0.303351t-0.139826 0.229883q-0.09006 0.0948-0.215663 0.154045-0.123236 0.05925-0.270172 0.08295 0.113757 0.0237 0.208554 0.130346 0.0948 0.104276 0.189594 0.30335l0.495315 1.03803zm-0.144566-2.18507q0-0.227513-0.144565-0.32705-0.144566-0.09954-0.433697-0.09954h-0.255952v0.874503h0.236993q0.135086 0 0.244102-0.02844 0.111387-0.02844 0.189595-0.08532 0.07821-0.05688 0.120866-0.139825 0.04266-0.08532 0.04266-0.194334z"/><path d="m78.7915 19.7899v2.61166h-0.597221v-2.61166h-0.848434v-0.485835h2.29409v0.485835z"/><path d="m81.8416 22.4016-0.170635-0.611441h-1.08069l-0.175374 0.611441h-0.578262l0.917161-3.09749h0.815255l0.917162 3.09749zm-0.703869-2.52871-0.407627 1.44092h0.810515z"/><path d="m82.9626 22.4016v-3.09749h0.592481v2.59744h1.3082v0.500054z"/></g></svg>
