<?xml version="1.0" encoding="UTF-8"?><svg id="Ebene_6" xmlns="http://www.w3.org/2000/svg" viewBox="0 0 149.2 51.46"><defs><style>.cls-1{fill:#699bd1;}.cls-2,.cls-3{fill:#354b9b;}.cls-4{fill:#3b95d2;opacity:.66;}.cls-4,.cls-3{fill-rule:evenodd;}</style></defs><g><path class="cls-4" d="M6.43,.92c-.86,.93-1.66,1.84-2.47,2.82,.36,.56,.7,1.06,1.09,1.6,.89-1.03,1.78-2.01,2.72-3.01-.45-.47-.89-.93-1.33-1.41h0ZM53,33.9c-.7,1.02-1.39,1.98-2.14,2.98,.36,.55,.68,1.05,1,1.61,.66-.95,1.25-1.85,1.86-2.85-.23-.64-.44-1.15-.72-1.74h0Zm.81,3.25c-.46,.78-.99,1.55-1.5,2.26,.04,.12,.08,.25,.11,.39,.51-.82,.97-1.66,1.38-2.52,0-.04,0-.09,.01-.13h0Zm-2.52,3.61c-.68,.88-1.54,1.81-2.29,2.6,.12,.13,.24,.28,.35,.42,.74-.79,1.42-1.61,2.04-2.45v-.02c0-.17-.04-.36-.11-.54h0Zm-3.06,4.14c-.14-.11-.29-.23-.42-.35-.79,.75-1.72,1.61-2.6,2.29,.18,.07,.36,.12,.51,.12h.02c.88-.63,1.7-1.32,2.49-2.06h0Zm7-15.02c-.42,.88-.85,1.69-1.33,2.57,.25,.59,.43,1.07,.61,1.63,.38-.84,.69-1.6,1.02-2.51-.08-.67-.16-1.13-.3-1.7h0Zm-.13-7.47c-.27,.71-.54,1.35-.88,2.08,.42,.82,.77,1.57,1.12,2.38,.23-.71,.39-1.31,.56-2.1-.26-.86-.5-1.57-.81-2.36h0Zm-26.16,27.36c-.73,.33-1.37,.61-2.08,.88,.79,.31,1.5,.55,2.36,.81,.79-.17,1.4-.34,2.1-.56-.82-.35-1.56-.71-2.38-1.12h0ZM52.28,15.45c.22-.51,.4-1.02,.54-1.57-.55-.96-1.17-1.88-1.85-2.76-.26,.51-.6,1.02-.93,1.47,.78,.93,1.52,1.88,2.24,2.86h0Zm.97,1.41c.54,.85,1.02,1.71,1.5,2.59,.05-.43,.05-.88,.05-1.27-.32-.92-.69-1.81-1.12-2.69-.1,.47-.24,.93-.42,1.36h0Zm-4.37-5.57c.39-.46,.73-.91,1.05-1.43-.36-.41-.73-.81-1.12-1.19-.38-.39-.78-.76-1.19-1.12-.52,.31-.97,.66-1.43,1.05,.46,.44,.92,.88,1.37,1.32,.45,.45,.89,.91,1.32,1.37h0Zm-10.33,38.77c-.56-.18-1.04-.37-1.63-.61-.88,.48-1.69,.91-2.57,1.33,.57,.14,1.02,.22,1.7,.3,.9-.33,1.67-.64,2.51-1.02h0Zm-24.23-4.59c.52-.31,.97-.66,1.43-1.05-.46-.44-.92-.88-1.37-1.32-.45-.45-.89-.91-1.32-1.37-.39,.46-.73,.91-1.05,1.43,.36,.41,.73,.81,1.12,1.19,.38,.38,.78,.76,1.19,1.12h0Zm2.33-1.8c.65-.57,1.3-1.15,1.94-1.73-.52-.5-1.03-1-1.54-1.51-.51-.51-1.01-1.03-1.51-1.54-.59,.64-1.16,1.29-1.73,1.94,.46,.48,.93,.97,1.4,1.44,.47,.47,.96,.94,1.44,1.4h0Zm-.07-5.92c.52,.53,1.03,1.07,1.56,1.59,.52,.52,1.06,1.04,1.59,1.56,.91-.85,1.81-1.7,2.72-2.56-.56-.55-1.11-1.09-1.67-1.64-.55-.55-1.1-1.11-1.64-1.67-.86,.9-1.71,1.81-2.56,2.72h0Zm6.98-7.31l-3.16,3.26c.56,.57,1.11,1.14,1.68,1.7,.56,.56,1.13,1.12,1.7,1.68l3.26-3.16c-.58-.58-1.16-1.15-1.74-1.73-.58-.58-1.16-1.16-1.73-1.74h0Zm8.45-1.43c-.59-.59-1.18-1.18-1.78-1.77-.59-.59-1.18-1.18-1.77-1.78-1.16,1.17-2.33,2.35-3.49,3.53,.58,.59,1.16,1.17,1.75,1.76,.58,.59,1.17,1.17,1.76,1.75,1.18-1.16,2.36-2.32,3.53-3.49h0Zm10.8-11.04c.86-.9,1.71-1.81,2.56-2.72-.52-.53-1.03-1.07-1.56-1.59-.52-.52-1.06-1.04-1.59-1.56-.91,.85-1.81,1.7-2.72,2.56,.56,.55,1.12,1.09,1.67,1.64,.55,.55,1.1,1.11,1.64,1.67h0Zm5.33-5.8c-.46-.48-.93-.97-1.4-1.44-.47-.47-.96-.94-1.44-1.4-.66,.57-1.3,1.15-1.94,1.73,.52,.5,1.03,1,1.54,1.51,.51,.51,1.01,1.03,1.51,1.54,.59-.64,1.16-1.29,1.73-1.94h0Zm3.59,4.36c-.79-1.04-1.57-2.03-2.41-3.03-.54,.67-1.09,1.33-1.65,1.99,.91,1.06,1.79,2.1,2.67,3.19,.48-.71,.94-1.41,1.39-2.14h0Zm-5.07,.12c-.82,.93-1.65,1.84-2.49,2.76,1.01,1.11,2,2.23,2.99,3.36,.77-.95,1.52-1.89,2.27-2.85-.91-1.11-1.83-2.18-2.77-3.26h0Zm-9.77,17.21c-1.14-1.13-2.27-2.26-3.41-3.39-1.17,1.16-2.34,2.31-3.52,3.46,1.15,1.1,2.29,2.19,3.45,3.28,1.17-1.11,2.33-2.23,3.48-3.36h0Zm-4.94,4.71c-1.15-1.07-2.3-2.15-3.44-3.24-1.09,1.04-2.18,2.08-3.27,3.11,1.13,1.04,2.25,2.05,3.4,3.07,1.12-.97,2.21-1.95,3.31-2.94h0Zm-4.7,4.11c-1.14-.99-2.25-1.98-3.36-2.99-.91,.84-1.83,1.67-2.76,2.49,1.08,.95,2.15,1.86,3.26,2.77,.96-.75,1.91-1.5,2.85-2.27h0Zm-7.28,.51c-.66,.56-1.32,1.11-1.99,1.65,1.01,.83,1.99,1.62,3.03,2.41,.73-.46,1.43-.91,2.14-1.39-1.08-.88-2.13-1.75-3.19-2.67h0Zm1.36,5.59c-.44,.18-.9,.32-1.37,.43,.87,.42,1.76,.8,2.66,1.11,.41,0,.87,0,1.3-.04-.89-.47-1.74-.96-2.59-1.49h0Zm-4.26-3.21c-.45,.33-.96,.67-1.47,.93,.88,.68,1.8,1.3,2.76,1.85,.55-.14,1.06-.32,1.57-.54-.97-.72-1.93-1.46-2.86-2.24h0Zm5.37,2.66c.97,.6,1.88,1.14,2.89,1.7,.78-.32,1.47-.64,2.22-1-1.02-.65-1.97-1.29-2.97-1.99-.73,.47-1.4,.88-2.14,1.29h0Zm6.45-.06c.99-.63,1.92-1.25,2.88-1.91-1.04-.79-2.07-1.58-3.09-2.39-.94,.74-1.88,1.46-2.84,2.18,1.01,.73,2.01,1.42,3.05,2.12h0Zm7.57-5.6c-1.05-.89-2.07-1.79-3.09-2.7-1.09,.97-2.19,1.92-3.3,2.87,1.03,.85,2.06,1.66,3.12,2.48,1.11-.87,2.19-1.74,3.27-2.65h0Zm4.79-4.4c-1-.98-1.99-1.95-2.98-2.94-1.14,1.11-2.29,2.21-3.45,3.3,1.02,.93,2.05,1.85,3.08,2.77,1.13-1.04,2.24-2.07,3.35-3.14h0Zm1.4-1.4c1.06-1.11,2.1-2.22,3.14-3.35-.92-1.03-1.84-2.06-2.77-3.08-1.09,1.16-2.19,2.31-3.3,3.45,.99,.99,1.96,1.98,2.94,2.98h0Zm4.56-11.18c-.95,1.11-1.9,2.2-2.87,3.3,.92,1.03,1.81,2.05,2.7,3.09,.9-1.08,1.78-2.16,2.65-3.27-.82-1.06-1.64-2.08-2.48-3.12h0Zm5.44-1.18c-.69-1.04-1.39-2.04-2.12-3.05-.72,.96-1.44,1.9-2.18,2.84,.81,1.03,1.6,2.05,2.39,3.09,.67-.96,1.28-1.89,1.91-2.88h0Zm1.76-3.57c-.56-1.01-1.1-1.92-1.7-2.89-.42,.74-.83,1.41-1.29,2.14,.7,1,1.34,1.95,1.99,2.97,.36-.75,.68-1.44,1-2.22h0Zm.35,7.55c-.41-.91-.8-1.69-1.27-2.56-.59,.96-1.17,1.87-1.8,2.82,.55,.85,1.06,1.66,1.57,2.53,.54-.94,1.01-1.8,1.5-2.79h0Zm-4.09,1.68c-.84,1.08-1.68,2.14-2.54,3.2,.66,.82,1.3,1.64,1.94,2.48,.79-1.03,1.53-2.05,2.28-3.11-.55-.89-1.09-1.71-1.67-2.56h0Zm-1.75,7.07c-.67-.83-1.34-1.63-2.02-2.45-1.01,1.11-2.02,2.19-3.05,3.28,.75,.77,1.49,1.53,2.24,2.29,.97-1.04,1.9-2.06,2.84-3.13h0Zm-7.29,7.29c1.07-.94,2.09-1.87,3.13-2.84-.76-.75-1.53-1.49-2.29-2.24-1.09,1.04-2.17,2.04-3.28,3.05,.81,.69,1.62,1.36,2.45,2.02h0Zm-1.4,1.15c-.84-.64-1.66-1.28-2.48-1.94-1.06,.87-2.12,1.71-3.2,2.54,.86,.59,1.68,1.12,2.57,1.67,1.07-.75,2.08-1.49,3.11-2.28h0Zm-4.57,3.2c-.86-.51-1.68-1.02-2.53-1.57-.94,.63-1.85,1.21-2.82,1.8,.86,.46,1.65,.86,2.56,1.27,.98-.49,1.85-.96,2.79-1.5h0Zm7.3-1.4c-.56-.32-1.06-.64-1.61-1-1,.75-1.96,1.44-2.98,2.14,.59,.27,1.1,.49,1.74,.72,1-.61,1.9-1.2,2.85-1.86h0Zm4.18-3.5c-.47-.44-.94-.89-1.41-1.33-1,.93-1.98,1.82-3.01,2.72,.54,.39,1.04,.73,1.6,1.09,.98-.82,1.88-1.61,2.82-2.47h0Zm3.7-4.05c-.36-.56-.7-1.06-1.09-1.6-.89,1.03-1.78,2.01-2.72,3.01,.45,.47,.89,.93,1.33,1.41,.86-.93,1.66-1.84,2.47-2.82h0Zm-6.96,8c-.71,.51-1.49,1.05-2.27,1.51,.04,0,.07,0,.11,0,.88-.41,1.73-.88,2.55-1.39-.14-.03-.28-.07-.39-.11h0ZM27.02,.47c-.9,.33-1.67,.64-2.51,1.02,.56,.18,1.04,.37,1.63,.61,.88-.48,1.69-.91,2.57-1.33-.57-.14-1.03-.22-1.7-.3h0Zm8.04,1.9c-.79-.31-1.5-.55-2.36-.81-.79,.17-1.4,.34-2.1,.56,.82,.35,1.56,.71,2.38,1.12,.73-.33,1.37-.61,2.08-.88h0ZM3.06,22.11c-.42-.82-.77-1.57-1.12-2.38-.23,.71-.39,1.31-.56,2.1,.26,.86,.5,1.57,.81,2.36,.27-.71,.54-1.35,.88-2.08h0ZM44.88,7.44c.45-.33,.96-.67,1.47-.93-.88-.68-1.8-1.3-2.76-1.85-.55,.14-1.06,.32-1.57,.54,.97,.72,1.93,1.46,2.86,2.24h0Zm-4.26-3.21c.44-.18,.9-.32,1.36-.42-.87-.43-1.76-.8-2.65-1.11-.41,0-.87,0-1.3,.04,.88,.47,1.74,.96,2.59,1.49h0ZM1.02,11.09c-.38,.84-.69,1.6-1.02,2.51,.08,.67,.16,1.13,.3,1.7,.43-.88,.85-1.69,1.33-2.57-.25-.59-.43-1.07-.61-1.63h0Zm40.95-1.27c.66-.56,1.32-1.11,1.99-1.65-1.01-.84-1.99-1.62-3.03-2.41-.73,.46-1.43,.91-2.14,1.39,1.08,.88,2.13,1.75,3.18,2.67h0Zm-4.42-1.76c-.96,.75-1.91,1.5-2.85,2.27,1.14,.99,2.25,1.98,3.36,2.99,.91-.84,1.83-1.67,2.76-2.49-1.08-.95-2.15-1.86-3.26-2.77h0Zm-4.24,3.44c-1.12,.97-2.21,1.95-3.31,2.94,1.15,1.07,2.3,2.15,3.44,3.24,1.09-1.04,2.18-2.08,3.27-3.11-1.13-1.04-2.25-2.05-3.4-3.07h0Zm9.72,15.98c.99-1.1,1.97-2.2,2.94-3.31-1.01-1.15-2.03-2.27-3.07-3.4-1.03,1.1-2.07,2.19-3.11,3.27,1.09,1.14,2.16,2.28,3.24,3.44h0Zm-4.64-1.99c-1.15,1.18-2.3,2.35-3.46,3.52,1.13,1.13,2.26,2.27,3.39,3.41,1.13-1.15,2.24-2.31,3.36-3.48-1.09-1.16-2.18-2.3-3.28-3.45h0Zm-4.95-4.98c-1.18,1.16-2.35,2.32-3.53,3.49l3.55,3.55c1.16-1.17,2.33-2.35,3.49-3.53l-3.51-3.51h0Zm4.7-4.57l-3.26,3.16,3.47,3.47,3.16-3.26-3.38-3.38h0Zm-6.17,3.13c-1.15-1.1-2.29-2.19-3.45-3.28-1.17,1.11-2.33,2.23-3.48,3.36,1.14,1.13,2.27,2.26,3.41,3.39,1.17-1.16,2.34-2.31,3.52-3.46h0Zm-8.46,8.46c1.15-1.18,2.3-2.35,3.46-3.52-1.13-1.13-2.26-2.27-3.39-3.41-1.13,1.15-2.24,2.31-3.36,3.48,1.09,1.16,2.18,2.3,3.28,3.45h0Zm-5.31-2.62c-.99,1.1-1.97,2.2-2.94,3.31,1.01,1.15,2.03,2.27,3.07,3.4,1.03-1.1,2.07-2.19,3.11-3.28-1.09-1.14-2.16-2.28-3.24-3.44h0Zm-3.44,5.33c-.77,.95-1.52,1.89-2.27,2.85,.91,1.11,1.83,2.18,2.77,3.26,.82-.93,1.65-1.84,2.49-2.76-1.01-1.11-2-2.23-2.99-3.36h0Zm-.51,7.28c-.91-1.06-1.79-2.1-2.67-3.19-.48,.71-.94,1.41-1.39,2.14,.79,1.05,1.57,2.02,2.41,3.03,.55-.67,1.09-1.33,1.65-1.99h0Zm-6.48-.88c-.53-.85-1.02-1.71-1.49-2.59-.05,.43-.06,.88-.05,1.27,.32,.92,.69,1.81,1.12,2.69,.1-.47,.24-.93,.43-1.36h0Zm1.32,2.5c.55,.96,1.17,1.88,1.85,2.76,.26-.51,.6-1.02,.93-1.47-.78-.93-1.52-1.88-2.24-2.86-.22,.51-.4,1.02-.54,1.57h0Zm1.93-8.5c-.7-1-1.34-1.95-1.99-2.97-.36,.75-.68,1.44-1,2.22,.56,1.01,1.1,1.92,1.7,2.89,.42-.74,.83-1.42,1.29-2.14h0Zm2.1-9.22c-.91,1.08-1.78,2.16-2.65,3.27,.82,1.06,1.64,2.08,2.48,3.12,.95-1.11,1.9-2.2,2.87-3.3-.92-1.03-1.81-2.05-2.7-3.09h0Zm5.47-5.76c-1.06,1.11-2.1,2.22-3.14,3.35,.92,1.03,1.84,2.06,2.77,3.08,1.09-1.16,2.19-2.31,3.3-3.45-.99-.99-1.96-1.98-2.94-2.98h0Zm7.35-2.64c-1.02-.93-2.05-1.85-3.08-2.77-1.13,1.04-2.24,2.08-3.35,3.14,1,.98,1.99,1.95,2.98,2.94,1.14-1.11,2.29-2.21,3.45-3.3h0Zm5.91-2.73c-1.03-.85-2.06-1.66-3.12-2.48-1.11,.87-2.19,1.74-3.27,2.65,1.05,.89,2.07,1.79,3.09,2.7,1.09-.97,2.19-1.92,3.3-2.87h0Zm1.18-5.44c-.99,.63-1.92,1.24-2.88,1.91,1.04,.79,2.07,1.58,3.09,2.39,.94-.74,1.88-1.46,2.84-2.18-1.01-.73-2.01-1.42-3.05-2.12h0Zm3.57-1.76c-.78,.32-1.47,.64-2.22,1,1.02,.65,1.97,1.29,2.97,1.99,.73-.46,1.4-.87,2.14-1.29-.97-.6-1.88-1.14-2.89-1.7h0Zm-7.81,2.71c.94-.63,1.85-1.21,2.82-1.8-.86-.46-1.65-.86-2.56-1.27-.98,.49-1.85,.96-2.79,1.5,.86,.51,1.68,1.02,2.53,1.57h0Zm-6.53-1.87c-1.07,.75-2.08,1.49-3.11,2.28,.84,.64,1.66,1.28,2.48,1.94,1.06-.87,2.12-1.71,3.2-2.54-.86-.59-1.68-1.12-2.56-1.67h0Zm-5.55,4.38c-1.07,.94-2.09,1.87-3.13,2.84,.76,.75,1.53,1.49,2.29,2.24,1.09-1.04,2.17-2.04,3.28-3.05-.81-.69-1.62-1.36-2.45-2.02h0Zm-6.23-3.16c.67,.83,1.34,1.63,2.02,2.45,1.01-1.11,2.02-2.19,3.05-3.28-.75-.77-1.49-1.53-2.24-2.29-.97,1.04-1.9,2.06-2.84,3.13h0Zm.69,9.49c-.79,1.03-1.53,2.05-2.28,3.11,.55,.89,1.09,1.71,1.67,2.56,.84-1.08,1.68-2.14,2.54-3.2-.66-.82-1.3-1.64-1.94-2.48h0Zm-3.03,7.41c-.55-.85-1.06-1.66-1.57-2.53-.54,.94-1.01,1.8-1.5,2.79,.41,.91,.8,1.69,1.27,2.56,.59-.96,1.17-1.87,1.8-2.82h0Zm-.78-12.04c-.66,.95-1.25,1.85-1.86,2.85,.23,.64,.44,1.15,.72,1.74,.7-1.02,1.39-1.98,2.14-2.98-.36-.55-.68-1.05-1-1.61h0Z"/><path class="cls-3" d="M53.23,33.43c-.7,1.02-1.39,1.98-2.14,2.98,.36,.55,.68,1.05,1,1.61,.66-.95,1.25-1.85,1.86-2.85-.23-.64-.44-1.15-.72-1.74h0Zm.81,3.25c-.46,.78-.99,1.55-1.5,2.26,.04,.12,.08,.25,.11,.39,.51-.82,.97-1.66,1.38-2.52,0-.04,0-.09,.01-.13h0Zm-2.52,3.61c-.68,.88-1.54,1.81-2.29,2.6,.12,.13,.24,.28,.35,.42,.74-.79,1.42-1.61,2.04-2.45v-.02c0-.17-.04-.36-.11-.54h0Zm-3.06,4.14c-.14-.11-.29-.23-.42-.35-.79,.75-1.72,1.61-2.6,2.29,.18,.07,.36,.12,.51,.12h.02c.88-.63,1.7-1.32,2.49-2.06h0Zm7-15.02c-.42,.88-.85,1.69-1.33,2.57,.25,.59,.43,1.07,.61,1.63,.38-.84,.69-1.6,1.02-2.51-.08-.67-.16-1.13-.3-1.7h0Zm-.13-7.47c-.27,.71-.54,1.35-.88,2.08,.42,.82,.77,1.57,1.12,2.38,.23-.71,.39-1.31,.56-2.1-.26-.86-.5-1.57-.81-2.36h0Zm-26.16,27.36c-.73,.33-1.37,.61-2.08,.88,.79,.31,1.5,.55,2.36,.81,.79-.17,1.4-.34,2.1-.56-.82-.35-1.56-.71-2.38-1.12h0ZM52.51,14.98c.22-.51,.4-1.02,.54-1.57-.55-.96-1.17-1.88-1.85-2.76-.26,.51-.6,1.02-.93,1.47,.78,.93,1.52,1.88,2.24,2.86h0Zm.97,1.41c.54,.85,1.02,1.71,1.5,2.59,.05-.43,.05-.88,.05-1.27-.32-.92-.69-1.81-1.12-2.69-.1,.47-.24,.93-.42,1.36h0Zm-4.37-5.57c.39-.46,.73-.91,1.05-1.43-.36-.41-.73-.81-1.12-1.19-.38-.39-.78-.76-1.19-1.12-.52,.31-.97,.66-1.43,1.05,.46,.44,.92,.88,1.37,1.32,.45,.45,.89,.91,1.32,1.37h0Zm-10.33,38.77c-.56-.18-1.04-.37-1.63-.61-.88,.48-1.69,.91-2.57,1.33,.57,.14,1.02,.22,1.7,.3,.9-.33,1.67-.64,2.51-1.02h0Zm-24.23-4.59c.52-.31,.97-.66,1.43-1.05-.46-.44-.92-.88-1.37-1.32-.45-.45-.89-.91-1.32-1.37-.39,.46-.73,.91-1.05,1.43,.36,.41,.73,.81,1.12,1.19,.38,.38,.78,.76,1.19,1.12h0Zm2.33-1.8c.65-.57,1.3-1.15,1.94-1.73-.52-.5-1.03-1-1.54-1.51-.51-.51-1.01-1.03-1.51-1.54-.59,.64-1.16,1.29-1.73,1.94,.46,.48,.93,.97,1.4,1.44,.47,.47,.96,.94,1.44,1.4h0Zm-.07-5.92c.52,.53,1.03,1.07,1.56,1.59,.52,.52,1.06,1.04,1.59,1.56,.91-.85,1.81-1.7,2.72-2.56-.56-.55-1.11-1.09-1.67-1.64-.55-.55-1.1-1.11-1.64-1.67-.86,.9-1.71,1.81-2.56,2.72h0Zm6.98-7.31l-3.16,3.26c.56,.57,1.11,1.14,1.68,1.7,.56,.56,1.13,1.12,1.7,1.68l3.26-3.16c-.58-.58-1.16-1.15-1.74-1.73-.58-.58-1.16-1.16-1.73-1.74h0Zm8.45-1.43c-.59-.59-1.18-1.18-1.78-1.77-.59-.59-1.18-1.18-1.77-1.78-1.16,1.17-2.33,2.35-3.49,3.53,.58,.59,1.16,1.17,1.75,1.76,.58,.59,1.17,1.17,1.76,1.75,1.18-1.16,2.36-2.32,3.53-3.49h0Zm10.8-11.04c.86-.9,1.71-1.81,2.56-2.72-.52-.53-1.03-1.07-1.56-1.59-.52-.52-1.06-1.04-1.59-1.56-.91,.85-1.81,1.7-2.72,2.56,.56,.55,1.12,1.09,1.67,1.64,.55,.55,1.1,1.11,1.64,1.67h0Zm5.33-5.8c-.46-.48-.93-.97-1.4-1.44-.47-.47-.96-.94-1.44-1.4-.66,.57-1.3,1.15-1.94,1.73,.52,.5,1.03,1,1.54,1.51,.51,.51,1.01,1.03,1.51,1.54,.59-.64,1.16-1.29,1.73-1.94h0Zm3.59,4.36c-.79-1.04-1.57-2.03-2.41-3.03-.54,.67-1.09,1.33-1.65,1.99,.91,1.06,1.79,2.1,2.67,3.19,.48-.71,.94-1.41,1.39-2.14h0Zm-5.07,.12c-.82,.93-1.65,1.84-2.49,2.76,1.01,1.11,2,2.23,2.99,3.36,.77-.95,1.52-1.89,2.27-2.85-.91-1.11-1.83-2.18-2.77-3.26h0Zm-9.77,17.21c-1.14-1.13-2.27-2.26-3.41-3.39-1.17,1.16-2.34,2.31-3.52,3.46,1.15,1.1,2.29,2.19,3.45,3.28,1.17-1.11,2.33-2.23,3.48-3.36h0Zm-4.94,4.71c-1.15-1.07-2.3-2.15-3.44-3.24-1.09,1.04-2.18,2.08-3.27,3.11,1.13,1.04,2.25,2.05,3.4,3.07,1.12-.97,2.21-1.95,3.31-2.94h0Zm-4.7,4.11c-1.14-.99-2.25-1.98-3.36-2.99-.91,.84-1.83,1.67-2.76,2.49,1.08,.95,2.15,1.86,3.26,2.77,.96-.75,1.91-1.5,2.85-2.27h0Zm-7.28,.51c-.66,.56-1.32,1.11-1.99,1.65,1.01,.83,1.99,1.62,3.03,2.41,.73-.46,1.43-.91,2.14-1.39-1.08-.88-2.13-1.75-3.19-2.67h0Zm1.36,5.59c-.44,.18-.9,.32-1.37,.43,.87,.42,1.76,.8,2.66,1.11,.41,0,.87,0,1.3-.04-.89-.47-1.74-.96-2.59-1.49h0Zm-4.26-3.21c-.45,.33-.96,.67-1.47,.93,.88,.68,1.8,1.3,2.76,1.85,.55-.14,1.06-.32,1.57-.54-.97-.72-1.93-1.46-2.86-2.24h0Zm5.37,2.66c.97,.6,1.88,1.14,2.89,1.7,.78-.32,1.47-.64,2.22-1-1.02-.65-1.97-1.29-2.97-1.99-.73,.47-1.4,.88-2.14,1.29h0Zm6.45-.06c.99-.63,1.92-1.25,2.88-1.91-1.04-.79-2.07-1.58-3.09-2.39-.94,.74-1.88,1.46-2.84,2.18,1.01,.73,2.01,1.42,3.05,2.12h0Zm7.57-5.6c-1.05-.89-2.07-1.79-3.09-2.7-1.09,.97-2.19,1.92-3.3,2.87,1.03,.85,2.06,1.66,3.12,2.48,1.11-.87,2.19-1.74,3.27-2.65h0Zm4.79-4.4c-1-.98-1.99-1.95-2.98-2.94-1.14,1.11-2.29,2.21-3.45,3.3,1.02,.93,2.05,1.85,3.08,2.77,1.13-1.04,2.24-2.07,3.35-3.14h0Zm1.4-1.4c1.06-1.11,2.1-2.22,3.14-3.35-.92-1.03-1.84-2.06-2.77-3.08-1.09,1.16-2.19,2.31-3.3,3.45,.99,.99,1.96,1.98,2.94,2.98h0Zm4.56-11.18c-.95,1.11-1.9,2.2-2.87,3.3,.92,1.03,1.81,2.05,2.7,3.09,.9-1.08,1.78-2.16,2.65-3.27-.82-1.06-1.64-2.08-2.48-3.12h0Zm5.44-1.18c-.69-1.04-1.39-2.04-2.12-3.05-.72,.96-1.44,1.9-2.18,2.84,.81,1.03,1.6,2.05,2.39,3.09,.67-.96,1.28-1.89,1.91-2.88h0Zm1.76-3.57c-.56-1.01-1.1-1.92-1.7-2.89-.42,.74-.83,1.41-1.29,2.14,.7,1,1.34,1.95,1.99,2.97,.36-.75,.68-1.44,1-2.22h0Zm.35,7.55c-.41-.91-.8-1.69-1.27-2.56-.59,.96-1.17,1.87-1.8,2.82,.55,.85,1.06,1.66,1.57,2.53,.54-.94,1.01-1.8,1.5-2.79h0Zm-4.09,1.68c-.84,1.08-1.68,2.14-2.54,3.2,.66,.82,1.3,1.64,1.94,2.48,.79-1.03,1.53-2.05,2.28-3.11-.55-.89-1.09-1.71-1.67-2.56h0Zm-1.75,7.07c-.67-.83-1.34-1.63-2.02-2.45-1.01,1.11-2.02,2.19-3.05,3.28,.75,.77,1.49,1.53,2.24,2.29,.97-1.04,1.9-2.06,2.84-3.13h0Zm-7.29,7.29c1.07-.94,2.09-1.87,3.13-2.84-.76-.75-1.53-1.49-2.29-2.24-1.09,1.04-2.17,2.04-3.28,3.05,.81,.69,1.62,1.36,2.45,2.02h0Zm-1.4,1.15c-.84-.64-1.66-1.28-2.48-1.94-1.06,.87-2.12,1.71-3.2,2.54,.86,.59,1.68,1.12,2.57,1.67,1.07-.75,2.08-1.49,3.11-2.28h0Zm-4.57,3.2c-.86-.51-1.68-1.02-2.53-1.57-.94,.63-1.85,1.21-2.82,1.8,.86,.46,1.65,.86,2.56,1.27,.98-.49,1.85-.96,2.79-1.5h0Zm7.3-1.4c-.56-.32-1.06-.64-1.61-1-1,.75-1.96,1.44-2.98,2.14,.59,.27,1.1,.49,1.74,.72,1-.61,1.9-1.2,2.85-1.86h0Zm4.18-3.5c-.47-.44-.94-.89-1.41-1.33-1,.93-1.98,1.82-3.01,2.72,.54,.39,1.04,.73,1.6,1.09,.98-.82,1.88-1.61,2.82-2.47h0Zm3.7-4.05c-.36-.56-.7-1.06-1.09-1.6-.89,1.03-1.78,2.01-2.72,3.01,.45,.47,.89,.93,1.33,1.41,.86-.93,1.66-1.84,2.47-2.82h0Zm-6.96,8c-.71,.51-1.49,1.05-2.27,1.51,.04,0,.07,0,.11,0,.88-.41,1.73-.88,2.55-1.39-.14-.03-.28-.07-.39-.11h0ZM27.26,0c-.9,.33-1.67,.64-2.51,1.02,.56,.18,1.04,.37,1.63,.61,.88-.48,1.69-.91,2.57-1.33-.57-.14-1.03-.22-1.7-.3h0Zm8.04,1.9c-.79-.31-1.5-.55-2.36-.81-.79,.17-1.4,.34-2.1,.56,.82,.35,1.56,.71,2.38,1.12,.73-.33,1.37-.61,2.08-.88h0ZM3.29,21.64c-.42-.82-.77-1.57-1.12-2.38-.23,.71-.39,1.31-.56,2.1,.26,.86,.5,1.57,.81,2.36,.27-.71,.54-1.35,.88-2.08h0ZM45.11,6.97c.45-.33,.96-.67,1.47-.93-.88-.68-1.8-1.3-2.76-1.85-.55,.14-1.06,.32-1.57,.54,.97,.72,1.93,1.46,2.86,2.24h0Zm-4.26-3.21c.44-.18,.9-.32,1.36-.42-.87-.43-1.76-.8-2.65-1.11-.41,0-.87,0-1.3,.04,.88,.47,1.74,.96,2.59,1.49h0ZM1.25,10.62c-.38,.84-.69,1.6-1.02,2.51,.08,.67,.16,1.13,.3,1.7,.43-.88,.85-1.69,1.33-2.57-.25-.59-.43-1.07-.61-1.63h0Zm40.95-1.27c.66-.56,1.32-1.11,1.99-1.65-1.01-.84-1.99-1.62-3.03-2.41-.73,.46-1.43,.91-2.14,1.39,1.08,.88,2.13,1.75,3.18,2.67h0Zm-4.42-1.76c-.96,.75-1.91,1.5-2.85,2.27,1.14,.99,2.25,1.98,3.36,2.99,.91-.84,1.83-1.67,2.76-2.49-1.08-.95-2.15-1.86-3.26-2.77h0Zm-4.24,3.44c-1.12,.97-2.21,1.95-3.31,2.94,1.15,1.07,2.3,2.15,3.44,3.24,1.09-1.04,2.18-2.08,3.27-3.11-1.13-1.04-2.25-2.05-3.4-3.07h0Zm9.72,15.98c.99-1.1,1.97-2.2,2.94-3.31-1.01-1.15-2.03-2.27-3.07-3.4-1.03,1.1-2.07,2.19-3.11,3.27,1.09,1.14,2.16,2.28,3.24,3.44h0Zm-4.64-1.99c-1.15,1.18-2.3,2.35-3.46,3.52,1.13,1.13,2.26,2.27,3.39,3.41,1.13-1.15,2.24-2.31,3.36-3.48-1.09-1.16-2.18-2.3-3.28-3.45h0Zm-4.95-4.98c-1.18,1.16-2.35,2.32-3.53,3.49l3.55,3.55c1.16-1.17,2.33-2.35,3.49-3.53l-3.51-3.51h0Zm4.7-4.57l-3.26,3.16,3.47,3.47,3.16-3.26-3.38-3.38h0Zm-6.17,3.13c-1.15-1.1-2.29-2.19-3.45-3.28-1.17,1.11-2.33,2.23-3.48,3.36,1.14,1.13,2.27,2.26,3.41,3.39,1.17-1.16,2.34-2.31,3.52-3.46h0Zm-13.76,5.84c-.99,1.1-1.97,2.2-2.94,3.31,1.01,1.15,2.03,2.27,3.07,3.4,1.03-1.1,2.07-2.19,3.11-3.28-1.09-1.14-2.16-2.28-3.24-3.44h0Zm-3.95,12.61c-.91-1.06-1.79-2.1-2.67-3.19-.48,.71-.94,1.41-1.39,2.14,.79,1.05,1.57,2.02,2.41,3.03,.55-.67,1.09-1.33,1.65-1.99h0Zm-6.48-.88c-.53-.85-1.02-1.71-1.49-2.59-.05,.43-.06,.88-.05,1.27,.32,.92,.69,1.81,1.12,2.69,.1-.47,.24-.93,.43-1.36h0Zm1.32,2.5c.55,.96,1.17,1.88,1.85,2.76,.26-.51,.6-1.02,.93-1.47-.78-.93-1.52-1.88-2.24-2.86-.22,.51-.4,1.02-.54,1.57h0Zm1.93-8.5c-.7-1-1.34-1.95-1.99-2.97-.36,.75-.68,1.44-1,2.22,.56,1.01,1.1,1.92,1.7,2.89,.42-.74,.83-1.42,1.29-2.14h0Zm2.1-9.22c-.91,1.08-1.78,2.16-2.65,3.27,.82,1.06,1.64,2.08,2.48,3.12,.95-1.11,1.9-2.2,2.87-3.3-.92-1.03-1.81-2.05-2.7-3.09h0Zm5.47-5.76c-1.06,1.11-2.1,2.22-3.14,3.35,.92,1.03,1.84,2.06,2.77,3.08,1.09-1.16,2.19-2.31,3.3-3.45-.99-.99-1.96-1.98-2.94-2.98h0Zm7.35-2.64c-1.02-.93-2.05-1.85-3.08-2.77-1.13,1.04-2.24,2.08-3.35,3.14,1,.98,1.99,1.95,2.98,2.94,1.14-1.11,2.29-2.21,3.45-3.3h0Zm7.09-8.17c-.99,.63-1.92,1.24-2.88,1.91,1.04,.79,2.07,1.58,3.09,2.39,.94-.74,1.88-1.46,2.84-2.18-1.01-.73-2.01-1.42-3.05-2.12h0Zm3.57-1.76c-.78,.32-1.47,.64-2.22,1,1.02,.65,1.97,1.29,2.97,1.99,.73-.46,1.4-.87,2.14-1.29-.97-.6-1.88-1.14-2.89-1.7h0Zm-7.81,2.71c.94-.63,1.85-1.21,2.82-1.8-.86-.46-1.65-.86-2.56-1.27-.98,.49-1.85,.96-2.79,1.5,.86,.51,1.68,1.02,2.53,1.57h0Zm-12.08,2.5c-1.07,.94-2.09,1.87-3.13,2.84,.76,.75,1.53,1.49,2.29,2.24,1.09-1.04,2.17-2.04,3.28-3.05-.81-.69-1.62-1.36-2.45-2.02h0Zm-6.23-3.16c.67,.83,1.34,1.63,2.02,2.45,1.01-1.11,2.02-2.19,3.05-3.28-.75-.77-1.49-1.53-2.24-2.29-.97,1.04-1.9,2.06-2.84,3.13h0Zm-2.35,16.9c-.55-.85-1.06-1.66-1.57-2.53-.54,.94-1.01,1.8-1.5,2.79,.41,.91,.8,1.69,1.27,2.56,.59-.96,1.17-1.87,1.8-2.82h0Zm-.78-12.04c-.66,.95-1.25,1.85-1.86,2.85,.23,.64,.44,1.15,.72,1.74,.7-1.02,1.39-1.98,2.14-2.98-.36-.55-.68-1.05-1-1.61h0Z"/></g><g><path class="cls-2" d="M69.88,11.28l-1.23,6.47c-.03,.1-.08,.18-.16,.25s-.18,.1-.3,.1h-1.23c-.11,0-.21-.03-.3-.1-.09-.07-.14-.15-.15-.26l-.9-4.73c-.03-.14-.05-.29-.07-.42-.02-.14-.04-.28-.06-.42h-.2c-.02,.14-.04,.28-.06,.42-.02,.14-.04,.28-.06,.42l-.89,4.73c-.02,.11-.07,.19-.16,.26s-.18,.1-.3,.1h-1.24c-.12,0-.22-.03-.3-.1-.08-.07-.13-.15-.15-.25l-1.23-6.47h1.27l.86,4.99c.02,.13,.04,.28,.05,.44,.02,.16,.03,.32,.05,.48h.21c.03-.15,.05-.31,.08-.47s.05-.31,.08-.46l.88-4.6c.01-.12,.06-.21,.15-.28,.09-.07,.18-.1,.3-.1h1.12c.12,0,.22,.03,.3,.1,.08,.07,.13,.16,.16,.28l.88,4.61c.03,.15,.06,.31,.08,.46s.04,.31,.06,.46h.22c.01-.15,.03-.31,.05-.46,.02-.16,.04-.31,.06-.44l.86-5h1.27Z"/><path class="cls-2" d="M73.73,11.15c.53,0,.97,.06,1.33,.17,.36,.12,.65,.31,.87,.58,.22,.27,.38,.63,.48,1.09,.1,.45,.15,1.02,.15,1.7s-.05,1.24-.15,1.7c-.1,.46-.26,.82-.48,1.09-.22,.27-.51,.46-.87,.58-.36,.12-.81,.17-1.33,.17s-.95-.06-1.31-.17-.66-.31-.88-.58c-.22-.27-.39-.63-.48-1.09-.1-.46-.15-1.02-.15-1.7s.05-1.25,.15-1.7c.1-.45,.26-.82,.48-1.09,.22-.27,.52-.46,.88-.58s.8-.17,1.31-.17Zm0,1.01c-.39,0-.69,.08-.91,.23s-.38,.42-.47,.78c-.09,.37-.14,.87-.14,1.52s.05,1.15,.14,1.52c.09,.37,.25,.63,.47,.78s.53,.23,.91,.23,.7-.08,.92-.23,.38-.42,.47-.78,.14-.87,.14-1.52-.05-1.15-.14-1.52-.25-.63-.47-.78-.53-.23-.92-.23Z"/><path class="cls-2" d="M80.6,11.19c.57,0,1.03,.06,1.38,.18s.61,.32,.77,.61c.16,.29,.24,.69,.24,1.21,0,.34-.04,.63-.12,.87-.08,.24-.22,.43-.41,.57-.19,.14-.44,.23-.76,.27v.05c.11,.03,.23,.08,.35,.15,.12,.08,.23,.18,.34,.32,.1,.14,.18,.32,.23,.53l.62,2.14h-1.3l-.56-2.11c-.07-.24-.17-.4-.3-.5-.13-.1-.3-.14-.51-.14-.43,0-.79,0-1.1,0s-.56,0-.76-.01c-.2,0-.38-.01-.53-.01l.03-.94h2.35c.3,0,.53-.04,.7-.1s.29-.17,.37-.34c.07-.16,.11-.39,.11-.69s-.04-.51-.11-.67c-.07-.16-.19-.27-.37-.33s-.41-.09-.7-.09c-.58,0-1.08,0-1.49,.01-.42,0-.7,.01-.85,.02l-.14-.91c.26-.03,.51-.05,.75-.06,.23-.01,.49-.02,.77-.02s.61,0,1,0Zm-1.29,.09v6.82h-1.22v-6.82h1.22Z"/><path class="cls-2" d="M85.81,11.28v5.24c0,.19,.05,.33,.15,.43,.1,.1,.25,.14,.44,.14h2.41l.06,.94c-.45,.04-.91,.06-1.4,.07s-.96,.01-1.44,.01c-.5,0-.87-.13-1.1-.39s-.35-.58-.35-.98v-5.48h1.23Z"/><path class="cls-2" d="M92.61,11.19c.51,0,.95,.06,1.31,.17,.36,.12,.65,.31,.87,.57s.38,.63,.48,1.08c.1,.45,.15,1.01,.15,1.68s-.05,1.22-.15,1.68c-.1,.45-.26,.81-.48,1.08-.22,.27-.51,.46-.87,.57-.36,.12-.8,.17-1.31,.17s-.95,0-1.37-.02c-.42-.02-.82-.04-1.2-.06l.51-.95c.26,.01,.57,.02,.91,.03,.34,.01,.72,.02,1.15,.02,.38,0,.68-.07,.9-.22,.22-.15,.38-.41,.47-.77s.14-.87,.14-1.52-.05-1.15-.14-1.52-.25-.62-.47-.78c-.22-.15-.52-.23-.9-.23-.41,0-.77,0-1.09,0-.32,0-.63,0-.93,0l-.54-.91c.38-.03,.77-.05,1.19-.06,.42-.02,.88-.02,1.38-.02Zm-1.33,.09v6.82h-1.24v-6.82h1.24Z"/><path class="cls-2" d="M101.62,11.28v6.82h-1.24v-6.82h1.24Zm2.85,2.7v.97h-2.93v-.97h2.93Zm1.13-2.7v6.82h-1.24v-6.82h1.24Z"/><path class="cls-2" d="M108.7,11.26h1.05c.36,0,.71,0,1.06,.02s.68,.03,.99,.06l-.06,.92h-2.67c-.18,0-.32,.05-.41,.14s-.13,.24-.13,.44v3.72c0,.2,.04,.34,.13,.43,.09,.09,.23,.14,.41,.14h2.67l.06,.92c-.31,.03-.64,.04-.99,.05s-.7,.02-1.06,.02c-.36,0-.71,0-1.05,0-.42,0-.76-.12-1.01-.35-.25-.23-.38-.55-.39-.94v-4.27c0-.4,.14-.71,.39-.94,.25-.23,.59-.35,1.01-.35Zm-1.23,2.82h3.89v.91h-3.89v-.91Z"/><path class="cls-2" d="M116.23,11.28c.11,0,.2,.03,.28,.09s.13,.14,.17,.24l2.07,6.49h-1.27l-1.56-5.26c-.03-.1-.05-.21-.08-.32-.03-.1-.05-.21-.07-.31h-.28c-.02,.1-.04,.2-.07,.31-.03,.11-.06,.21-.09,.32l-1.55,5.26h-1.27l2.07-6.49c.03-.1,.08-.18,.16-.24s.18-.09,.28-.09h1.21Zm1.15,3.9v.97h-3.51v-.97h3.51Z"/><path class="cls-2" d="M124.11,11.28v1.01h-5.47v-1.01h5.47Zm-2.12,0v6.82h-1.24v-6.82h1.24Z"/><path class="cls-2" d="M67.05,22.06c.34,0,.68,0,1.02,0,.35,0,.69,.01,1.03,.02s.65,.03,.94,.06l-.06,.91h-2.51c-.2,0-.35,.05-.44,.14-.1,.09-.15,.24-.15,.44v5.27h-1.24v-5.52c0-.42,.13-.74,.39-.97,.26-.23,.6-.35,1.02-.35Zm-1.24,2.93h3.8v.91h-3.8v-.91Z"/><path class="cls-2" d="M72.54,22.08v5.24c0,.19,.05,.33,.15,.43,.1,.1,.25,.14,.44,.14h2.41l.06,.94c-.45,.04-.91,.06-1.4,.07s-.96,.01-1.44,.01c-.5,0-.87-.13-1.1-.39s-.35-.58-.35-.98v-5.48h1.23Z"/><path class="cls-2" d="M79.23,21.95c.53,0,.97,.06,1.33,.17,.36,.12,.65,.31,.87,.58,.22,.27,.38,.63,.48,1.09,.1,.45,.15,1.02,.15,1.7s-.05,1.24-.15,1.7c-.1,.46-.26,.82-.48,1.09-.22,.27-.51,.46-.87,.58-.36,.12-.81,.17-1.33,.17s-.95-.06-1.31-.17-.66-.31-.88-.58c-.22-.27-.39-.63-.48-1.09-.1-.46-.15-1.02-.15-1.7s.05-1.25,.15-1.7c.1-.45,.26-.82,.48-1.09,.22-.27,.52-.46,.88-.58s.8-.17,1.31-.17Zm0,1.01c-.39,0-.69,.08-.91,.23s-.38,.42-.47,.78c-.09,.37-.14,.87-.14,1.52s.05,1.15,.14,1.52c.09,.37,.25,.63,.47,.78s.53,.23,.91,.23,.7-.08,.92-.23,.38-.42,.47-.78,.14-.87,.14-1.52-.05-1.15-.14-1.52-.25-.63-.47-.78-.53-.23-.92-.23Z"/><path class="cls-2" d="M92.07,22.08l-1.23,6.47c-.03,.1-.08,.18-.16,.25s-.18,.1-.3,.1h-1.23c-.11,0-.21-.03-.3-.1-.09-.07-.14-.15-.15-.26l-.9-4.73c-.03-.14-.05-.29-.07-.42-.02-.14-.04-.28-.06-.42h-.2c-.02,.14-.04,.28-.06,.42-.02,.14-.04,.28-.06,.42l-.89,4.73c-.02,.11-.07,.19-.16,.26s-.18,.1-.3,.1h-1.24c-.12,0-.22-.03-.3-.1-.08-.07-.13-.15-.15-.25l-1.23-6.47h1.27l.86,4.99c.02,.13,.04,.28,.05,.44,.02,.16,.03,.32,.05,.48h.21c.03-.15,.05-.31,.08-.47s.05-.31,.08-.46l.88-4.6c.01-.12,.06-.21,.15-.28,.09-.07,.18-.1,.3-.1h1.12c.12,0,.22,.03,.3,.1,.08,.07,.13,.16,.16,.28l.88,4.61c.03,.15,.06,.31,.08,.46s.04,.31,.06,.46h.22c.01-.15,.03-.31,.05-.46,.02-.16,.04-.31,.06-.44l.86-5h1.27Z"/><path class="cls-2" d="M99.34,21.99c.51,0,.95,.06,1.31,.17,.36,.12,.65,.31,.87,.57s.38,.63,.48,1.08c.1,.45,.15,1.01,.15,1.68s-.05,1.22-.15,1.68c-.1,.45-.26,.81-.48,1.08-.22,.27-.51,.46-.87,.57-.36,.12-.8,.17-1.31,.17s-.95,0-1.37-.02c-.42-.02-.82-.04-1.2-.06l.51-.95c.26,.01,.57,.02,.91,.03,.34,.01,.72,.02,1.15,.02,.38,0,.68-.07,.9-.22,.22-.15,.38-.41,.47-.77s.14-.87,.14-1.52-.05-1.15-.14-1.52-.25-.62-.47-.78c-.22-.15-.52-.23-.9-.23-.41,0-.77,0-1.09,0-.32,0-.63,0-.93,0l-.54-.91c.38-.03,.77-.05,1.19-.06,.42-.02,.88-.02,1.38-.02Zm-1.33,.09v6.82h-1.24v-6.82h1.24Z"/><path class="cls-2" d="M106.64,22.08c.11,0,.2,.03,.28,.09s.13,.14,.17,.24l2.07,6.49h-1.27l-1.56-5.26c-.03-.1-.05-.21-.08-.32-.03-.1-.05-.21-.07-.31h-.28c-.02,.1-.04,.2-.07,.31-.03,.11-.06,.21-.09,.32l-1.55,5.26h-1.27l2.07-6.49c.03-.1,.08-.18,.16-.24s.18-.09,.28-.09h1.21Zm1.15,3.9v.97h-3.51v-.97h3.51Z"/><path class="cls-2" d="M114.52,22.08v1.01h-5.47v-1.01h5.47Zm-2.12,0v6.82h-1.24v-6.82h1.24Z"/><path class="cls-2" d="M118.14,22.08c.11,0,.2,.03,.28,.09s.13,.14,.17,.24l2.07,6.49h-1.27l-1.56-5.26c-.03-.1-.05-.21-.08-.32-.03-.1-.05-.21-.07-.31h-.28c-.02,.1-.04,.2-.07,.31-.03,.11-.06,.21-.09,.32l-1.55,5.26h-1.27l2.07-6.49c.03-.1,.08-.18,.16-.24s.18-.09,.28-.09h1.21Zm1.15,3.9v.97h-3.51v-.97h3.51Z"/><path class="cls-2" d="M124.12,22c.58,0,1.04,.05,1.38,.15,.34,.1,.59,.28,.75,.54s.23,.62,.23,1.09-.09,.86-.28,1.12c-.18,.26-.49,.41-.91,.44v.04c.52,.05,.88,.22,1.09,.53,.21,.31,.31,.74,.31,1.29,0,.47-.08,.83-.23,1.09s-.4,.44-.73,.54c-.33,.1-.77,.15-1.3,.15-.42,0-.78,0-1.09,0-.31,0-.59-.01-.85-.02-.26-.01-.52-.03-.8-.05l.14-.9c.16,0,.45,.01,.88,.02,.43,0,.93,.01,1.51,.01,.31,0,.55-.03,.73-.08,.18-.06,.3-.16,.38-.32,.08-.15,.11-.37,.11-.66,0-.32-.04-.56-.12-.73-.08-.17-.21-.29-.39-.36-.18-.07-.44-.1-.77-.1h-2.35v-.84h2.34c.28,0,.51-.03,.67-.08,.16-.06,.28-.16,.35-.3,.07-.15,.11-.35,.11-.62s-.04-.48-.11-.62c-.08-.14-.2-.24-.38-.29-.18-.05-.42-.07-.74-.07h-.93c-.27,0-.51,0-.72,0-.21,0-.4,.01-.57,.02l-.14-.9c.25-.03,.49-.04,.72-.05,.23,0,.48-.02,.75-.02s.59,0,.95,0Zm-1.22,.08v6.82h-1.21v-6.82h1.21Z"/><path class="cls-2" d="M131.18,22.08c.11,0,.2,.03,.28,.09s.13,.14,.17,.24l2.07,6.49h-1.27l-1.56-5.26c-.03-.1-.05-.21-.08-.32-.03-.1-.05-.21-.07-.31h-.28c-.02,.1-.04,.2-.07,.31-.03,.11-.06,.21-.09,.32l-1.55,5.26h-1.27l2.07-6.49c.03-.1,.08-.18,.16-.24s.18-.09,.28-.09h1.21Zm1.15,3.9v.97h-3.51v-.97h3.51Z"/><path class="cls-2" d="M136.84,21.95c.34,0,.69,.03,1.06,.06,.37,.03,.74,.1,1.09,.19l-.08,.84c-.28,0-.61-.01-.98-.02-.37,0-.73-.02-1.07-.02-.21,0-.39,0-.54,.02-.15,.01-.27,.05-.36,.1-.09,.05-.16,.13-.2,.24-.04,.11-.06,.26-.06,.45,0,.3,.06,.51,.18,.63,.12,.13,.32,.22,.6,.3l1.34,.4c.54,.17,.91,.4,1.12,.72s.31,.73,.31,1.25c0,.39-.05,.71-.14,.96-.09,.25-.23,.44-.42,.58-.19,.14-.44,.24-.75,.3s-.68,.09-1.12,.09c-.22,0-.53-.01-.92-.04s-.84-.09-1.34-.2l.08-.89c.39,.01,.71,.02,.98,.03s.49,.02,.68,.02h.53c.3,0,.54-.02,.71-.06,.17-.04,.29-.12,.36-.25,.07-.12,.1-.31,.1-.54,0-.2-.02-.36-.07-.48s-.13-.21-.24-.27c-.11-.07-.26-.12-.44-.17l-1.39-.43c-.51-.16-.87-.39-1.08-.7-.21-.31-.31-.72-.31-1.25,0-.39,.05-.71,.14-.95s.23-.44,.43-.56c.19-.13,.44-.22,.74-.27,.3-.05,.66-.07,1.08-.07Z"/><path class="cls-2" d="M142.01,22.06h1.05c.36,0,.71,0,1.06,.02s.68,.03,.99,.06l-.06,.92h-2.67c-.18,0-.32,.05-.41,.14s-.13,.24-.13,.44v3.72c0,.2,.04,.34,.13,.43,.09,.09,.23,.14,.41,.14h2.67l.06,.92c-.31,.03-.64,.04-.99,.05s-.7,.02-1.06,.02c-.36,0-.71,0-1.05,0-.42,0-.76-.12-1.01-.35-.25-.23-.38-.55-.39-.94v-4.27c0-.4,.14-.71,.39-.94,.25-.23,.59-.35,1.01-.35Zm-1.23,2.82h3.89v.91h-3.89v-.91Z"/><path class="cls-1" d="M64.74,32.79c.6,0,1.07,.06,1.41,.19,.34,.13,.59,.35,.74,.66,.15,.31,.22,.76,.22,1.33s-.07,1.02-.21,1.33c-.14,.32-.38,.54-.7,.66-.33,.12-.76,.19-1.3,.19-.3,0-.58,0-.85-.03-.27-.02-.53-.05-.76-.08-.23-.03-.43-.07-.6-.1-.17-.04-.28-.07-.35-.09l.03-.66h2.35c.29,0,.52-.04,.69-.11s.29-.19,.36-.36c.07-.17,.1-.42,.1-.75s-.03-.57-.1-.75c-.07-.17-.19-.3-.36-.37s-.4-.1-.69-.1c-.58,0-1.08,0-1.49,.01-.42,0-.7,.02-.85,.03l-.14-.92c.26-.03,.51-.05,.75-.06,.23-.01,.49-.02,.76-.02s.6,0,.99,0Zm-1.27,.09v6.82h-1.24v-6.82h1.24Z"/><path class="cls-1" d="M70.97,32.79c.57,0,1.03,.06,1.38,.18s.61,.32,.77,.61c.16,.29,.24,.69,.24,1.21,0,.34-.04,.63-.12,.87-.08,.24-.22,.43-.41,.57-.19,.14-.44,.23-.76,.27v.05c.11,.03,.23,.08,.35,.15,.12,.08,.23,.18,.34,.32,.1,.14,.18,.32,.23,.53l.62,2.14h-1.3l-.56-2.11c-.07-.24-.17-.4-.3-.5-.13-.1-.3-.14-.51-.14-.43,0-.79,0-1.1,0s-.56,0-.76-.01c-.2,0-.38-.01-.53-.01l.03-.94h2.35c.3,0,.53-.04,.7-.1s.29-.17,.37-.34c.07-.16,.11-.39,.11-.69s-.04-.51-.11-.67c-.07-.16-.19-.27-.37-.33s-.41-.09-.7-.09c-.58,0-1.08,0-1.49,.01-.42,0-.7,.01-.85,.02l-.14-.91c.26-.03,.51-.05,.75-.06,.23-.01,.49-.02,.77-.02s.61,0,1,0Zm-1.29,.09v6.82h-1.22v-6.82h1.22Z"/><path class="cls-1" d="M77.56,32.75c.53,0,.97,.06,1.33,.17,.36,.12,.65,.31,.87,.58,.22,.27,.38,.63,.48,1.09,.1,.45,.15,1.02,.15,1.7s-.05,1.24-.15,1.7c-.1,.46-.26,.82-.48,1.09-.22,.27-.51,.46-.87,.58-.36,.12-.81,.17-1.33,.17s-.95-.06-1.31-.17-.66-.31-.88-.58c-.22-.27-.39-.63-.48-1.09-.1-.46-.15-1.02-.15-1.7s.05-1.25,.15-1.7c.1-.45,.26-.82,.48-1.09,.22-.27,.52-.46,.88-.58s.8-.17,1.31-.17Zm0,1.01c-.39,0-.69,.08-.91,.23s-.38,.42-.47,.78c-.09,.37-.14,.87-.14,1.52s.05,1.15,.14,1.52c.09,.37,.25,.63,.47,.78s.53,.23,.91,.23,.7-.08,.92-.23,.38-.42,.47-.78,.14-.87,.14-1.52-.05-1.15-.14-1.52-.25-.63-.47-.78-.53-.23-.92-.23Z"/><path class="cls-1" d="M83.8,32.88v5.44c0,.49-.13,.86-.38,1.11-.25,.25-.61,.38-1.08,.38-.1,0-.22,0-.37-.01s-.28-.03-.42-.05-.24-.06-.33-.09l.14-.83h.48c.48,0,.72-.21,.72-.63v-5.3h1.23Z"/><path class="cls-1" d="M86.88,32.86h1.05c.36,0,.71,0,1.06,.02s.68,.03,.99,.06l-.06,.92h-2.67c-.18,0-.32,.05-.41,.14s-.13,.24-.13,.44v3.72c0,.2,.04,.34,.13,.43,.09,.09,.23,.14,.41,.14h2.67l.06,.92c-.31,.03-.64,.04-.99,.05s-.7,.02-1.06,.02c-.36,0-.71,0-1.05,0-.42,0-.76-.12-1.01-.35-.25-.23-.38-.55-.39-.94v-4.27c0-.4,.14-.71,.39-.94,.25-.23,.59-.35,1.01-.35Zm-1.23,2.82h3.89v.91h-3.89v-.91Z"/><path class="cls-1" d="M93.91,32.76c.31,0,.57,0,.79,.02,.22,.02,.42,.04,.6,.07s.38,.07,.57,.12l-.11,.92c-.2-.01-.4-.02-.57-.03-.18,0-.37-.02-.57-.02-.2,0-.44,0-.72,0-.38,0-.68,.08-.9,.23-.22,.15-.37,.41-.46,.76-.09,.36-.13,.85-.13,1.47s.04,1.12,.13,1.47c.09,.36,.24,.61,.46,.76,.22,.15,.52,.23,.9,.23,.44,0,.81,0,1.11-.02s.59-.04,.88-.07l.11,.91c-.3,.09-.6,.16-.92,.2s-.71,.06-1.19,.06c-.69,0-1.23-.11-1.64-.34-.41-.23-.7-.6-.88-1.11-.18-.51-.27-1.21-.27-2.08s.09-1.56,.27-2.08c.18-.51,.48-.88,.88-1.11,.41-.23,.96-.34,1.64-.34Z"/><path class="cls-1" d="M102.22,32.88v1.01h-5.47v-1.01h5.47Zm-2.12,0v6.82h-1.24v-6.82h1.24Z"/></g></svg>