<?xml version="1.0" encoding="UTF-8"?>
<svg width="16" height="14.662" version="1.1" viewBox="0 0 16 14.662" xmlns="http://www.w3.org/2000/svg"><defs><style>.cls-1,.cls-2{fill:#fff;}.cls-3{fill:#699bd1;}.cls-4,.cls-5{fill:#354b9b;}.cls-6{fill:#3b95d2;}.cls-6,.cls-7{opacity:.66;}.cls-6,.cls-7,.cls-5,.cls-2{fill-rule:evenodd;}.cls-7{fill:#c1e5fb;}</style></defs><g transform="matrix(.40302 0 0 .40302 -7.8791 -40.52)"><path class="cls-6" d="m24.11 101.21c-0.61 0.66-1.17 1.3-1.75 1.99 0.25 0.4 0.5 0.75 0.77 1.13 0.63-0.73 1.26-1.42 1.92-2.13-0.32-0.33-0.63-0.66-0.94-1zm32.9 23.3c-0.5 0.72-0.98 1.4-1.51 2.1 0.26 0.39 0.48 0.74 0.71 1.14 0.46-0.67 0.88-1.31 1.31-2.01-0.16-0.45-0.31-0.81-0.51-1.23zm0.58 2.3c-0.32 0.55-0.7 1.1-1.06 1.59 0.03 0.08 0.06 0.18 0.08 0.28 0.36-0.58 0.69-1.18 0.97-1.78v-0.09zm-1.78 2.55c-0.48 0.62-1.09 1.28-1.61 1.84 0.08 0.09 0.17 0.2 0.25 0.29 0.52-0.56 1.01-1.14 1.44-1.73 0-0.14-0.04-0.27-0.08-0.4zm-2.16 2.93c-0.1-0.08-0.2-0.16-0.29-0.25-0.56 0.53-1.22 1.14-1.84 1.62 0.12 0.05 0.25 0.09 0.36 0.09h0.01c0.62-0.45 1.2-0.93 1.76-1.45zm4.95-10.61c-0.3 0.62-0.6 1.2-0.94 1.82 0.18 0.42 0.31 0.76 0.43 1.15 0.27-0.59 0.49-1.13 0.72-1.77-0.06-0.48-0.11-0.8-0.22-1.2zm-0.09-5.28c-0.19 0.5-0.38 0.96-0.62 1.47 0.29 0.58 0.54 1.11 0.79 1.68 0.16-0.5 0.28-0.93 0.4-1.49-0.18-0.61-0.35-1.11-0.57-1.67zm-18.48 19.33c-0.51 0.24-0.97 0.43-1.47 0.62 0.56 0.22 1.06 0.39 1.67 0.57 0.56-0.12 0.99-0.24 1.49-0.4-0.58-0.25-1.1-0.5-1.68-0.79zm16.48-24.25c0.15-0.36 0.28-0.72 0.38-1.11-0.39-0.68-0.83-1.33-1.31-1.95-0.18 0.36-0.43 0.72-0.66 1.04 0.55 0.66 1.07 1.33 1.58 2.02zm0.68 0.99c0.38 0.6 0.72 1.2 1.06 1.83 0.03-0.31 0.04-0.62 0.03-0.9-0.23-0.65-0.49-1.28-0.79-1.9-0.07 0.33-0.17 0.65-0.3 0.96zm-3.09-3.93c0.27-0.33 0.52-0.64 0.74-1.01-0.25-0.29-0.52-0.57-0.79-0.84s-0.55-0.54-0.84-0.79c-0.37 0.22-0.68 0.47-1.01 0.74 0.32 0.31 0.65 0.62 0.97 0.94s0.63 0.64 0.94 0.97zm-7.3 27.39c-0.39-0.13-0.74-0.26-1.15-0.43-0.62 0.34-1.2 0.64-1.82 0.94 0.4 0.1 0.72 0.16 1.2 0.22 0.64-0.23 1.18-0.46 1.77-0.72zm-17.12-3.24c0.37-0.22 0.68-0.47 1.01-0.74-0.32-0.31-0.65-0.62-0.97-0.94s-0.63-0.64-0.94-0.97c-0.27 0.33-0.52 0.64-0.74 1.01 0.25 0.29 0.52 0.57 0.79 0.84s0.55 0.54 0.84 0.79zm1.64-1.27c0.46-0.4 0.92-0.81 1.37-1.22-0.36-0.35-0.73-0.71-1.09-1.06-0.36-0.36-0.71-0.72-1.06-1.09-0.41 0.45-0.82 0.91-1.22 1.37 0.33 0.34 0.65 0.68 0.99 1.02 0.33 0.33 0.68 0.66 1.02 0.99zm-0.05-4.18c0.36 0.38 0.73 0.75 1.1 1.12s0.75 0.74 1.12 1.1c0.64-0.6 1.28-1.2 1.92-1.81-0.39-0.39-0.79-0.77-1.18-1.16s-0.77-0.78-1.16-1.18c-0.6 0.64-1.21 1.28-1.81 1.92zm4.93-5.16-2.23 2.3c0.39 0.4 0.79 0.8 1.19 1.2s0.8 0.79 1.2 1.19l2.3-2.23c-0.41-0.41-0.82-0.81-1.23-1.22s-0.82-0.82-1.22-1.23zm5.97-1.01c-0.42-0.42-0.84-0.83-1.25-1.25l-1.25-1.25c-0.82 0.83-1.64 1.66-2.46 2.49 0.41 0.41 0.82 0.83 1.24 1.24 0.41 0.41 0.83 0.82 1.24 1.24l2.49-2.46zm7.63-7.8c0.6-0.64 1.21-1.28 1.81-1.92-0.36-0.38-0.73-0.75-1.1-1.12s-0.75-0.73-1.12-1.1c-0.64 0.6-1.28 1.2-1.92 1.81 0.39 0.39 0.79 0.77 1.18 1.16s0.77 0.78 1.16 1.18zm3.76-4.1c-0.33-0.34-0.65-0.68-0.99-1.02-0.33-0.33-0.68-0.66-1.02-0.99-0.46 0.4-0.92 0.81-1.37 1.22 0.36 0.35 0.73 0.71 1.09 1.06 0.36 0.36 0.71 0.72 1.06 1.09 0.41-0.45 0.82-0.91 1.22-1.37zm2.54 3.08c-0.56-0.74-1.11-1.43-1.7-2.14-0.38 0.47-0.77 0.94-1.17 1.41 0.65 0.75 1.26 1.48 1.88 2.25 0.34-0.5 0.66-1 0.98-1.51zm-3.59 0.08c-0.58 0.66-1.16 1.3-1.76 1.95 0.72 0.79 1.42 1.57 2.11 2.38 0.54-0.67 1.07-1.34 1.6-2.02-0.65-0.78-1.29-1.54-1.96-2.31zm-6.9 12.16c-0.8-0.8-1.61-1.6-2.41-2.39-0.83 0.82-1.66 1.63-2.49 2.45 0.81 0.78 1.62 1.55 2.44 2.32 0.83-0.79 1.64-1.57 2.46-2.37zm-3.49 3.33c-0.81-0.76-1.62-1.52-2.43-2.29-0.77 0.74-1.54 1.47-2.31 2.2 0.8 0.73 1.59 1.45 2.4 2.17 0.79-0.69 1.56-1.38 2.34-2.08zm-3.32 2.9c-0.8-0.7-1.59-1.4-2.38-2.11-0.65 0.6-1.29 1.18-1.95 1.76 0.76 0.67 1.52 1.31 2.31 1.96 0.68-0.53 1.35-1.06 2.02-1.6zm-5.14 0.36c-0.47 0.39-0.93 0.78-1.41 1.17 0.71 0.59 1.41 1.14 2.14 1.7 0.52-0.32 1.01-0.65 1.51-0.98-0.77-0.62-1.5-1.24-2.25-1.88zm0.96 3.95c-0.31 0.13-0.63 0.23-0.96 0.3 0.62 0.3 1.24 0.56 1.88 0.79 0.29 0 0.61 0 0.92-0.03-0.63-0.33-1.23-0.68-1.83-1.06zm-3.01-2.27c-0.32 0.23-0.68 0.48-1.04 0.66 0.62 0.48 1.27 0.92 1.95 1.31 0.39-0.1 0.75-0.23 1.11-0.38-0.69-0.51-1.36-1.03-2.02-1.58zm3.79 1.88c0.68 0.43 1.33 0.81 2.04 1.2 0.55-0.23 1.04-0.45 1.57-0.71-0.72-0.46-1.39-0.91-2.1-1.41-0.51 0.33-0.99 0.62-1.51 0.91zm4.56-0.04c0.7-0.44 1.36-0.88 2.03-1.35-0.74-0.56-1.46-1.12-2.18-1.69-0.67 0.53-1.33 1.03-2.01 1.54 0.72 0.52 1.42 1.01 2.16 1.5zm5.35-3.96c-0.74-0.63-1.46-1.26-2.19-1.91-0.77 0.69-1.54 1.36-2.33 2.03 0.73 0.6 1.46 1.18 2.2 1.75 0.79-0.62 1.55-1.23 2.31-1.87zm3.38-3.11c-0.71-0.69-1.41-1.38-2.11-2.08-0.81 0.79-1.62 1.56-2.44 2.33 0.72 0.66 1.45 1.31 2.18 1.96 0.8-0.73 1.58-1.47 2.37-2.22zm0.99-0.99c0.75-0.78 1.48-1.57 2.22-2.37-0.65-0.73-1.3-1.46-1.96-2.18-0.77 0.82-1.55 1.63-2.33 2.44 0.7 0.7 1.39 1.4 2.08 2.11zm3.22-7.9c-0.67 0.79-1.34 1.56-2.03 2.33 0.65 0.72 1.28 1.45 1.91 2.19 0.64-0.77 1.25-1.53 1.87-2.31-0.58-0.75-1.16-1.47-1.75-2.2zm3.84-0.83c-0.49-0.74-0.98-1.44-1.5-2.16-0.51 0.68-1.01 1.34-1.54 2.01 0.57 0.73 1.13 1.45 1.69 2.18 0.47-0.68 0.91-1.33 1.35-2.03zm1.24-2.52c-0.39-0.71-0.78-1.36-1.2-2.04-0.29 0.52-0.58 1-0.91 1.51 0.49 0.7 0.95 1.38 1.41 2.1 0.26-0.53 0.48-1.02 0.71-1.57zm0.25 5.34c-0.29-0.64-0.57-1.2-0.89-1.81-0.41 0.68-0.83 1.32-1.27 1.99 0.39 0.6 0.75 1.18 1.11 1.78 0.38-0.66 0.71-1.27 1.06-1.97zm-2.89 1.19c-0.59 0.77-1.19 1.51-1.8 2.26 0.47 0.58 0.92 1.16 1.37 1.75 0.56-0.73 1.08-1.45 1.61-2.2-0.39-0.63-0.77-1.21-1.18-1.81zm-1.24 5c-0.47-0.58-0.95-1.15-1.43-1.73-0.71 0.79-1.42 1.55-2.16 2.32 0.53 0.54 1.05 1.08 1.58 1.62 0.69-0.73 1.34-1.46 2.01-2.21zm-5.15 5.15c0.76-0.66 1.48-1.32 2.21-2-0.54-0.53-1.08-1.06-1.62-1.58-0.77 0.73-1.53 1.44-2.32 2.16 0.57 0.48 1.14 0.96 1.73 1.43zm-0.99 0.81c-0.59-0.45-1.17-0.9-1.75-1.37-0.75 0.61-1.49 1.21-2.26 1.8 0.61 0.41 1.19 0.79 1.81 1.18 0.75-0.53 1.47-1.05 2.2-1.61zm-3.23 2.26c-0.61-0.36-1.19-0.72-1.79-1.11-0.67 0.44-1.31 0.86-1.99 1.27 0.61 0.33 1.17 0.6 1.81 0.89 0.69-0.34 1.31-0.68 1.97-1.06zm5.16-0.99c-0.39-0.23-0.75-0.45-1.14-0.71-0.7 0.53-1.38 1.02-2.1 1.51 0.42 0.19 0.78 0.35 1.23 0.51 0.7-0.43 1.34-0.85 2.01-1.31zm2.96-2.48c-0.33-0.31-0.67-0.63-1-0.94-0.71 0.66-1.4 1.29-2.13 1.92 0.38 0.27 0.73 0.52 1.13 0.77 0.69-0.58 1.33-1.14 1.99-1.75zm2.61-2.86c-0.25-0.4-0.5-0.75-0.77-1.13-0.63 0.73-1.26 1.42-1.92 2.13 0.32 0.33 0.63 0.66 0.94 1 0.61-0.66 1.17-1.3 1.75-1.99zm-4.92 5.65c-0.5 0.36-1.05 0.74-1.6 1.06h0.08c0.62-0.29 1.22-0.62 1.8-0.98-0.1-0.02-0.19-0.05-0.28-0.08zm-11.9-33.48c-0.64 0.23-1.18 0.46-1.77 0.72 0.4 0.13 0.74 0.26 1.15 0.43 0.62-0.34 1.2-0.64 1.82-0.94-0.4-0.1-0.72-0.16-1.2-0.22zm5.68 1.34c-0.56-0.22-1.06-0.39-1.67-0.57-0.56 0.12-0.99 0.24-1.49 0.4 0.58 0.25 1.1 0.5 1.68 0.79 0.52-0.24 0.97-0.43 1.47-0.62zm-22.61 13.95c-0.3-0.58-0.54-1.11-0.79-1.68-0.16 0.5-0.28 0.93-0.4 1.49 0.18 0.61 0.35 1.11 0.57 1.67 0.19-0.5 0.39-0.96 0.62-1.47zm29.55-10.36c0.32-0.23 0.68-0.48 1.04-0.66-0.62-0.48-1.27-0.92-1.95-1.31-0.39 0.1-0.75 0.23-1.11 0.38 0.69 0.51 1.36 1.03 2.02 1.58zm-3.01-2.27c0.31-0.13 0.63-0.23 0.96-0.3-0.62-0.3-1.24-0.56-1.88-0.79-0.29 0-0.61 0-0.92 0.03 0.63 0.33 1.23 0.68 1.83 1.06zm-27.98 4.85c-0.27 0.59-0.49 1.13-0.72 1.77 0.06 0.48 0.12 0.8 0.22 1.2 0.3-0.62 0.6-1.2 0.94-1.82-0.17-0.42-0.31-0.76-0.43-1.15zm28.93-0.9c0.47-0.39 0.93-0.78 1.41-1.17-0.71-0.59-1.41-1.14-2.14-1.7-0.52 0.32-1.01 0.65-1.51 0.98 0.77 0.62 1.5 1.24 2.25 1.88zm-3.13-1.24c-0.68 0.53-1.35 1.06-2.02 1.6 0.8 0.7 1.59 1.4 2.38 2.11 0.65-0.6 1.29-1.18 1.95-1.76-0.76-0.67-1.52-1.31-2.31-1.96zm-2.99 2.43c-0.79 0.69-1.56 1.38-2.34 2.08 0.82 0.76 1.62 1.52 2.43 2.29 0.77-0.74 1.54-1.47 2.31-2.2-0.8-0.73-1.59-1.45-2.4-2.17zm6.87 11.29c0.7-0.78 1.39-1.55 2.08-2.34-0.72-0.81-1.43-1.61-2.17-2.4-0.73 0.78-1.46 1.55-2.2 2.31 0.77 0.81 1.53 1.61 2.29 2.43zm-3.27-1.4c-0.81 0.83-1.63 1.66-2.45 2.49 0.8 0.8 1.6 1.6 2.39 2.41 0.8-0.82 1.59-1.63 2.37-2.46-0.77-0.82-1.54-1.63-2.32-2.44zm-3.49-3.52-2.49 2.46 2.51 2.51c0.82-0.83 1.64-1.66 2.46-2.49zm3.32-3.23-2.3 2.23 2.45 2.46 2.23-2.3-2.39-2.39zm-4.36 2.21c-0.81-0.78-1.62-1.55-2.44-2.32-0.83 0.79-1.64 1.57-2.46 2.37 0.8 0.8 1.61 1.6 2.41 2.4 0.83-0.82 1.66-1.63 2.49-2.45zm-5.97 5.97c0.81-0.83 1.63-1.66 2.45-2.49-0.8-0.8-1.6-1.6-2.4-2.41-0.8 0.82-1.58 1.63-2.37 2.46 0.77 0.82 1.54 1.63 2.32 2.44zm-3.75-1.85c-0.7 0.78-1.39 1.55-2.08 2.34 0.72 0.81 1.43 1.61 2.17 2.4 0.73-0.78 1.46-1.55 2.2-2.31-0.77-0.81-1.53-1.61-2.29-2.43zm-2.43 3.77c-0.54 0.67-1.07 1.34-1.6 2.02 0.65 0.78 1.29 1.54 1.96 2.31 0.58-0.66 1.16-1.3 1.76-1.95-0.72-0.79-1.42-1.57-2.11-2.38zm-0.36 5.14c-0.65-0.75-1.26-1.48-1.88-2.25-0.34 0.5-0.66 1-0.98 1.51 0.56 0.74 1.11 1.43 1.7 2.14 0.39-0.47 0.77-0.94 1.17-1.41zm-4.58-0.62c-0.38-0.6-0.72-1.21-1.06-1.83-0.03 0.31-0.04 0.62-0.04 0.9 0.23 0.65 0.49 1.28 0.79 1.9 0.07-0.33 0.17-0.66 0.3-0.96zm0.93 1.76c0.39 0.68 0.83 1.33 1.31 1.95 0.18-0.36 0.43-0.72 0.66-1.04-0.55-0.66-1.07-1.33-1.58-2.02-0.15 0.36-0.28 0.72-0.38 1.11zm1.36-6.01c-0.49-0.7-0.95-1.38-1.41-2.1-0.26 0.53-0.48 1.02-0.71 1.57 0.39 0.71 0.78 1.36 1.2 2.04 0.29-0.52 0.58-1 0.91-1.51zm1.48-6.51c-0.64 0.77-1.25 1.53-1.87 2.31 0.58 0.75 1.16 1.47 1.75 2.2 0.67-0.79 1.34-1.56 2.03-2.33-0.65-0.72-1.28-1.45-1.91-2.19zm3.86-4.07c-0.75 0.78-1.48 1.57-2.22 2.37 0.65 0.73 1.3 1.46 1.96 2.18 0.77-0.82 1.55-1.63 2.33-2.44-0.7-0.7-1.39-1.4-2.08-2.11zm5.2-1.87c-0.72-0.66-1.45-1.31-2.18-1.96-0.8 0.73-1.58 1.47-2.37 2.22 0.71 0.69 1.41 1.38 2.11 2.08 0.81-0.79 1.62-1.56 2.44-2.33zm4.18-1.93c-0.73-0.6-1.46-1.18-2.2-1.75-0.79 0.62-1.55 1.23-2.31 1.87 0.74 0.63 1.46 1.26 2.19 1.91 0.77-0.69 1.54-1.36 2.33-2.03zm0.84-3.84c-0.7 0.44-1.36 0.88-2.03 1.35 0.74 0.56 1.46 1.12 2.19 1.69 0.67-0.53 1.33-1.03 2.01-1.54-0.72-0.52-1.42-1.01-2.16-1.5zm2.52-1.24c-0.55 0.23-1.04 0.45-1.57 0.71 0.72 0.46 1.39 0.91 2.1 1.41 0.51-0.33 0.99-0.62 1.51-0.91-0.68-0.43-1.33-0.81-2.04-1.2zm-5.52 1.91c0.67-0.44 1.31-0.86 1.99-1.27-0.61-0.33-1.17-0.6-1.81-0.89-0.69 0.34-1.31 0.68-1.97 1.06 0.61 0.36 1.19 0.72 1.78 1.11zm-4.62-1.32c-0.75 0.53-1.47 1.05-2.2 1.61 0.59 0.45 1.17 0.9 1.75 1.37 0.75-0.61 1.5-1.21 2.26-1.8-0.6-0.41-1.18-0.79-1.81-1.18zm-3.92 3.09c-0.76 0.66-1.48 1.32-2.21 2.01 0.54 0.53 1.08 1.06 1.62 1.58 0.77-0.73 1.53-1.44 2.32-2.16-0.57-0.48-1.14-0.96-1.73-1.43zm-4.4-2.24c0.47 0.58 0.95 1.15 1.43 1.73 0.71-0.79 1.42-1.55 2.16-2.32-0.53-0.54-1.05-1.08-1.58-1.62-0.69 0.73-1.34 1.46-2.01 2.21zm0.49 6.7c-0.56 0.73-1.08 1.45-1.61 2.2 0.39 0.63 0.77 1.21 1.18 1.81 0.59-0.76 1.19-1.51 1.8-2.26-0.47-0.58-0.92-1.16-1.37-1.75zm-2.14 5.24c-0.39-0.6-0.75-1.18-1.11-1.78-0.38 0.66-0.71 1.27-1.06 1.97 0.29 0.64 0.57 1.2 0.89 1.81 0.41-0.68 0.83-1.32 1.27-1.99zm-0.55-8.51c-0.46 0.67-0.88 1.31-1.31 2.01 0.16 0.45 0.31 0.81 0.51 1.23 0.5-0.72 0.98-1.4 1.51-2.1-0.26-0.39-0.48-0.74-0.71-1.14z"/><path class="cls-5" d="m57.18 124.18c-0.5 0.72-0.98 1.4-1.51 2.1 0.26 0.39 0.48 0.74 0.71 1.14 0.46-0.67 0.88-1.31 1.31-2.01-0.16-0.45-0.31-0.81-0.51-1.23zm0.58 2.3c-0.32 0.55-0.7 1.1-1.06 1.59 0.03 0.08 0.06 0.18 0.08 0.28 0.36-0.58 0.69-1.18 0.97-1.78v-0.09zm-1.78 2.55c-0.48 0.62-1.09 1.28-1.61 1.84 0.08 0.09 0.17 0.2 0.25 0.29 0.52-0.56 1.01-1.14 1.44-1.73 0-0.14-0.04-0.27-0.08-0.4zm-2.16 2.93c-0.1-0.08-0.2-0.16-0.29-0.25-0.56 0.53-1.22 1.14-1.84 1.62 0.12 0.05 0.25 0.09 0.36 0.09h0.01c0.62-0.45 1.2-0.93 1.76-1.45zm4.95-10.61c-0.3 0.62-0.6 1.2-0.94 1.82 0.18 0.42 0.31 0.76 0.43 1.15 0.27-0.59 0.49-1.13 0.72-1.77-0.06-0.48-0.11-0.8-0.22-1.2zm-0.09-5.28c-0.19 0.5-0.38 0.96-0.62 1.47 0.29 0.58 0.54 1.11 0.79 1.68 0.16-0.5 0.28-0.93 0.4-1.49-0.18-0.61-0.35-1.11-0.57-1.67zm-18.48 19.33c-0.51 0.24-0.97 0.43-1.47 0.62 0.56 0.22 1.06 0.39 1.67 0.57 0.56-0.12 0.99-0.24 1.49-0.4-0.58-0.25-1.1-0.5-1.68-0.79zm16.48-24.25c0.15-0.36 0.28-0.72 0.38-1.11-0.39-0.68-0.83-1.33-1.31-1.95-0.18 0.36-0.43 0.72-0.66 1.04 0.55 0.66 1.07 1.33 1.58 2.02zm0.68 0.99c0.38 0.6 0.72 1.2 1.06 1.83 0.03-0.31 0.04-0.62 0.03-0.9-0.23-0.65-0.49-1.28-0.79-1.9-0.07 0.33-0.17 0.65-0.3 0.96zm-3.09-3.93c0.27-0.33 0.52-0.64 0.74-1.01-0.25-0.29-0.52-0.57-0.79-0.84s-0.55-0.54-0.84-0.79c-0.37 0.22-0.68 0.47-1.01 0.74 0.32 0.31 0.65 0.62 0.97 0.94s0.63 0.64 0.94 0.97zm-7.3 27.39c-0.39-0.13-0.74-0.26-1.15-0.43-0.62 0.34-1.2 0.64-1.82 0.94 0.4 0.1 0.72 0.16 1.2 0.22 0.64-0.23 1.18-0.46 1.77-0.72zm-17.12-3.24c0.37-0.22 0.68-0.47 1.01-0.74-0.32-0.31-0.65-0.62-0.97-0.94s-0.63-0.64-0.94-0.97c-0.27 0.33-0.52 0.64-0.74 1.01 0.25 0.29 0.52 0.57 0.79 0.84s0.55 0.54 0.84 0.79zm1.64-1.27c0.46-0.4 0.92-0.81 1.37-1.22-0.36-0.35-0.73-0.71-1.09-1.06-0.36-0.36-0.71-0.72-1.06-1.09-0.41 0.45-0.82 0.91-1.22 1.37 0.33 0.34 0.65 0.68 0.99 1.02 0.33 0.33 0.68 0.66 1.02 0.99zm-0.05-4.18c0.36 0.38 0.73 0.75 1.1 1.12s0.75 0.74 1.12 1.1c0.64-0.6 1.28-1.2 1.92-1.81-0.39-0.39-0.79-0.77-1.18-1.16s-0.77-0.78-1.16-1.18c-0.6 0.64-1.21 1.28-1.81 1.92zm4.93-5.16-2.23 2.3c0.39 0.4 0.79 0.8 1.19 1.2s0.8 0.79 1.2 1.19l2.3-2.23c-0.41-0.41-0.82-0.81-1.23-1.22s-0.82-0.82-1.22-1.23zm5.97-1.01c-0.42-0.42-0.84-0.83-1.25-1.25l-1.25-1.25c-0.82 0.83-1.64 1.66-2.46 2.49 0.41 0.41 0.82 0.83 1.24 1.24 0.41 0.41 0.83 0.82 1.24 1.24l2.49-2.46zm7.63-7.8c0.6-0.64 1.21-1.28 1.81-1.92-0.36-0.38-0.73-0.75-1.1-1.12s-0.75-0.73-1.12-1.1c-0.64 0.6-1.28 1.2-1.92 1.81 0.39 0.39 0.79 0.77 1.18 1.16s0.77 0.78 1.16 1.18zm3.76-4.1c-0.33-0.34-0.65-0.68-0.99-1.02-0.33-0.33-0.68-0.66-1.02-0.99-0.46 0.4-0.92 0.81-1.37 1.22 0.36 0.35 0.73 0.71 1.09 1.06 0.36 0.36 0.71 0.72 1.06 1.09 0.41-0.45 0.82-0.91 1.22-1.37zm2.54 3.08c-0.56-0.74-1.11-1.43-1.7-2.14-0.38 0.47-0.77 0.94-1.17 1.41 0.65 0.75 1.26 1.48 1.88 2.25 0.34-0.5 0.66-1 0.98-1.51zm-3.59 0.08c-0.58 0.66-1.16 1.3-1.76 1.95 0.72 0.79 1.42 1.57 2.11 2.38 0.54-0.67 1.07-1.34 1.6-2.02-0.65-0.78-1.29-1.54-1.96-2.31zm-6.9 12.16c-0.8-0.8-1.61-1.6-2.41-2.39-0.83 0.82-1.66 1.63-2.49 2.45 0.81 0.78 1.62 1.55 2.44 2.32 0.83-0.79 1.64-1.57 2.46-2.37zm-3.49 3.33c-0.81-0.76-1.62-1.52-2.43-2.29-0.77 0.74-1.54 1.47-2.31 2.2 0.8 0.73 1.59 1.45 2.4 2.17 0.79-0.69 1.56-1.38 2.34-2.08zm-3.32 2.9c-0.8-0.7-1.59-1.4-2.38-2.11-0.65 0.6-1.29 1.18-1.95 1.76 0.76 0.67 1.52 1.31 2.31 1.96 0.68-0.53 1.35-1.06 2.02-1.6zm-5.14 0.36c-0.47 0.39-0.93 0.78-1.41 1.17 0.71 0.59 1.41 1.14 2.14 1.7 0.52-0.32 1.01-0.65 1.51-0.98-0.77-0.62-1.5-1.24-2.25-1.88zm0.96 3.95c-0.31 0.13-0.63 0.23-0.96 0.3 0.62 0.3 1.24 0.56 1.88 0.79 0.29 0 0.61 0 0.92-0.03-0.63-0.33-1.23-0.68-1.83-1.06zm-3.01-2.27c-0.32 0.23-0.68 0.48-1.04 0.66 0.62 0.48 1.27 0.92 1.95 1.31 0.39-0.1 0.75-0.23 1.11-0.38-0.69-0.51-1.36-1.03-2.02-1.58zm3.79 1.88c0.68 0.43 1.33 0.81 2.04 1.2 0.55-0.23 1.04-0.45 1.57-0.71-0.72-0.46-1.39-0.91-2.1-1.41-0.51 0.33-0.99 0.62-1.51 0.91zm4.56-0.04c0.7-0.44 1.36-0.88 2.03-1.35-0.74-0.56-1.46-1.12-2.18-1.69-0.67 0.53-1.33 1.03-2.01 1.54 0.72 0.52 1.42 1.01 2.16 1.5zm5.35-3.96c-0.74-0.63-1.46-1.26-2.19-1.91-0.77 0.69-1.54 1.36-2.33 2.03 0.73 0.6 1.46 1.18 2.2 1.75 0.79-0.62 1.55-1.23 2.31-1.87zm3.38-3.11c-0.71-0.69-1.41-1.38-2.11-2.08-0.81 0.79-1.62 1.56-2.44 2.33 0.72 0.66 1.45 1.31 2.18 1.96 0.8-0.73 1.58-1.47 2.37-2.22zm0.99-0.99c0.75-0.78 1.48-1.57 2.22-2.37-0.65-0.73-1.3-1.46-1.96-2.18-0.77 0.82-1.55 1.63-2.33 2.44 0.7 0.7 1.39 1.4 2.08 2.11zm3.22-7.9c-0.67 0.79-1.34 1.56-2.03 2.33 0.65 0.72 1.28 1.45 1.91 2.19 0.64-0.77 1.25-1.53 1.87-2.31-0.58-0.75-1.16-1.47-1.75-2.2zm3.84-0.83c-0.49-0.74-0.98-1.44-1.5-2.16-0.51 0.68-1.01 1.34-1.54 2.01 0.57 0.73 1.13 1.45 1.69 2.18 0.47-0.68 0.91-1.33 1.35-2.03zm1.24-2.52c-0.39-0.71-0.78-1.36-1.2-2.04-0.29 0.52-0.58 1-0.91 1.51 0.49 0.7 0.95 1.38 1.41 2.1 0.26-0.53 0.48-1.02 0.71-1.57zm0.25 5.34c-0.29-0.64-0.57-1.2-0.89-1.81-0.41 0.68-0.83 1.32-1.27 1.99 0.39 0.6 0.75 1.18 1.11 1.78 0.38-0.66 0.71-1.27 1.06-1.97zm-2.89 1.19c-0.59 0.77-1.19 1.51-1.8 2.26 0.47 0.58 0.92 1.16 1.37 1.75 0.56-0.73 1.08-1.45 1.61-2.2-0.39-0.63-0.77-1.21-1.18-1.81zm-1.24 5c-0.47-0.58-0.95-1.15-1.43-1.73-0.71 0.79-1.42 1.55-2.16 2.32 0.53 0.54 1.05 1.08 1.58 1.62 0.69-0.73 1.34-1.46 2.01-2.21zm-5.15 5.15c0.76-0.66 1.48-1.32 2.21-2-0.54-0.53-1.08-1.06-1.62-1.58-0.77 0.73-1.53 1.44-2.32 2.16 0.57 0.48 1.14 0.96 1.73 1.43zm-0.99 0.81c-0.59-0.45-1.17-0.9-1.75-1.37-0.75 0.61-1.49 1.21-2.26 1.8 0.61 0.41 1.19 0.79 1.81 1.18 0.75-0.53 1.47-1.05 2.2-1.61zm-3.23 2.26c-0.61-0.36-1.19-0.72-1.79-1.11-0.67 0.44-1.31 0.86-1.99 1.27 0.61 0.33 1.17 0.6 1.81 0.89 0.69-0.34 1.31-0.68 1.97-1.06zm5.16-0.99c-0.39-0.23-0.75-0.45-1.14-0.71-0.7 0.53-1.38 1.02-2.1 1.51 0.42 0.19 0.78 0.35 1.23 0.51 0.7-0.43 1.34-0.85 2.01-1.31zm2.96-2.48c-0.33-0.31-0.67-0.63-1-0.94-0.71 0.66-1.4 1.29-2.13 1.92 0.38 0.27 0.73 0.52 1.13 0.77 0.69-0.58 1.33-1.14 1.99-1.75zm2.61-2.86c-0.25-0.4-0.5-0.75-0.77-1.13-0.63 0.73-1.26 1.42-1.92 2.13 0.32 0.33 0.63 0.66 0.94 1 0.61-0.66 1.17-1.3 1.75-1.99zm-4.92 5.65c-0.5 0.36-1.05 0.74-1.6 1.06h0.08c0.62-0.29 1.22-0.62 1.8-0.98-0.1-0.02-0.19-0.05-0.28-0.08zm-11.9-33.48c-0.64 0.23-1.18 0.46-1.77 0.72 0.4 0.13 0.74 0.26 1.15 0.43 0.62-0.34 1.2-0.64 1.82-0.94-0.4-0.1-0.72-0.16-1.2-0.22zm5.68 1.34c-0.56-0.22-1.06-0.39-1.67-0.57-0.56 0.12-0.99 0.24-1.49 0.4 0.58 0.25 1.1 0.5 1.68 0.79 0.52-0.24 0.97-0.43 1.47-0.62zm-22.61 13.95c-0.3-0.58-0.54-1.11-0.79-1.68-0.16 0.5-0.28 0.93-0.4 1.49 0.18 0.61 0.35 1.11 0.57 1.67 0.19-0.5 0.39-0.96 0.62-1.47zm29.55-10.36c0.32-0.23 0.68-0.48 1.04-0.66-0.62-0.48-1.27-0.92-1.95-1.31-0.39 0.1-0.75 0.23-1.11 0.38 0.69 0.51 1.36 1.03 2.02 1.58zm-3.01-2.27c0.31-0.13 0.63-0.23 0.96-0.3-0.62-0.3-1.24-0.56-1.88-0.79-0.29 0-0.61 0-0.92 0.03 0.63 0.33 1.23 0.68 1.83 1.06zm-27.98 4.85c-0.27 0.59-0.49 1.13-0.72 1.77 0.06 0.48 0.12 0.8 0.22 1.2 0.3-0.62 0.6-1.2 0.94-1.82-0.17-0.42-0.31-0.76-0.43-1.15zm28.93-0.9c0.47-0.39 0.93-0.78 1.41-1.17-0.71-0.59-1.41-1.14-2.14-1.7-0.52 0.32-1.01 0.65-1.51 0.98 0.77 0.62 1.5 1.24 2.25 1.88zm-3.13-1.24c-0.68 0.53-1.35 1.06-2.02 1.6 0.8 0.7 1.59 1.4 2.38 2.11 0.65-0.6 1.29-1.18 1.95-1.76-0.76-0.67-1.52-1.31-2.31-1.96zm-2.99 2.43c-0.79 0.69-1.56 1.38-2.34 2.08 0.82 0.76 1.62 1.52 2.43 2.29 0.77-0.74 1.54-1.47 2.31-2.2-0.8-0.73-1.59-1.45-2.4-2.17zm6.87 11.29c0.7-0.78 1.39-1.55 2.08-2.34-0.72-0.81-1.43-1.61-2.17-2.4-0.73 0.78-1.46 1.55-2.2 2.31 0.77 0.81 1.53 1.61 2.29 2.43zm-3.27-1.4c-0.81 0.83-1.63 1.66-2.45 2.49 0.8 0.8 1.6 1.6 2.39 2.41 0.8-0.82 1.59-1.63 2.37-2.46-0.77-0.82-1.54-1.63-2.32-2.44zm-3.49-3.52-2.49 2.46 2.51 2.51c0.82-0.83 1.64-1.66 2.46-2.49zm3.32-3.23-2.3 2.23 2.45 2.46 2.23-2.3-2.39-2.39zm-4.36 2.21c-0.81-0.78-1.62-1.55-2.44-2.32-0.83 0.79-1.64 1.57-2.46 2.37 0.8 0.8 1.61 1.6 2.41 2.4 0.83-0.82 1.66-1.63 2.49-2.45zm-9.72 4.12c-0.7 0.78-1.39 1.55-2.08 2.34 0.72 0.81 1.43 1.61 2.17 2.4 0.73-0.78 1.46-1.55 2.2-2.31-0.77-0.81-1.53-1.61-2.29-2.43zm-2.79 8.91c-0.65-0.75-1.26-1.48-1.88-2.25-0.34 0.5-0.66 1-0.98 1.51 0.56 0.74 1.11 1.43 1.7 2.14 0.39-0.47 0.77-0.94 1.17-1.41zm-4.58-0.62c-0.38-0.6-0.72-1.21-1.06-1.83-0.03 0.31-0.04 0.62-0.04 0.9 0.23 0.65 0.49 1.28 0.79 1.9 0.07-0.33 0.17-0.66 0.3-0.96zm0.93 1.76c0.39 0.68 0.83 1.33 1.31 1.95 0.18-0.36 0.43-0.72 0.66-1.04-0.55-0.66-1.07-1.33-1.58-2.02-0.15 0.36-0.28 0.72-0.38 1.11zm1.36-6.01c-0.49-0.7-0.95-1.38-1.41-2.1-0.26 0.53-0.48 1.02-0.71 1.57 0.39 0.71 0.78 1.36 1.2 2.04 0.29-0.52 0.58-1 0.91-1.51zm1.48-6.51c-0.64 0.77-1.25 1.53-1.87 2.31 0.58 0.75 1.16 1.47 1.75 2.2 0.67-0.79 1.34-1.56 2.03-2.33-0.65-0.72-1.28-1.45-1.91-2.19zm3.86-4.07c-0.75 0.78-1.48 1.57-2.22 2.37 0.65 0.73 1.3 1.46 1.96 2.18 0.77-0.82 1.55-1.63 2.33-2.44-0.7-0.7-1.39-1.4-2.08-2.11zm5.2-1.87c-0.72-0.66-1.45-1.31-2.18-1.96-0.8 0.73-1.58 1.47-2.37 2.22 0.71 0.69 1.41 1.38 2.11 2.08 0.81-0.79 1.62-1.56 2.44-2.33zm5.01-5.77c-0.7 0.44-1.36 0.88-2.03 1.35 0.74 0.56 1.46 1.12 2.19 1.69 0.67-0.53 1.33-1.03 2.01-1.54-0.72-0.52-1.42-1.01-2.16-1.5zm2.52-1.24c-0.55 0.23-1.04 0.45-1.57 0.71 0.72 0.46 1.39 0.91 2.1 1.41 0.51-0.33 0.99-0.62 1.51-0.91-0.68-0.43-1.33-0.81-2.04-1.2zm-5.52 1.91c0.67-0.44 1.31-0.86 1.99-1.27-0.61-0.33-1.17-0.6-1.81-0.89-0.69 0.34-1.31 0.68-1.97 1.06 0.61 0.36 1.19 0.72 1.78 1.11zm-8.54 1.77c-0.76 0.66-1.48 1.32-2.21 2.01 0.54 0.53 1.08 1.06 1.62 1.58 0.77-0.73 1.53-1.44 2.32-2.16-0.57-0.48-1.14-0.96-1.73-1.43zm-4.4-2.24c0.47 0.58 0.95 1.15 1.43 1.73 0.71-0.79 1.42-1.55 2.16-2.32-0.53-0.54-1.05-1.08-1.58-1.62-0.69 0.73-1.34 1.46-2.01 2.21zm-1.66 11.94c-0.39-0.6-0.75-1.18-1.11-1.78-0.38 0.66-0.71 1.27-1.06 1.97 0.29 0.64 0.57 1.2 0.89 1.81 0.41-0.68 0.83-1.32 1.27-1.99zm-0.55-8.51c-0.46 0.67-0.88 1.31-1.31 2.01 0.16 0.45 0.31 0.81 0.51 1.23 0.5-0.72 0.98-1.4 1.51-2.1-0.26-0.39-0.48-0.74-0.71-1.14z"/></g></svg>
