<?xml version="1.0" encoding="UTF-8"?><svg id="Ebene_1" xmlns="http://www.w3.org/2000/svg" viewBox="0 0 492.23 212.82"><defs><style>.cls-1{fill:none;}.cls-2,.cls-3{fill:#422683;}.cls-4{fill:#1d1d1b;}.cls-3,.cls-5,.cls-6,.cls-7{fill-rule:evenodd;}.cls-5{fill:#e30613;}.cls-6{fill:#65b32e;}.cls-7{fill:#ea5b0c;}</style></defs><g><path class="cls-1" d="M108.1,.89c28.17,.02,53.49,11.72,71.85,30.56,19.02,19.52,30.57,46.72,30.05,76.54-22.73,4.79-29.17,10.42-40.94,13.72-22.22,6.21-42.56,8.22-85.91,6.72-2.42-54.5,5.72-85.72,24.94-127.53Z"/><path class="cls-3" d="M106.47,212.81c-1.21,.02-2.42,.02-3.62,0-28.51-.57-55.75-12.4-77.31-38.45C11.9,157.86,1.46,136.21,0,104.15c21.44,10.85,58.39,23.61,83.97,24.46,2.07,25.81,9.03,55.32,20.46,82.1"/><path class="cls-5" d="M93.23,120.82c26.93-.63,53.61-4.01,80.03-10.15-1.51-43.86-23.81-68.07-66.89-72.65-8.7,22-13.09,49.6-13.15,82.8Z"/><path class="cls-7" d="M166.18,25.77c19.74,16.8,33.31,44.58,36.54,72.83,.26,2.25,2.34,3.84,4.56,3.36,.03,0,.07-.01,.1-.02,1.85-.39,3.18-2.08,3.04-3.97-2.34-30.13-18.09-55.36-40.33-73.78-14.82-12.27-34.05-19.31-54.78-21.54,19.05,2.75,36.57,10.94,50.88,23.12Z"/><path class="cls-6" d="M108.55,.55c-11.64,34.14-21.9,51.14-31.74,61.45-7.46,7.82-17.54,18.64-29.75,25.78C30.35,97.55,5.91,107.1,.27,104.14c1.81-26.9,11.05-52.01,28.04-69.43C49.23,13.24,76.9-.65,108.55,.55Z"/></g><g><path class="cls-4" d="M281.27,100.29c0,.38-.12,.72-.37,1.02-.25,.3-.65,.55-1.21,.73-.57,.19-1.32,.34-2.26,.45-.94,.11-2.15,.17-3.62,.17s-2.63-.06-3.59-.17c-.96-.11-1.72-.26-2.29-.45-.57-.19-.97-.43-1.22-.73-.25-.3-.37-.64-.37-1.02V31.21c0-.38,.12-.72,.37-1.02,.25-.3,.66-.55,1.24-.73,.58-.19,1.35-.34,2.29-.45,.94-.11,2.13-.17,3.56-.17s2.67,.06,3.62,.17c.94,.11,1.7,.26,2.26,.45,.57,.19,.97,.43,1.21,.73,.25,.3,.37,.64,.37,1.02V100.29Z"/><path class="cls-4" d="M360.09,100.29c0,.38-.12,.72-.37,1.02-.25,.3-.65,.55-1.21,.73-.57,.19-1.32,.34-2.26,.45-.94,.11-2.13,.17-3.56,.17s-2.68-.06-3.65-.17c-.96-.11-1.72-.26-2.26-.45-.55-.19-.94-.43-1.19-.73-.25-.3-.37-.64-.37-1.02v-29.56h-27.36v29.56c0,.38-.11,.72-.34,1.02-.23,.3-.62,.55-1.19,.73-.57,.19-1.32,.34-2.26,.45-.94,.11-2.15,.17-3.62,.17s-2.63-.06-3.59-.17c-.96-.11-1.72-.26-2.29-.45-.57-.19-.97-.43-1.22-.73-.25-.3-.37-.64-.37-1.02V31.21c0-.38,.12-.72,.37-1.02,.25-.3,.65-.55,1.22-.73,.57-.19,1.33-.34,2.29-.45,.96-.11,2.16-.17,3.59-.17s2.67,.06,3.62,.17c.94,.11,1.7,.26,2.26,.45,.57,.19,.96,.43,1.19,.73,.23,.3,.34,.64,.34,1.02v26.85h27.36V31.21c0-.38,.12-.72,.37-1.02,.24-.3,.64-.55,1.19-.73,.55-.19,1.3-.34,2.26-.45,.96-.11,2.18-.17,3.65-.17s2.62,.06,3.56,.17c.94,.11,1.7,.26,2.26,.45,.56,.19,.97,.43,1.21,.73,.25,.3,.37,.64,.37,1.02V100.29Z"/><path class="cls-4" d="M422.87,35.28c0,1.13-.05,2.08-.14,2.85-.09,.77-.25,1.38-.45,1.84-.21,.45-.44,.79-.71,1.02s-.56,.34-.9,.34h-23.91v19.67h22.44c.34,0,.64,.09,.9,.28,.26,.19,.5,.51,.71,.96,.21,.45,.36,1.06,.45,1.81,.09,.75,.14,1.7,.14,2.83s-.05,2.07-.14,2.83c-.09,.75-.25,1.38-.45,1.87-.21,.49-.44,.84-.71,1.05-.26,.21-.56,.31-.9,.31h-22.44v27.25c0,.42-.11,.77-.34,1.07-.23,.3-.63,.56-1.21,.76-.58,.21-1.35,.37-2.29,.48-.94,.11-2.15,.17-3.62,.17s-2.63-.06-3.59-.17c-.96-.11-1.72-.27-2.29-.48-.57-.21-.97-.46-1.22-.76-.25-.3-.37-.66-.37-1.07V33.87c0-1.66,.42-2.85,1.27-3.59,.85-.73,1.89-1.1,3.14-1.1h34.43c.34,0,.64,.1,.9,.31,.26,.21,.5,.55,.71,1.02,.21,.47,.36,1.1,.45,1.89,.09,.79,.14,1.75,.14,2.88Z"/><path class="cls-4" d="M490.5,91.25c0,.94-.03,1.74-.08,2.4-.06,.66-.14,1.23-.25,1.7-.11,.47-.26,.88-.45,1.22-.19,.34-.49,.73-.9,1.16-.42,.43-1.22,.99-2.4,1.67-1.19,.68-2.64,1.33-4.35,1.95-1.72,.62-3.67,1.14-5.88,1.55-2.2,.41-4.59,.62-7.15,.62-5.01,0-9.54-.77-13.57-2.32-4.03-1.54-7.46-3.85-10.29-6.92-2.83-3.07-4.99-6.91-6.5-11.5-1.51-4.6-2.26-9.95-2.26-16.05s.83-11.74,2.49-16.56c1.66-4.82,3.98-8.88,6.95-12.15,2.98-3.28,6.55-5.77,10.71-7.46,4.16-1.7,8.75-2.54,13.76-2.54,2.04,0,3.99,.17,5.88,.51,1.88,.34,3.63,.78,5.23,1.33,1.6,.55,3.04,1.18,4.32,1.89,1.28,.72,2.18,1.33,2.69,1.84s.86,.93,1.05,1.27c.19,.34,.34,.77,.45,1.3,.11,.53,.2,1.15,.25,1.87,.06,.72,.08,1.6,.08,2.66,0,1.13-.04,2.09-.11,2.88-.08,.79-.21,1.43-.4,1.92-.19,.49-.42,.85-.68,1.07s-.57,.34-.9,.34c-.57,0-1.28-.33-2.15-.99-.87-.66-1.99-1.39-3.36-2.2-1.38-.81-3.02-1.54-4.92-2.2-1.9-.66-4.17-.99-6.81-.99-2.9,0-5.49,.59-7.77,1.78-2.28,1.19-4.22,2.88-5.82,5.09-1.6,2.2-2.82,4.87-3.65,8-.83,3.13-1.24,6.65-1.24,10.57,0,4.3,.44,8.02,1.33,11.16,.88,3.15,2.15,5.74,3.79,7.77,1.64,2.03,3.62,3.55,5.94,4.55,2.32,1,4.93,1.5,7.83,1.5,2.64,0,4.92-.31,6.84-.93,1.92-.62,3.57-1.31,4.95-2.06,1.38-.75,2.51-1.43,3.39-2.03,.88-.6,1.57-.9,2.06-.9,.38,0,.68,.08,.91,.23,.23,.15,.41,.45,.56,.9s.26,1.08,.34,1.89c.08,.81,.11,1.89,.11,3.25Z"/></g><g><path class="cls-4" d="M274.45,151.74v17.73h-4.02v-17.73h4.02Z"/><path class="cls-4" d="M280.56,169.47v-17.73h4.68l3.68,6.5c1.05,1.87,2.1,4.08,2.89,6.08h.08c-.26-2.34-.34-4.74-.34-7.39v-5.18h3.68v17.73h-4.21l-3.79-6.84c-1.05-1.89-2.21-4.18-3.08-6.26l-.08,.03c.1,2.34,.16,4.84,.16,7.73v5.34h-3.68Z"/><path class="cls-4" d="M304.76,155.1h-4.76v-3.37h13.63v3.37h-4.84v14.36h-4.02v-14.36Z"/><path class="cls-4" d="M328.94,161.97h-6.52v4.21h7.29v3.29h-11.31v-17.73h10.94v3.29h-6.92v3.68h6.52v3.26Z"/><path class="cls-4" d="M335.07,151.97c1.29-.21,3.21-.37,5.34-.37,2.63,0,4.47,.39,5.74,1.39,1.05,.84,1.63,2.08,1.63,3.71,0,2.26-1.61,3.81-3.13,4.37v.08c1.24,.5,1.92,1.68,2.37,3.31,.55,2,1.11,4.31,1.45,5h-4.1c-.29-.5-.71-1.95-1.24-4.13-.47-2.21-1.24-2.81-2.87-2.84h-1.21v6.97h-3.97v-17.49Zm3.97,7.63h1.58c2,0,3.18-1,3.18-2.55,0-1.63-1.1-2.45-2.95-2.47-.97,0-1.53,.08-1.82,.13v4.89Z"/><path class="cls-4" d="M353.31,169.47v-17.73h4.68l3.68,6.5c1.05,1.87,2.1,4.08,2.89,6.08h.08c-.26-2.34-.34-4.74-.34-7.39v-5.18h3.68v17.73h-4.21l-3.79-6.84c-1.05-1.89-2.21-4.18-3.08-6.26l-.08,.03c.1,2.34,.16,4.84,.16,7.73v5.34h-3.68Z"/><path class="cls-4" d="M378.22,164.92l-1.26,4.55h-4.16l5.42-17.73h5.26l5.5,17.73h-4.31l-1.37-4.55h-5.08Zm4.5-3l-1.1-3.76c-.32-1.05-.63-2.37-.89-3.42h-.05c-.26,1.05-.53,2.39-.82,3.42l-1.05,3.76h3.92Z"/><path class="cls-4" d="M395.22,155.1h-4.76v-3.37h13.63v3.37h-4.84v14.36h-4.02v-14.36Z"/><path class="cls-4" d="M412.88,151.74v17.73h-4.02v-17.73h4.02Z"/><path class="cls-4" d="M435.21,160.42c0,5.81-3.52,9.34-8.71,9.34s-8.34-3.97-8.34-9.02c0-5.31,3.39-9.29,8.63-9.29s8.42,4.08,8.42,8.97Zm-12.81,.24c0,3.47,1.63,5.92,4.31,5.92s4.26-2.58,4.26-6.02c0-3.18-1.53-5.92-4.29-5.92s-4.29,2.58-4.29,6.02Z"/><path class="cls-4" d="M440.48,169.47v-17.73h4.68l3.68,6.5c1.05,1.87,2.1,4.08,2.89,6.08h.08c-.26-2.34-.34-4.74-.34-7.39v-5.18h3.68v17.73h-4.21l-3.79-6.84c-1.05-1.89-2.21-4.18-3.08-6.26l-.08,.03c.1,2.34,.16,4.84,.16,7.73v5.34h-3.68Z"/><path class="cls-4" d="M465.39,164.92l-1.26,4.55h-4.16l5.42-17.73h5.26l5.5,17.73h-4.31l-1.37-4.55h-5.08Zm4.5-3l-1.1-3.76c-.32-1.05-.63-2.37-.89-3.42h-.05c-.26,1.05-.53,2.39-.82,3.42l-1.05,3.76h3.92Z"/><path class="cls-4" d="M481.15,151.74h4.02v14.36h7.05v3.37h-11.08v-17.73Z"/><path class="cls-4" d="M149.29,188.57v6.81h6.6v-6.81h4v17.73h-4v-7.42h-6.6v7.42h-4.02v-17.73h4.02Z"/><path class="cls-4" d="M176.57,198.81h-6.52v4.21h7.29v3.29h-11.31v-17.73h10.94v3.29h-6.92v3.68h6.52v3.26Z"/><path class="cls-4" d="M186.83,201.75l-1.26,4.55h-4.16l5.42-17.73h5.26l5.5,17.73h-4.31l-1.37-4.55h-5.08Zm4.5-3l-1.1-3.76c-.32-1.05-.63-2.37-.89-3.42h-.05c-.26,1.05-.53,2.39-.82,3.42l-1.05,3.76h3.92Z"/><path class="cls-4" d="M203.83,191.94h-4.76v-3.37h13.63v3.37h-4.84v14.36h-4.02v-14.36Z"/><path class="cls-4" d="M225.41,188.57h10.84v3.29h-6.81v4.05h6.37v3.26h-6.37v7.13h-4.02v-17.73Z"/><path class="cls-4" d="M241.9,188.57h4.02v14.36h7.05v3.37h-11.08v-17.73Z"/><path class="cls-4" d="M273.21,197.25c0,5.81-3.52,9.34-8.71,9.34s-8.34-3.97-8.34-9.02c0-5.31,3.39-9.29,8.63-9.29s8.42,4.08,8.42,8.97Zm-12.81,.24c0,3.47,1.63,5.92,4.31,5.92s4.26-2.58,4.26-6.02c0-3.18-1.53-5.92-4.29-5.92s-4.29,2.58-4.29,6.02Z"/><path class="cls-4" d="M281.16,206.3l-4.21-17.73h4.29l1.34,7.31c.39,2.1,.76,4.39,1.05,6.18h.05c.29-1.92,.71-4.05,1.16-6.23l1.5-7.26h4.26l1.42,7.47c.39,2.08,.68,3.97,.95,5.95h.05c.26-1.97,.66-4.05,1.03-6.16l1.45-7.26h4.08l-4.58,17.73h-4.34l-1.5-7.63c-.34-1.79-.63-3.45-.84-5.47h-.05c-.32,2-.6,3.68-1.03,5.47l-1.68,7.63h-4.39Z"/><path class="cls-4" d="M325.26,205.8c-.74,.37-2.39,.76-4.55,.76-6.13,0-9.29-3.81-9.29-8.87,0-6.05,4.31-9.42,9.68-9.42,2.08,0,3.66,.42,4.37,.79l-.82,3.18c-.82-.34-1.95-.66-3.37-.66-3.18,0-5.66,1.92-5.66,5.87,0,3.55,2.1,5.79,5.68,5.79,1.21,0,2.55-.26,3.34-.58l.61,3.13Z"/><path class="cls-4" d="M345.96,197.25c0,5.81-3.52,9.34-8.71,9.34s-8.34-3.97-8.34-9.02c0-5.31,3.39-9.29,8.63-9.29s8.42,4.08,8.42,8.97Zm-12.81,.24c0,3.47,1.63,5.92,4.31,5.92s4.26-2.58,4.26-6.02c0-3.18-1.53-5.92-4.29-5.92s-4.29,2.58-4.29,6.02Z"/><path class="cls-4" d="M366.22,199.52c-.08-2.13-.16-4.71-.16-7.29h-.08c-.55,2.26-1.29,4.79-1.97,6.87l-2.16,6.92h-3.13l-1.89-6.87c-.58-2.08-1.18-4.6-1.61-6.92h-.05c-.1,2.39-.18,5.13-.32,7.34l-.32,6.73h-3.71l1.13-17.73h5.34l1.74,5.92c.55,2.05,1.11,4.26,1.5,6.34h.08c.5-2.05,1.1-4.39,1.68-6.37l1.89-5.89h5.24l.97,17.73h-3.92l-.26-6.79Z"/><path class="cls-4" d="M391.11,199.52c-.08-2.13-.16-4.71-.16-7.29h-.08c-.55,2.26-1.29,4.79-1.97,6.87l-2.16,6.92h-3.13l-1.89-6.87c-.58-2.08-1.18-4.6-1.61-6.92h-.05c-.1,2.39-.18,5.13-.32,7.34l-.32,6.73h-3.71l1.13-17.73h5.34l1.74,5.92c.55,2.05,1.11,4.26,1.5,6.34h.08c.5-2.05,1.1-4.39,1.68-6.37l1.89-5.89h5.24l.97,17.73h-3.92l-.26-6.79Z"/><path class="cls-4" d="M405.03,188.57v17.73h-4.02v-17.73h4.02Z"/><path class="cls-4" d="M411.27,202.17c1.08,.55,2.74,1.1,4.45,1.1,1.84,0,2.81-.76,2.81-1.92s-.84-1.74-2.97-2.5c-2.95-1.03-4.87-2.66-4.87-5.24,0-3.03,2.53-5.34,6.71-5.34,2,0,3.47,.42,4.52,.89l-.89,3.24c-.71-.34-1.97-.84-3.71-.84s-2.58,.79-2.58,1.71c0,1.13,1,1.63,3.29,2.5,3.13,1.16,4.6,2.79,4.6,5.29,0,2.97-2.29,5.5-7.16,5.5-2.03,0-4.03-.53-5.03-1.08l.82-3.31Z"/><path class="cls-4" d="M428.11,202.17c1.08,.55,2.74,1.1,4.45,1.1,1.84,0,2.81-.76,2.81-1.92s-.84-1.74-2.97-2.5c-2.95-1.03-4.87-2.66-4.87-5.24,0-3.03,2.53-5.34,6.71-5.34,2,0,3.47,.42,4.52,.89l-.89,3.24c-.71-.34-1.97-.84-3.71-.84s-2.58,.79-2.58,1.71c0,1.13,1,1.63,3.29,2.5,3.13,1.16,4.6,2.79,4.6,5.29,0,2.97-2.29,5.5-7.16,5.5-2.03,0-4.03-.53-5.02-1.08l.82-3.31Z"/><path class="cls-4" d="M448.84,188.57v17.73h-4.02v-17.73h4.02Z"/><path class="cls-4" d="M471.18,197.25c0,5.81-3.52,9.34-8.71,9.34s-8.34-3.97-8.34-9.02c0-5.31,3.39-9.29,8.63-9.29s8.42,4.08,8.42,8.97Zm-12.81,.24c0,3.47,1.63,5.92,4.31,5.92s4.26-2.58,4.26-6.02c0-3.18-1.53-5.92-4.29-5.92s-4.29,2.58-4.29,6.02Z"/><path class="cls-4" d="M476.44,206.3v-17.73h4.68l3.68,6.5c1.05,1.87,2.1,4.08,2.89,6.08h.08c-.26-2.34-.34-4.73-.34-7.39v-5.18h3.68v17.73h-4.21l-3.79-6.84c-1.05-1.89-2.21-4.18-3.08-6.26l-.08,.03c.11,2.34,.16,4.84,.16,7.73v5.34h-3.68Z"/></g><path class="cls-2" d="M210.73,107.44c-2.45,1.17-4.95,2.25-7.46,3.29-2.52,1.02-5.06,1.98-7.62,2.91-5.11,1.86-10.3,3.51-15.51,5.09-10.44,3.08-21.03,5.71-31.74,7.75-10.7,2.11-21.54,3.6-32.47,4.44-10.92,.79-21.95,.85-32.96-.38-1.3-.14-2.27-1.22-2.32-2.49-.43-11.05-.51-22.13,.1-33.2,.69-11.06,1.95-22.13,4.3-32.99,.53-2.73,1.22-5.41,1.89-8.11,.62-2.7,1.45-5.35,2.22-8.01,.76-2.67,1.71-5.27,2.56-7.9,.89-2.62,1.89-5.2,2.83-7.79,4.01-10.3,8.67-20.3,13.79-30.04-4.05,10.23-8.05,20.47-11.34,30.91-3.35,10.42-6.02,21.01-7.9,31.73l-.68,4.02c-.21,1.34-.37,2.7-.55,4.04l-.56,4.04-.42,4.06-.42,4.06-.28,4.07-.28,4.07-.15,4.08c-.47,10.88-.33,21.81,.16,32.72l-2.32-2.49c10.55,1.28,21.31,1.24,32.02,.65,10.73-.55,21.42-1.9,32.09-3.51,10.65-1.68,21.27-3.73,31.79-6.21,5.27-1.2,10.51-2.55,15.73-3.99,5.21-1.46,10.41-2.99,15.52-4.83Z"/></svg>